<svg width="471" height="33" viewBox="0 0 471 33" fill="none" xmlns="http://www.w3.org/2000/svg">
<rect x="0.5" y="0.5" width="470" height="32" rx="4.5" fill="#121212" stroke="#191919"/>
<path d="M20.0781 10.4011V21.3142H18.0786L13.3398 14.4514H13.252V21.3142H10.9521V10.4011H12.9736L17.6831 17.2639H17.7783V10.4011H20.0781ZM26.3799 21.4753C25.5547 21.4753 24.8394 21.2996 24.2339 20.948C23.6333 20.5916 23.1694 20.0984 22.8423 19.4685C22.52 18.8337 22.3589 18.0964 22.3589 17.2566C22.3589 16.4119 22.52 15.6721 22.8423 15.0374C23.1694 14.4026 23.6333 13.9094 24.2339 13.5579C24.8394 13.2014 25.5547 13.0232 26.3799 13.0232C27.21 13.0232 27.9253 13.2014 28.5259 13.5579C29.1313 13.9094 29.5952 14.4026 29.9175 15.0374C30.2446 15.6721 30.4082 16.4119 30.4082 17.2566C30.4082 18.0964 30.2446 18.8337 29.9175 19.4685C29.5952 20.0984 29.1313 20.5916 28.5259 20.948C27.9253 21.2996 27.21 21.4753 26.3799 21.4753ZM24.666 17.2419C24.666 17.9548 24.8101 18.5432 25.0981 19.0071C25.3862 19.4709 25.8159 19.7029 26.3872 19.7029C26.9536 19.7029 27.3809 19.4709 27.6689 19.0071C27.957 18.5432 28.1011 17.9548 28.1011 17.2419C28.1011 16.5291 27.957 15.9431 27.6689 15.4841C27.3809 15.0251 26.9536 14.7957 26.3872 14.7957C25.8159 14.7957 25.3862 15.0251 25.0981 15.4841C24.8101 15.9431 24.666 16.5291 24.666 17.2419ZM37.0029 13.1257V14.8396H35.4502V18.7947C35.4502 19.3269 35.709 19.593 36.2266 19.593C36.3145 19.593 36.4097 19.5857 36.5122 19.571C36.6196 19.5564 36.7124 19.5393 36.7905 19.5198L37.1494 21.219C36.666 21.3606 36.1973 21.4314 35.7432 21.4314C34.9326 21.4314 34.3027 21.2263 33.8535 20.8162C33.4092 20.406 33.187 19.8323 33.187 19.095V14.8396H32.0737V13.1257H33.187V11.1775H35.4502V13.1257H37.0029ZM39.2324 21.3142V13.1257H41.5029V21.3142H39.2324ZM40.3677 12.0784C40.0308 12.0784 39.7402 11.9661 39.4961 11.7415C39.2568 11.5168 39.1372 11.2458 39.1372 10.9285C39.1372 10.6111 39.2568 10.3425 39.4961 10.1228C39.7402 9.89819 40.0308 9.78589 40.3677 9.78589C40.7046 9.78589 40.9927 9.89819 41.2319 10.1228C41.4761 10.3425 41.5981 10.6111 41.5981 10.9285C41.5981 11.2458 41.4761 11.5168 41.2319 11.7415C40.9927 11.9661 40.7046 12.0784 40.3677 12.0784ZM44.604 21.3142V14.8396H43.4541V13.1257H44.604V12.5325C44.604 11.6487 44.8579 10.9871 45.3657 10.5476C45.8784 10.1082 46.5181 9.88843 47.2847 9.88843C47.6362 9.88843 47.9561 9.91772 48.2441 9.97632C48.5371 10.03 48.752 10.0764 48.8887 10.1155L48.4858 11.8147C48.3979 11.7903 48.2905 11.7659 48.1636 11.7415C48.0366 11.717 47.9023 11.7048 47.7607 11.7048C47.4287 11.7048 47.1943 11.783 47.0576 11.9392C46.9258 12.0906 46.8599 12.3054 46.8599 12.5837V13.1257H48.4932V14.8396H46.8599V21.3142H44.604ZM52.019 24.4343C51.731 24.4343 51.46 24.4124 51.2061 24.3684C50.957 24.3245 50.7495 24.2708 50.5835 24.2073L51.1035 22.5154L51.1768 22.53C51.5576 22.6375 51.8848 22.6619 52.1582 22.6033C52.4365 22.5447 52.6416 22.3298 52.7734 21.9587L52.9126 21.5486L49.9829 13.1257H52.3633L54.0625 19.1389H54.1504L55.8569 13.1257H58.2593L55.0586 22.259C54.8291 22.9231 54.4751 23.4504 53.9966 23.8411C53.5229 24.2366 52.8638 24.4343 52.019 24.4343ZM66.9707 15.4622L64.9053 15.5867C64.8467 15.3279 64.7002 15.1057 64.4658 14.9202C64.2363 14.7297 63.9238 14.6345 63.5283 14.6345C63.1768 14.6345 62.8813 14.7078 62.6421 14.8542C62.4028 15.0007 62.2832 15.196 62.2832 15.4402C62.2832 15.6355 62.3613 15.8015 62.5176 15.9382C62.6738 16.075 62.9399 16.1848 63.3159 16.2678L64.8027 16.5608C66.375 16.8733 67.1611 17.6106 67.1611 18.7727C67.1611 19.3147 67.0049 19.7883 66.6924 20.1936C66.3799 20.5989 65.9502 20.9138 65.4033 21.1384C64.8564 21.363 64.229 21.4753 63.521 21.4753C62.437 21.4753 61.5752 21.2507 60.9355 20.8015C60.2959 20.3474 59.9199 19.7297 59.8076 18.9485L62.0342 18.8313C62.1855 19.5051 62.6836 19.842 63.5283 19.842C63.9238 19.842 64.2437 19.7639 64.4878 19.6077C64.7319 19.4514 64.854 19.2537 64.854 19.0144C64.854 18.6091 64.5049 18.3357 63.8066 18.1941L62.3931 17.9011C60.8159 17.5837 60.0273 16.8074 60.0273 15.572C60.0273 14.781 60.3423 14.1584 60.9722 13.7043C61.6069 13.2502 62.4468 13.0232 63.4917 13.0232C64.5269 13.0232 65.3423 13.2429 65.938 13.6824C66.5337 14.1169 66.8779 14.7102 66.9707 15.4622Z" fill="white"/>
</svg>
