<svg width="470" height="50" viewBox="0 0 470 50" fill="none" xmlns="http://www.w3.org/2000/svg">
<rect x="0.5" y="1" width="468.185" height="48.1111" rx="6.5" fill="#1E1E1E" stroke="#2B2B2B"/>
<path d="M12.4896 20.8716C11.3428 20.8716 10.4266 20.6092 9.74109 20.0845C9.05977 19.5597 8.70431 18.7874 8.67468 17.7676H10.6107C10.6446 18.2415 10.8308 18.5991 11.1693 18.8403C11.5121 19.0773 11.9437 19.1958 12.4642 19.1958C12.972 19.1958 13.3783 19.0879 13.683 18.8721C13.9919 18.6562 14.1464 18.3748 14.1464 18.0278C14.1464 17.7104 14.0067 17.4671 13.7274 17.2979C13.4481 17.1243 13.0503 16.9762 12.5341 16.8535L11.4994 16.5996C10.7038 16.4092 10.0754 16.1066 9.61414 15.6919C9.1571 15.2729 8.92859 14.7144 8.92859 14.0161C8.92859 13.4448 9.08305 12.9455 9.39197 12.5181C9.70089 12.0864 10.1241 11.7521 10.6615 11.5151C11.2032 11.2739 11.8189 11.1533 12.5087 11.1533C13.2111 11.1533 13.8247 11.2739 14.3495 11.5151C14.8742 11.7563 15.2826 12.0907 15.5746 12.5181C15.8708 12.9455 16.0232 13.4385 16.0316 13.9971H14.1019C14.0681 13.6289 13.9115 13.3411 13.6322 13.1338C13.3529 12.9264 12.9742 12.8228 12.496 12.8228C12.0093 12.8228 11.6348 12.9243 11.3724 13.1274C11.1101 13.3263 10.9789 13.5802 10.9789 13.8892C10.9789 14.2235 11.1249 14.4774 11.4169 14.6509C11.7089 14.8201 12.0601 14.9535 12.4706 15.0508L13.3148 15.2603C13.8649 15.383 14.3537 15.5628 14.7811 15.7998C15.2085 16.0326 15.545 16.333 15.7904 16.7012C16.0358 17.0651 16.1586 17.5094 16.1586 18.0342C16.1586 18.9017 15.8348 19.5915 15.1874 20.1035C14.5399 20.6156 13.6407 20.8716 12.4896 20.8716ZM19.3159 23.4424C19.0662 23.4424 18.8314 23.4233 18.6113 23.3853C18.3955 23.3472 18.2156 23.3006 18.0718 23.2456L18.5224 21.7793L18.5859 21.792C18.916 21.8851 19.1995 21.9062 19.4365 21.8555C19.6777 21.8047 19.8554 21.6185 19.9697 21.2969L20.0903 20.9414L17.5512 13.6416H19.6142L21.0869 18.853H21.1631L22.6421 13.6416H24.7241L21.9502 21.5571C21.7513 22.1326 21.4445 22.5897 21.0298 22.9282C20.6193 23.271 20.048 23.4424 19.3159 23.4424ZM28.3511 16.6377V20.7383H26.3834V13.6416H28.3194V14.9048H28.3892C28.55 14.4901 28.8061 14.1621 29.1573 13.9209C29.5085 13.6755 29.9465 13.5527 30.4713 13.5527C31.2118 13.5527 31.8043 13.7918 32.2486 14.27C32.6972 14.744 32.9215 15.3957 32.9215 16.2251V20.7383H30.9537V16.5742C30.9537 16.1383 30.8415 15.7977 30.6173 15.5522C30.3972 15.3068 30.0904 15.1841 29.6968 15.1841C29.2991 15.1841 28.9753 15.3132 28.7257 15.5713C28.476 15.8252 28.3511 16.1807 28.3511 16.6377ZM38.9162 13.6416V15.127H37.5705V18.5547C37.5705 19.016 37.7948 19.2466 38.2433 19.2466C38.3195 19.2466 38.402 19.2402 38.4909 19.2275C38.584 19.2148 38.6644 19.2 38.7321 19.1831L39.0431 20.6558C38.6242 20.7785 38.2179 20.8398 37.8244 20.8398C37.1219 20.8398 36.576 20.6621 36.1867 20.3066C35.8016 19.9512 35.6091 19.4539 35.6091 18.8149V15.127H34.6442V13.6416H35.6091V11.9531H37.5705V13.6416H38.9162ZM40.8484 20.7383V13.6416H42.7527V14.8857H42.8289C42.9558 14.4456 43.1717 14.1134 43.4763 13.8892C43.781 13.6606 44.1323 13.5464 44.5301 13.5464C44.6274 13.5464 44.7332 13.5527 44.8474 13.5654C44.9617 13.5781 45.0611 13.5951 45.1458 13.6162V15.3555C45.0527 15.3258 44.9236 15.3026 44.7586 15.2856C44.5978 15.2645 44.4497 15.2539 44.3142 15.2539C43.8826 15.2539 43.525 15.3914 43.2415 15.6665C42.958 15.9373 42.8162 16.2907 42.8162 16.7266V20.7383H40.8484ZM46.8177 20.7383V13.6416H48.7855V20.7383H46.8177ZM47.8016 12.7339C47.5096 12.7339 47.2579 12.6366 47.0463 12.4419C46.8389 12.2472 46.7352 12.0124 46.7352 11.7373C46.7352 11.4622 46.8389 11.2295 47.0463 11.0391C47.2579 10.8444 47.5096 10.7471 47.8016 10.7471C48.0936 10.7471 48.3433 10.8444 48.5507 11.0391C48.7622 11.2295 48.868 11.4622 48.868 11.7373C48.868 12.0124 48.7622 12.2472 48.5507 12.4419C48.3433 12.6366 48.0936 12.7339 47.8016 12.7339ZM52.6538 13.6416L53.9487 16.1299L55.2817 13.6416H57.3066L55.25 17.1963L57.3637 20.7383H55.3515L53.9487 18.2881L52.5776 20.7383H50.5464L52.6538 17.1963L50.6225 13.6416H52.6538ZM62.8342 20.7383V11.2803H64.8273V19.0879H68.8835V20.7383H62.8342ZM74.0657 20.8779C73.3378 20.8779 72.7115 20.7298 72.1868 20.4336C71.6621 20.1374 71.2579 19.7163 70.9744 19.1704C70.6909 18.6203 70.5491 17.9707 70.5491 17.2217C70.5491 16.4938 70.6887 15.8548 70.968 15.3047C71.2516 14.7546 71.6494 14.325 72.1614 14.0161C72.6734 13.7072 73.2765 13.5527 73.9705 13.5527C74.5968 13.5527 75.1617 13.686 75.6653 13.9526C76.1731 14.2192 76.5751 14.6191 76.8714 15.1523C77.1718 15.6855 77.322 16.3542 77.322 17.1582V17.6914H72.4851C72.5063 18.2288 72.6629 18.6499 72.9549 18.9546C73.2468 19.2593 73.6277 19.4116 74.0974 19.4116C74.4233 19.4116 74.7026 19.3418 74.9353 19.2021C75.1723 19.0625 75.3416 18.8594 75.4431 18.5928L77.2586 18.7134C77.1189 19.3651 76.7698 19.8898 76.2112 20.2876C75.6568 20.6812 74.9417 20.8779 74.0657 20.8779ZM72.4978 16.479H75.4368C75.3902 16.0304 75.2464 15.675 75.0051 15.4126C74.7639 15.1502 74.4254 15.019 73.9895 15.019C73.5494 15.019 73.2003 15.1566 72.9422 15.4316C72.6883 15.7025 72.5401 16.0516 72.4978 16.479ZM82.4471 23.5439C81.4908 23.5439 80.7396 23.3535 80.1937 22.9727C79.6521 22.596 79.3241 22.1263 79.2098 21.5635L81.0253 21.3223C81.1057 21.5381 81.2601 21.7264 81.4886 21.8872C81.7214 22.048 82.0557 22.1284 82.4916 22.1284C82.919 22.1284 83.2723 22.0247 83.5516 21.8174C83.8309 21.6143 83.9706 21.2694 83.9706 20.7827V19.4814H83.8817C83.7548 19.7777 83.5262 20.0443 83.1962 20.2812C82.8703 20.5182 82.4239 20.6367 81.8568 20.6367C81.3278 20.6367 80.8454 20.514 80.4095 20.2686C79.9737 20.0189 79.6267 19.638 79.3685 19.126C79.1104 18.6139 78.9813 17.9665 78.9813 17.1836C78.9813 16.3753 79.1125 15.7025 79.3749 15.165C79.6415 14.6276 79.9927 14.2256 80.4286 13.959C80.8645 13.6882 81.3427 13.5527 81.8632 13.5527C82.2567 13.5527 82.5889 13.6204 82.8597 13.7559C83.1306 13.887 83.3485 14.0521 83.5135 14.251C83.6828 14.4499 83.8119 14.6466 83.9008 14.8413H83.9769V13.6416H85.9066V20.8145C85.9066 21.4154 85.7585 21.9189 85.4623 22.3252C85.1661 22.7314 84.7577 23.0361 84.2372 23.2393C83.7209 23.4424 83.1242 23.5439 82.4471 23.5439ZM80.9935 17.1709C80.9935 17.7803 81.1205 18.2648 81.3744 18.6245C81.6325 18.98 82.0028 19.1577 82.4852 19.1577C82.9592 19.1577 83.3252 18.9821 83.5834 18.6309C83.8457 18.2796 83.9769 17.793 83.9769 17.1709C83.9769 16.5488 83.8479 16.0516 83.5897 15.6792C83.3316 15.3026 82.9634 15.1143 82.4852 15.1143C81.9986 15.1143 81.6283 15.3068 81.3744 15.6919C81.1205 16.0728 80.9935 16.5658 80.9935 17.1709ZM88.1308 20.7383V13.6416H90.0986V20.7383H88.1308ZM89.1147 12.7339C88.8227 12.7339 88.5709 12.6366 88.3594 12.4419C88.152 12.2472 88.0483 12.0124 88.0483 11.7373C88.0483 11.4622 88.152 11.2295 88.3594 11.0391C88.5709 10.8444 88.8227 10.7471 89.1147 10.7471C89.4067 10.7471 89.6564 10.8444 89.8637 11.0391C90.0753 11.2295 90.1811 11.4622 90.1811 11.7373C90.1811 12.0124 90.0753 12.2472 89.8637 12.4419C89.6564 12.6366 89.4067 12.7339 89.1147 12.7339ZM96.0933 13.6416V15.127H94.7476V18.5547C94.7476 19.016 94.9719 19.2466 95.4205 19.2466C95.4967 19.2466 95.5792 19.2402 95.668 19.2275C95.7611 19.2148 95.8415 19.2 95.9093 19.1831L96.2203 20.6558C95.8013 20.7785 95.3951 20.8398 95.0015 20.8398C94.2991 20.8398 93.7532 20.6621 93.3638 20.3066C92.9788 19.9512 92.7862 19.4539 92.7862 18.8149V15.127H91.8214V13.6416H92.7862V11.9531H94.7476V13.6416H96.0933Z" fill="white"/>
<path d="M10.1088 31.3912L11.8617 36.9186H11.9349L13.6927 31.3912H15.3969L12.8871 38.6666H10.9095L8.3949 31.3912H10.1088ZM19.222 38.774C18.6622 38.774 18.1804 38.6601 17.7767 38.4323C17.3731 38.2044 17.0622 37.8805 16.8441 37.4606C16.626 37.0374 16.517 36.5377 16.517 35.9615C16.517 35.4017 16.6244 34.9101 16.8392 34.4869C17.0573 34.0638 17.3633 33.7334 17.7572 33.4957C18.1511 33.2581 18.6149 33.1393 19.1488 33.1393C19.6306 33.1393 20.0651 33.2418 20.4525 33.4469C20.8431 33.652 21.1524 33.9596 21.3802 34.3698C21.6114 34.7799 21.7269 35.2942 21.7269 35.9127V36.3229H18.0062C18.0225 36.7363 18.1429 37.0602 18.3676 37.2946C18.5922 37.5289 18.8851 37.6461 19.2465 37.6461C19.4971 37.6461 19.712 37.5924 19.891 37.485C20.0733 37.3776 20.2035 37.2213 20.2816 37.0162L21.6781 37.109C21.5707 37.6103 21.3021 38.014 20.8724 38.3199C20.446 38.6227 19.8959 38.774 19.222 38.774ZM18.016 35.3903H20.2767C20.2409 35.0452 20.1302 34.7718 19.9447 34.5699C19.7592 34.3681 19.4987 34.2672 19.1635 34.2672C18.8249 34.2672 18.5564 34.373 18.3578 34.5846C18.1625 34.7929 18.0485 35.0615 18.016 35.3903ZM23.223 38.6666V33.2076H24.6879V34.1647H24.7465C24.8441 33.8261 25.0101 33.5706 25.2445 33.3981C25.4789 33.2223 25.7491 33.1344 26.0551 33.1344C26.1299 33.1344 26.2113 33.1393 26.2992 33.149C26.3871 33.1588 26.4636 33.1718 26.5287 33.1881V34.526C26.4571 34.5032 26.3578 34.4853 26.2308 34.4723C26.1071 34.456 25.9932 34.4479 25.889 34.4479C25.557 34.4479 25.2819 34.5537 25.0638 34.7653C24.8457 34.9736 24.7367 35.2454 24.7367 35.5807V38.6666H23.223ZM32.3461 34.7653L30.9691 34.8483C30.9301 34.6757 30.8324 34.5276 30.6761 34.4039C30.5232 34.277 30.3148 34.2135 30.0511 34.2135C29.8168 34.2135 29.6198 34.2623 29.4603 34.36C29.3008 34.4576 29.2211 34.5878 29.2211 34.7506C29.2211 34.8808 29.2732 34.9915 29.3773 35.0826C29.4815 35.1738 29.6589 35.247 29.9095 35.3024L30.9008 35.4977C31.9489 35.706 32.473 36.1976 32.473 36.9723C32.473 37.3336 32.3689 37.6494 32.1605 37.9196C31.9522 38.1897 31.6657 38.3997 31.3011 38.5494C30.9366 38.6992 30.5183 38.774 30.0463 38.774C29.3236 38.774 28.7491 38.6243 28.3226 38.3248C27.8962 38.0221 27.6455 37.6103 27.5707 37.0895L29.0551 37.0114C29.156 37.4606 29.488 37.6852 30.0511 37.6852C30.3148 37.6852 30.528 37.6331 30.6908 37.5289C30.8536 37.4248 30.9349 37.2929 30.9349 37.1334C30.9349 36.8632 30.7022 36.6809 30.2367 36.5865L29.2943 36.3912C28.2429 36.1796 27.7172 35.6621 27.7172 34.8385C27.7172 34.3112 27.9271 33.8961 28.347 33.5934C28.7702 33.2906 29.3301 33.1393 30.0267 33.1393C30.7168 33.1393 31.2605 33.2858 31.6576 33.5787C32.0547 33.8684 32.2842 34.264 32.3461 34.7653ZM35.4877 38.7692C34.9668 38.7692 34.5339 38.6341 34.1888 38.3639C33.847 38.0905 33.6761 37.6836 33.6761 37.1432C33.6761 36.7363 33.7705 36.4173 33.9594 36.1862C34.1514 35.9518 34.4037 35.7809 34.7162 35.6735C35.0287 35.5628 35.364 35.4912 35.722 35.4586C36.1973 35.413 36.5358 35.3658 36.7377 35.317C36.9427 35.2649 37.0453 35.151 37.0453 34.9752V34.9508C37.0453 34.7262 36.9737 34.552 36.8304 34.4283C36.6872 34.3046 36.4805 34.2428 36.2103 34.2428C35.9401 34.2428 35.7188 34.3014 35.5463 34.4186C35.377 34.5358 35.2647 34.6855 35.2094 34.8678L33.8324 34.6481C33.9626 34.1728 34.236 33.8033 34.6527 33.5397C35.0726 33.2727 35.5935 33.1393 36.2152 33.1393C36.6189 33.1393 36.9981 33.2028 37.3529 33.3297C37.711 33.4567 38.0007 33.6569 38.222 33.9303C38.4434 34.2005 38.5541 34.552 38.5541 34.985V38.6666H37.1234V37.9049H37.0795C36.946 38.1621 36.7474 38.3704 36.4838 38.5299C36.2233 38.6894 35.8913 38.7692 35.4877 38.7692ZM35.1166 37.0944C35.1166 37.3027 35.1914 37.4606 35.3412 37.568C35.4942 37.6722 35.6862 37.7242 35.9174 37.7242C36.2494 37.7242 36.5212 37.6282 36.7328 37.4362C36.9476 37.2441 37.0551 37.0048 37.0551 36.7184V36.1373C36.9965 36.1764 36.9037 36.2122 36.7767 36.2448C36.653 36.2773 36.5212 36.305 36.3812 36.3278C36.2413 36.3473 36.1159 36.3652 36.0052 36.3815C35.7383 36.4205 35.5235 36.497 35.3607 36.611C35.198 36.7216 35.1166 36.8828 35.1166 37.0944ZM36.9818 32.5192C36.7702 32.5192 36.5896 32.4768 36.4398 32.3922C36.2901 32.3043 36.1582 32.2181 36.0443 32.1334C35.9304 32.0488 35.8213 32.0065 35.7172 32.0065C35.6163 32.0065 35.5381 32.052 35.4828 32.1432C35.4307 32.2311 35.4014 32.3466 35.3949 32.4899H34.5746C34.5844 32.0667 34.682 31.7428 34.8676 31.5182C35.0564 31.2903 35.3038 31.1764 35.6097 31.1764C35.8246 31.1764 36.0036 31.2187 36.1469 31.3033C36.2933 31.388 36.4219 31.4726 36.5326 31.5573C36.6465 31.6419 36.7588 31.6842 36.8695 31.6842C36.9834 31.6842 37.0648 31.6435 37.1136 31.5621C37.1657 31.4808 37.1967 31.3603 37.2064 31.2008H38.0121C38.0056 31.624 37.9047 31.9495 37.7094 32.1774C37.5173 32.4052 37.2748 32.5192 36.9818 32.5192ZM42.7308 38.774C42.1807 38.774 41.7038 38.6569 41.3002 38.4225C40.8998 38.1849 40.5905 37.8561 40.3724 37.4362C40.1576 37.013 40.0502 36.5214 40.0502 35.9615C40.0502 35.3984 40.1576 34.9052 40.3724 34.4821C40.5905 34.0589 40.8998 33.7301 41.3002 33.4957C41.7038 33.2581 42.1807 33.1393 42.7308 33.1393C43.2842 33.1393 43.7611 33.2581 44.1615 33.4957C44.5651 33.7301 44.8744 34.0589 45.0892 34.4821C45.3073 34.9052 45.4164 35.3984 45.4164 35.9615C45.4164 36.5214 45.3073 37.013 45.0892 37.4362C44.8744 37.8561 44.5651 38.1849 44.1615 38.4225C43.7611 38.6569 43.2842 38.774 42.7308 38.774ZM41.5883 35.9518C41.5883 36.427 41.6843 36.8193 41.8763 37.1285C42.0684 37.4378 42.3549 37.5924 42.7357 37.5924C43.1133 37.5924 43.3982 37.4378 43.5902 37.1285C43.7823 36.8193 43.8783 36.427 43.8783 35.9518C43.8783 35.4765 43.7823 35.0859 43.5902 34.7799C43.3982 34.4739 43.1133 34.3209 42.7357 34.3209C42.3549 34.3209 42.0684 34.4739 41.8763 34.7799C41.6843 35.0859 41.5883 35.4765 41.5883 35.9518ZM51.2504 31.3912V38.6666H49.7367V31.3912H51.2504ZM55.4467 38.774C54.8868 38.774 54.405 38.6601 54.0013 38.4323C53.5977 38.2044 53.2868 37.8805 53.0687 37.4606C52.8506 37.0374 52.7416 36.5377 52.7416 35.9615C52.7416 35.4017 52.849 34.9101 53.0638 34.4869C53.2819 34.0638 53.5879 33.7334 53.9818 33.4957C54.3757 33.2581 54.8396 33.1393 55.3734 33.1393C55.8552 33.1393 56.2898 33.2418 56.6771 33.4469C57.0677 33.652 57.377 33.9596 57.6049 34.3698C57.836 34.7799 57.9515 35.2942 57.9515 35.9127V36.3229H54.2308C54.2471 36.7363 54.3676 37.0602 54.5922 37.2946C54.8168 37.5289 55.1097 37.6461 55.4711 37.6461C55.7217 37.6461 55.9366 37.5924 56.1156 37.485C56.2979 37.3776 56.4281 37.2213 56.5062 37.0162L57.9027 37.109C57.7953 37.6103 57.5267 38.014 57.097 38.3199C56.6706 38.6227 56.1205 38.774 55.4467 38.774ZM54.2406 35.3903H56.5013C56.4655 35.0452 56.3549 34.7718 56.1693 34.5699C55.9838 34.3681 55.7233 34.2672 55.3881 34.2672C55.0495 34.2672 54.781 34.373 54.5824 34.5846C54.3871 34.7929 54.2732 35.0615 54.2406 35.3903ZM61.8939 40.8248C61.1582 40.8248 60.5804 40.6783 60.1605 40.3854C59.7439 40.0957 59.4916 39.7343 59.4037 39.3014L60.8002 39.1158C60.862 39.2819 60.9808 39.4267 61.1566 39.5504C61.3357 39.6741 61.5928 39.736 61.9281 39.736C62.2569 39.736 62.5287 39.6562 62.7435 39.4967C62.9584 39.3405 63.0658 39.0752 63.0658 38.7008V37.6998H62.9974C62.8998 37.9277 62.724 38.1328 62.4701 38.3151C62.2194 38.4974 61.876 38.5885 61.4398 38.5885C61.0329 38.5885 60.6618 38.4941 60.3265 38.3053C59.9913 38.1132 59.7243 37.8203 59.5258 37.4264C59.3272 37.0325 59.2279 36.5345 59.2279 35.9323C59.2279 35.3105 59.3288 34.7929 59.5306 34.3795C59.7357 33.9661 60.0059 33.6569 60.3412 33.4518C60.6765 33.2434 61.0443 33.1393 61.4447 33.1393C61.7474 33.1393 62.003 33.1914 62.2113 33.2955C62.4196 33.3964 62.5873 33.5234 62.7142 33.6764C62.8444 33.8294 62.9437 33.9808 63.0121 34.1305H63.0707V33.2076H64.5551V38.7252C64.5551 39.1875 64.4411 39.5748 64.2133 39.8873C63.9854 40.1998 63.6713 40.4342 63.2709 40.5905C62.8737 40.7467 62.4148 40.8248 61.8939 40.8248ZM60.7758 35.9225C60.7758 36.3912 60.8734 36.764 61.0687 37.0406C61.2673 37.3141 61.5521 37.4508 61.9232 37.4508C62.2878 37.4508 62.5694 37.3157 62.7679 37.0455C62.9698 36.7753 63.0707 36.401 63.0707 35.9225C63.0707 35.444 62.9714 35.0615 62.7728 34.775C62.5743 34.4853 62.2911 34.3405 61.9232 34.3405C61.5489 34.3405 61.264 34.4886 61.0687 34.7848C60.8734 35.0778 60.7758 35.457 60.7758 35.9225ZM66.266 38.6666V33.2076H67.7797V38.6666H66.266ZM67.0228 32.5094C66.7982 32.5094 66.6045 32.4345 66.4418 32.2848C66.2823 32.1351 66.2025 31.9544 66.2025 31.7428C66.2025 31.5312 66.2823 31.3522 66.4418 31.2057C66.6045 31.0559 66.7982 30.9811 67.0228 30.9811C67.2474 30.9811 67.4395 31.0559 67.599 31.2057C67.7618 31.3522 67.8431 31.5312 67.8431 31.7428C67.8431 31.9544 67.7618 32.1351 67.599 32.2848C67.4395 32.4345 67.2474 32.5094 67.0228 32.5094ZM72.391 33.2076V34.3502H71.3558V36.9869C71.3558 37.3418 71.5284 37.5192 71.8734 37.5192C71.932 37.5192 71.9955 37.5143 72.0638 37.5045C72.1355 37.4948 72.1973 37.4834 72.2494 37.4703L72.4886 38.6031C72.1664 38.6976 71.8539 38.7448 71.5511 38.7448C71.0108 38.7448 70.5909 38.608 70.2914 38.3346C69.9952 38.0612 69.847 37.6787 69.847 37.1871V34.3502H69.1049V33.2076H69.847V31.9088H71.3558V33.2076H72.391ZM73.848 40.6051L74.2777 37.5582H75.7767L74.8685 40.6051H73.848ZM83.1976 38.774C82.6377 38.774 82.1576 38.6552 81.7572 38.4176C81.3568 38.18 81.0492 37.8496 80.8344 37.4264C80.6228 37.0032 80.517 36.5149 80.517 35.9615C80.517 35.4017 80.6244 34.9101 80.8392 34.4869C81.0573 34.0638 81.3666 33.7334 81.767 33.4957C82.1674 33.2581 82.6426 33.1393 83.1927 33.1393C83.668 33.1393 84.0847 33.2255 84.4427 33.3981C84.8008 33.5706 85.084 33.8131 85.2924 34.1256C85.5007 34.4381 85.6146 34.8059 85.6342 35.2291H84.2084C84.1661 34.9589 84.0603 34.7408 83.891 34.5748C83.7217 34.4056 83.4971 34.3209 83.2172 34.3209C82.8656 34.3209 82.584 34.4625 82.3724 34.7457C82.1608 35.0257 82.0551 35.4244 82.0551 35.942C82.0551 36.4628 82.1592 36.8681 82.3676 37.1578C82.5791 37.4476 82.8623 37.5924 83.2172 37.5924C83.4776 37.5924 83.6973 37.511 83.8763 37.3483C84.0554 37.1855 84.1661 36.9576 84.2084 36.6647H85.6342C85.6114 37.0813 85.4991 37.4492 85.2972 37.7682C85.0954 38.0839 84.8155 38.3313 84.4574 38.5104C84.1026 38.6862 83.6827 38.774 83.1976 38.774ZM89.5765 38.774C89.0264 38.774 88.5495 38.6569 88.1459 38.4225C87.7455 38.1849 87.4362 37.8561 87.2181 37.4362C87.0033 37.013 86.8959 36.5214 86.8959 35.9615C86.8959 35.3984 87.0033 34.9052 87.2181 34.4821C87.4362 34.0589 87.7455 33.7301 88.1459 33.4957C88.5495 33.2581 89.0264 33.1393 89.5765 33.1393C90.1299 33.1393 90.6068 33.2581 91.0072 33.4957C91.4108 33.7301 91.7201 34.0589 91.9349 34.4821C92.153 34.9052 92.2621 35.3984 92.2621 35.9615C92.2621 36.5214 92.153 37.013 91.9349 37.4362C91.7201 37.8561 91.4108 38.1849 91.0072 38.4225C90.6068 38.6569 90.1299 38.774 89.5765 38.774ZM88.434 35.9518C88.434 36.427 88.53 36.8193 88.722 37.1285C88.9141 37.4378 89.2006 37.5924 89.5814 37.5924C89.959 37.5924 90.2439 37.4378 90.4359 37.1285C90.628 36.8193 90.724 36.427 90.724 35.9518C90.724 35.4765 90.628 35.0859 90.4359 34.7799C90.2439 34.4739 89.959 34.3209 89.5814 34.3209C89.2006 34.3209 88.9141 34.4739 88.722 34.7799C88.53 35.0859 88.434 35.4765 88.434 35.9518ZM95.2719 35.5123V38.6666H93.7582V33.2076H95.2474V34.1793H95.3011C95.4248 33.8603 95.6218 33.608 95.892 33.4225C96.1622 33.2337 96.4991 33.1393 96.9027 33.1393C97.4724 33.1393 97.9281 33.3232 98.2699 33.691C98.6149 34.0556 98.7875 34.5569 98.7875 35.1949V38.6666H97.2738V35.4635C97.2738 35.1282 97.1875 34.8662 97.015 34.6774C96.8457 34.4886 96.6097 34.3942 96.307 34.3942C96.001 34.3942 95.752 34.4934 95.5599 34.692C95.3679 34.8873 95.2719 35.1608 95.2719 35.5123ZM103.399 33.2076V34.3502H102.364V36.9869C102.364 37.3418 102.536 37.5192 102.881 37.5192C102.94 37.5192 103.003 37.5143 103.072 37.5045C103.143 37.4948 103.205 37.4834 103.257 37.4703L103.496 38.6031C103.174 38.6976 102.862 38.7448 102.559 38.7448C102.019 38.7448 101.599 38.608 101.299 38.3346C101.003 38.0612 100.855 37.6787 100.855 37.1871V34.3502H100.113V33.2076H100.855V31.9088H102.364V33.2076H103.399ZM107.37 38.774C106.811 38.774 106.329 38.6601 105.925 38.4323C105.522 38.2044 105.211 37.8805 104.993 37.4606C104.774 37.0374 104.665 36.5377 104.665 35.9615C104.665 35.4017 104.773 34.9101 104.988 34.4869C105.206 34.0638 105.512 33.7334 105.906 33.4957C106.3 33.2581 106.763 33.1393 107.297 33.1393C107.779 33.1393 108.214 33.2418 108.601 33.4469C108.992 33.652 109.301 33.9596 109.529 34.3698C109.76 34.7799 109.875 35.2942 109.875 35.9127V36.3229H106.155C106.171 36.7363 106.291 37.0602 106.516 37.2946C106.741 37.5289 107.034 37.6461 107.395 37.6461C107.646 37.6461 107.86 37.5924 108.039 37.485C108.222 37.3776 108.352 37.2213 108.43 37.0162L109.827 37.109C109.719 37.6103 109.451 38.014 109.021 38.3199C108.594 38.6227 108.044 38.774 107.37 38.774ZM106.164 35.3903H108.425C108.389 35.0452 108.279 34.7718 108.093 34.5699C107.908 34.3681 107.647 34.2672 107.312 34.2672C106.973 34.2672 106.705 34.373 106.506 34.5846C106.311 34.7929 106.197 35.0615 106.164 35.3903ZM106.716 32.5289L107.395 31.0397H108.782L107.766 32.5289H106.716ZM111.342 38.6666V33.2076H112.778V34.1793H112.846C112.96 33.8571 113.15 33.6031 113.417 33.4176C113.684 33.2321 114.002 33.1393 114.37 33.1393C114.744 33.1393 115.061 33.2337 115.322 33.4225C115.585 33.608 115.759 33.8603 115.844 34.1793H115.903C116.017 33.8636 116.218 33.6113 116.508 33.4225C116.801 33.2337 117.148 33.1393 117.548 33.1393C118.056 33.1393 118.469 33.3004 118.788 33.6227C119.111 33.9449 119.272 34.4023 119.272 34.9948V38.6666H117.758V35.2975C117.758 34.9915 117.677 34.7636 117.514 34.6139C117.355 34.4642 117.154 34.3893 116.913 34.3893C116.64 34.3893 116.425 34.4772 116.269 34.653C116.116 34.8255 116.039 35.0533 116.039 35.3365V38.6666H114.57V35.2584C114.57 34.9948 114.493 34.7848 114.34 34.6285C114.19 34.469 113.992 34.3893 113.745 34.3893C113.491 34.3893 113.279 34.4821 113.11 34.6676C112.94 34.8499 112.856 35.0924 112.856 35.3951V38.6666H111.342ZM124.163 38.6666V34.3502H123.397V33.2076H124.163V32.8121C124.163 32.2229 124.333 31.7819 124.671 31.4889C125.013 31.1959 125.439 31.0494 125.951 31.0494C126.185 31.0494 126.398 31.069 126.59 31.108C126.786 31.1438 126.929 31.1748 127.02 31.2008L126.751 32.3336C126.693 32.3173 126.621 32.3011 126.536 32.2848C126.452 32.2685 126.362 32.2604 126.268 32.2604C126.047 32.2604 125.89 32.3125 125.799 32.4166C125.711 32.5175 125.667 32.6608 125.667 32.8463V33.2076H126.756V34.3502H125.667V38.6666H124.163ZM131.68 36.3473V33.2076H133.194V38.6666H131.739V37.6754H131.68C131.56 37.9944 131.356 38.2516 131.07 38.4469C130.786 38.6422 130.44 38.7382 130.03 38.735C129.48 38.7382 129.034 38.5576 128.692 38.193C128.353 37.8252 128.184 37.3222 128.184 36.6842V33.2076H129.698V36.4205C129.698 36.7395 129.784 36.9934 129.956 37.1823C130.129 37.3678 130.358 37.4589 130.645 37.4557C130.915 37.4589 131.154 37.3662 131.363 37.1774C131.574 36.9886 131.68 36.7119 131.68 36.3473ZM136.418 35.5123V38.6666H134.905V33.2076H136.394V34.1793H136.448C136.571 33.8603 136.768 33.608 137.038 33.4225C137.309 33.2337 137.646 33.1393 138.049 33.1393C138.619 33.1393 139.075 33.3232 139.416 33.691C139.761 34.0556 139.934 34.5569 139.934 35.1949V38.6666H138.42V35.4635C138.42 35.1282 138.334 34.8662 138.161 34.6774C137.992 34.4886 137.756 34.3942 137.453 34.3942C137.148 34.3942 136.898 34.4934 136.706 34.692C136.514 34.8873 136.418 35.1608 136.418 35.5123ZM144.106 38.774C143.546 38.774 143.066 38.6552 142.665 38.4176C142.265 38.18 141.957 37.8496 141.743 37.4264C141.531 37.0032 141.425 36.5149 141.425 35.9615C141.425 35.4017 141.533 34.9101 141.747 34.4869C141.966 34.0638 142.275 33.7334 142.675 33.4957C143.076 33.2581 143.551 33.1393 144.101 33.1393C144.576 33.1393 144.993 33.2255 145.351 33.3981C145.709 33.5706 145.992 33.8131 146.201 34.1256C146.409 34.4381 146.523 34.8059 146.542 35.2291H145.117C145.074 34.9589 144.968 34.7408 144.799 34.5748C144.63 34.4056 144.405 34.3209 144.125 34.3209C143.774 34.3209 143.492 34.4625 143.281 34.7457C143.069 35.0257 142.963 35.4244 142.963 35.942C142.963 36.4628 143.067 36.8681 143.276 37.1578C143.487 37.4476 143.771 37.5924 144.125 37.5924C144.386 37.5924 144.606 37.511 144.785 37.3483C144.964 37.1855 145.074 36.9576 145.117 36.6647H146.542C146.52 37.0813 146.407 37.4492 146.205 37.7682C146.004 38.0839 145.724 38.3313 145.366 38.5104C145.011 38.6862 144.591 38.774 144.106 38.774ZM143.749 38.6373H144.448L144.389 38.9498C144.633 38.9856 144.833 39.0752 144.99 39.2184C145.146 39.3649 145.226 39.5634 145.229 39.8141C145.229 40.1656 145.064 40.4456 144.736 40.6539C144.407 40.8623 143.943 40.9664 143.344 40.9664L143.334 40.2926C143.634 40.2926 143.868 40.2552 144.037 40.1803C144.21 40.1087 144.298 39.998 144.301 39.8483C144.311 39.5813 144.075 39.4186 143.593 39.36L143.749 38.6373ZM150.485 38.774C149.935 38.774 149.458 38.6569 149.054 38.4225C148.654 38.1849 148.344 37.8561 148.126 37.4362C147.911 37.013 147.804 36.5214 147.804 35.9615C147.804 35.3984 147.911 34.9052 148.126 34.4821C148.344 34.0589 148.654 33.7301 149.054 33.4957C149.458 33.2581 149.935 33.1393 150.485 33.1393C151.038 33.1393 151.515 33.2581 151.915 33.4957C152.319 33.7301 152.628 34.0589 152.843 34.4821C153.061 34.9052 153.17 35.3984 153.17 35.9615C153.17 36.5214 153.061 37.013 152.843 37.4362C152.628 37.8561 152.319 38.1849 151.915 38.4225C151.515 38.6569 151.038 38.774 150.485 38.774ZM149.342 35.9518C149.342 36.427 149.438 36.8193 149.63 37.1285C149.822 37.4378 150.109 37.5924 150.49 37.5924C150.867 37.5924 151.152 37.4378 151.344 37.1285C151.536 36.8193 151.632 36.427 151.632 35.9518C151.632 35.4765 151.536 35.0859 151.344 34.7799C151.152 34.4739 150.867 34.3209 150.49 34.3209C150.109 34.3209 149.822 34.4739 149.63 34.7799C149.438 35.0859 149.342 35.4765 149.342 35.9518ZM151.173 32.5192C150.962 32.5192 150.781 32.4768 150.631 32.3922C150.481 32.3043 150.35 32.2181 150.236 32.1334C150.122 32.0488 150.013 32.0065 149.909 32.0065C149.808 32.0065 149.73 32.052 149.674 32.1432C149.622 32.2311 149.593 32.3466 149.586 32.4899H148.766C148.776 32.0667 148.873 31.7428 149.059 31.5182C149.248 31.2903 149.495 31.1764 149.801 31.1764C150.016 31.1764 150.195 31.2187 150.338 31.3033C150.485 31.388 150.613 31.4726 150.724 31.5573C150.838 31.6419 150.95 31.6842 151.061 31.6842C151.175 31.6842 151.256 31.6435 151.305 31.5621C151.357 31.4808 151.388 31.3603 151.398 31.2008H152.203C152.197 31.624 152.096 31.9495 151.901 32.1774C151.709 32.4052 151.466 32.5192 151.173 32.5192ZM157.152 38.774C156.592 38.774 156.11 38.6601 155.706 38.4323C155.303 38.2044 154.992 37.8805 154.774 37.4606C154.556 37.0374 154.447 36.5377 154.447 35.9615C154.447 35.4017 154.554 34.9101 154.769 34.4869C154.987 34.0638 155.293 33.7334 155.687 33.4957C156.081 33.2581 156.545 33.1393 157.078 33.1393C157.56 33.1393 157.995 33.2418 158.382 33.4469C158.773 33.652 159.082 33.9596 159.31 34.3698C159.541 34.7799 159.657 35.2942 159.657 35.9127V36.3229H155.936C155.952 36.7363 156.073 37.0602 156.297 37.2946C156.522 37.5289 156.815 37.6461 157.176 37.6461C157.427 37.6461 157.642 37.5924 157.821 37.485C158.003 37.3776 158.133 37.2213 158.211 37.0162L159.608 37.109C159.5 37.6103 159.232 38.014 158.802 38.3199C158.376 38.6227 157.826 38.774 157.152 38.774ZM155.946 35.3903H158.206C158.171 35.0452 158.06 34.7718 157.874 34.5699C157.689 34.3681 157.428 34.2672 157.093 34.2672C156.755 34.2672 156.486 34.373 156.287 34.5846C156.092 34.7929 155.978 35.0615 155.946 35.3903ZM165.684 34.7653L164.307 34.8483C164.268 34.6757 164.17 34.5276 164.014 34.4039C163.861 34.277 163.653 34.2135 163.389 34.2135C163.155 34.2135 162.958 34.2623 162.798 34.36C162.639 34.4576 162.559 34.5878 162.559 34.7506C162.559 34.8808 162.611 34.9915 162.715 35.0826C162.819 35.1738 162.997 35.247 163.247 35.3024L164.239 35.4977C165.287 35.706 165.811 36.1976 165.811 36.9723C165.811 37.3336 165.707 37.6494 165.498 37.9196C165.29 38.1897 165.004 38.3997 164.639 38.5494C164.274 38.6992 163.856 38.774 163.384 38.774C162.661 38.774 162.087 38.6243 161.661 38.3248C161.234 38.0221 160.983 37.6103 160.909 37.0895L162.393 37.0114C162.494 37.4606 162.826 37.6852 163.389 37.6852C163.653 37.6852 163.866 37.6331 164.029 37.5289C164.191 37.4248 164.273 37.2929 164.273 37.1334C164.273 36.8632 164.04 36.6809 163.575 36.5865L162.632 36.3912C161.581 36.1796 161.055 35.6621 161.055 34.8385C161.055 34.3112 161.265 33.8961 161.685 33.5934C162.108 33.2906 162.668 33.1393 163.365 33.1393C164.055 33.1393 164.598 33.2858 164.995 33.5787C165.393 33.8684 165.622 34.264 165.684 34.7653ZM172.578 38.774C172.018 38.774 171.536 38.6601 171.132 38.4323C170.729 38.2044 170.418 37.8805 170.2 37.4606C169.981 37.0374 169.872 36.5377 169.872 35.9615C169.872 35.4017 169.98 34.9101 170.195 34.4869C170.413 34.0638 170.719 33.7334 171.113 33.4957C171.507 33.2581 171.97 33.1393 172.504 33.1393C172.986 33.1393 173.421 33.2418 173.808 33.4469C174.199 33.652 174.508 33.9596 174.736 34.3698C174.967 34.7799 175.082 35.2942 175.082 35.9127V36.3229H171.362C171.378 36.7363 171.498 37.0602 171.723 37.2946C171.948 37.5289 172.241 37.6461 172.602 37.6461C172.853 37.6461 173.067 37.5924 173.246 37.485C173.429 37.3776 173.559 37.2213 173.637 37.0162L175.034 37.109C174.926 37.6103 174.658 38.014 174.228 38.3199C173.801 38.6227 173.251 38.774 172.578 38.774ZM171.371 35.3903H173.632C173.596 35.0452 173.486 34.7718 173.3 34.5699C173.115 34.3681 172.854 34.2672 172.519 34.2672C172.18 34.2672 171.912 34.373 171.713 34.5846C171.518 34.7929 171.404 35.0615 171.371 35.3903ZM181.11 34.7653L179.733 34.8483C179.694 34.6757 179.596 34.5276 179.44 34.4039C179.287 34.277 179.078 34.2135 178.815 34.2135C178.58 34.2135 178.384 34.2623 178.224 34.36C178.064 34.4576 177.985 34.5878 177.985 34.7506C177.985 34.8808 178.037 34.9915 178.141 35.0826C178.245 35.1738 178.423 35.247 178.673 35.3024L179.664 35.4977C180.713 35.706 181.237 36.1976 181.237 36.9723C181.237 37.3336 181.133 37.6494 180.924 37.9196C180.716 38.1897 180.429 38.3997 180.065 38.5494C179.7 38.6992 179.282 38.774 178.81 38.774C178.087 38.774 177.513 38.6243 177.086 38.3248C176.66 38.0221 176.409 37.6103 176.334 37.0895L177.819 37.0114C177.92 37.4606 178.252 37.6852 178.815 37.6852C179.078 37.6852 179.292 37.6331 179.454 37.5289C179.617 37.4248 179.699 37.2929 179.699 37.1334C179.699 36.8632 179.466 36.6809 179 36.5865L178.058 36.3912C177.007 36.1796 176.481 35.6621 176.481 34.8385C176.481 34.3112 176.691 33.8961 177.111 33.5934C177.534 33.2906 178.094 33.1393 178.79 33.1393C179.481 33.1393 180.024 33.2858 180.421 33.5787C180.818 33.8684 181.048 34.264 181.11 34.7653ZM187.225 34.7653L185.848 34.8483C185.809 34.6757 185.711 34.5276 185.555 34.4039C185.402 34.277 185.194 34.2135 184.93 34.2135C184.696 34.2135 184.499 34.2623 184.339 34.36C184.18 34.4576 184.1 34.5878 184.1 34.7506C184.1 34.8808 184.152 34.9915 184.256 35.0826C184.36 35.1738 184.538 35.247 184.788 35.3024L185.78 35.4977C186.828 35.706 187.352 36.1976 187.352 36.9723C187.352 37.3336 187.248 37.6494 187.039 37.9196C186.831 38.1897 186.545 38.3997 186.18 38.5494C185.815 38.6992 185.397 38.774 184.925 38.774C184.203 38.774 183.628 38.6243 183.202 38.3248C182.775 38.0221 182.524 37.6103 182.45 37.0895L183.934 37.0114C184.035 37.4606 184.367 37.6852 184.93 37.6852C185.194 37.6852 185.407 37.6331 185.57 37.5289C185.732 37.4248 185.814 37.2929 185.814 37.1334C185.814 36.8632 185.581 36.6809 185.116 36.5865L184.173 36.3912C183.122 36.1796 182.596 35.6621 182.596 34.8385C182.596 34.3112 182.806 33.8961 183.226 33.5934C183.649 33.2906 184.209 33.1393 184.906 33.1393C185.596 33.1393 186.139 33.2858 186.536 33.5787C186.934 33.8684 187.163 34.264 187.225 34.7653ZM191.294 38.774C190.734 38.774 190.253 38.6601 189.849 38.4323C189.445 38.2044 189.134 37.8805 188.916 37.4606C188.698 37.0374 188.589 36.5377 188.589 35.9615C188.589 35.4017 188.697 34.9101 188.911 34.4869C189.13 34.0638 189.436 33.7334 189.829 33.4957C190.223 33.2581 190.687 33.1393 191.221 33.1393C191.703 33.1393 192.137 33.2418 192.525 33.4469C192.915 33.652 193.225 33.9596 193.453 34.3698C193.684 34.7799 193.799 35.2942 193.799 35.9127V36.3229H190.078C190.095 36.7363 190.215 37.0602 190.44 37.2946C190.664 37.5289 190.957 37.6461 191.319 37.6461C191.569 37.6461 191.784 37.5924 191.963 37.485C192.146 37.3776 192.276 37.2213 192.354 37.0162L193.75 37.109C193.643 37.6103 193.374 38.014 192.945 38.3199C192.518 38.6227 191.968 38.774 191.294 38.774ZM190.088 35.3903H192.349C192.313 35.0452 192.203 34.7718 192.017 34.5699C191.831 34.3681 191.571 34.2672 191.236 34.2672C190.897 34.2672 190.629 34.373 190.43 34.5846C190.235 34.7929 190.121 35.0615 190.088 35.3903ZM196.809 35.5123V38.6666H195.295V33.2076H196.785V34.1793H196.838C196.962 33.8603 197.159 33.608 197.429 33.4225C197.699 33.2337 198.036 33.1393 198.44 33.1393C199.009 33.1393 199.465 33.3232 199.807 33.691C200.152 34.0556 200.325 34.5569 200.325 35.1949V38.6666H198.811V35.4635C198.811 35.1282 198.725 34.8662 198.552 34.6774C198.383 34.4886 198.147 34.3942 197.844 34.3942C197.538 34.3942 197.289 34.4934 197.097 34.692C196.905 34.8873 196.809 35.1608 196.809 35.5123ZM204.496 38.774C203.937 38.774 203.456 38.6552 203.056 38.4176C202.656 38.18 202.348 37.8496 202.133 37.4264C201.922 37.0032 201.816 36.5149 201.816 35.9615C201.816 35.4017 201.923 34.9101 202.138 34.4869C202.356 34.0638 202.665 33.7334 203.066 33.4957C203.466 33.2581 203.941 33.1393 204.492 33.1393C204.967 33.1393 205.384 33.2255 205.742 33.3981C206.1 33.5706 206.383 33.8131 206.591 34.1256C206.8 34.4381 206.913 34.8059 206.933 35.2291H205.507C205.465 34.9589 205.359 34.7408 205.19 34.5748C205.021 34.4056 204.796 34.3209 204.516 34.3209C204.164 34.3209 203.883 34.4625 203.671 34.7457C203.46 35.0257 203.354 35.4244 203.354 35.942C203.354 36.4628 203.458 36.8681 203.666 37.1578C203.878 37.4476 204.161 37.5924 204.516 37.5924C204.776 37.5924 204.996 37.511 205.175 37.3483C205.354 37.1855 205.465 36.9576 205.507 36.6647H206.933C206.91 37.0813 206.798 37.4492 206.596 37.7682C206.394 38.0839 206.114 38.3313 205.756 38.5104C205.401 38.6862 204.981 38.774 204.496 38.774ZM208.414 38.6666V33.2076H209.928V38.6666H208.414ZM209.171 32.5094C208.947 32.5094 208.753 32.4345 208.59 32.2848C208.431 32.1351 208.351 31.9544 208.351 31.7428C208.351 31.5312 208.431 31.3522 208.59 31.2057C208.753 31.0559 208.947 30.9811 209.171 30.9811C209.396 30.9811 209.588 31.0559 209.747 31.2057C209.91 31.3522 209.992 31.5312 209.992 31.7428C209.992 31.9544 209.91 32.1351 209.747 32.2848C209.588 32.4345 209.396 32.5094 209.171 32.5094ZM213.197 38.7692C212.676 38.7692 212.243 38.6341 211.898 38.3639C211.556 38.0905 211.385 37.6836 211.385 37.1432C211.385 36.7363 211.48 36.4173 211.668 36.1862C211.86 35.9518 212.113 35.7809 212.425 35.6735C212.738 35.5628 213.073 35.4912 213.431 35.4586C213.906 35.413 214.245 35.3658 214.447 35.317C214.652 35.2649 214.754 35.151 214.754 34.9752V34.9508C214.754 34.7262 214.683 34.552 214.539 34.4283C214.396 34.3046 214.189 34.2428 213.919 34.2428C213.649 34.2428 213.428 34.3014 213.255 34.4186C213.086 34.5358 212.974 34.6855 212.918 34.8678L211.541 34.6481C211.672 34.1728 211.945 33.8033 212.362 33.5397C212.782 33.2727 213.302 33.1393 213.924 33.1393C214.328 33.1393 214.707 33.2028 215.062 33.3297C215.42 33.4567 215.71 33.6569 215.931 33.9303C216.152 34.2005 216.263 34.552 216.263 34.985V38.6666H214.832V37.9049H214.788C214.655 38.1621 214.456 38.3704 214.193 38.5299C213.932 38.6894 213.6 38.7692 213.197 38.7692ZM212.826 37.0944C212.826 37.3027 212.9 37.4606 213.05 37.568C213.203 37.6722 213.395 37.7242 213.626 37.7242C213.958 37.7242 214.23 37.6282 214.442 37.4362C214.657 37.2441 214.764 37.0048 214.764 36.7184V36.1373C214.705 36.1764 214.613 36.2122 214.486 36.2448C214.362 36.2773 214.23 36.305 214.09 36.3278C213.95 36.3473 213.825 36.3652 213.714 36.3815C213.447 36.4205 213.232 36.497 213.07 36.611C212.907 36.7216 212.826 36.8828 212.826 37.0944ZM217.979 38.6666V33.2076H219.493V38.6666H217.979ZM218.736 32.5094C218.511 32.5094 218.317 32.4345 218.155 32.2848C217.995 32.1351 217.915 31.9544 217.915 31.7428C217.915 31.5312 217.995 31.3522 218.155 31.2057C218.317 31.0559 218.511 30.9811 218.736 30.9811C218.96 30.9811 219.152 31.0559 219.312 31.2057C219.475 31.3522 219.556 31.5312 219.556 31.7428C219.556 31.9544 219.475 32.1351 219.312 32.2848C219.152 32.4345 218.96 32.5094 218.736 32.5094ZM225.735 34.7653L224.358 34.8483C224.319 34.6757 224.221 34.5276 224.065 34.4039C223.912 34.277 223.703 34.2135 223.44 34.2135C223.205 34.2135 223.009 34.2623 222.849 34.36C222.689 34.4576 222.61 34.5878 222.61 34.7506C222.61 34.8808 222.662 34.9915 222.766 35.0826C222.87 35.1738 223.048 35.247 223.298 35.3024L224.289 35.4977C225.338 35.706 225.862 36.1976 225.862 36.9723C225.862 37.3336 225.758 37.6494 225.549 37.9196C225.341 38.1897 225.054 38.3997 224.69 38.5494C224.325 38.6992 223.907 38.774 223.435 38.774C222.712 38.774 222.138 38.6243 221.711 38.3248C221.285 38.0221 221.034 37.6103 220.959 37.0895L222.444 37.0114C222.545 37.4606 222.877 37.6852 223.44 37.6852C223.703 37.6852 223.917 37.6331 224.079 37.5289C224.242 37.4248 224.324 37.2929 224.324 37.1334C224.324 36.8632 224.091 36.6809 223.625 36.5865L222.683 36.3912C221.632 36.1796 221.106 35.6621 221.106 34.8385C221.106 34.3112 221.316 33.8961 221.736 33.5934C222.159 33.2906 222.719 33.1393 223.415 33.1393C224.106 33.1393 224.649 33.2858 225.046 33.5787C225.443 33.8684 225.673 34.264 225.735 34.7653ZM232.628 38.774C232.068 38.774 231.587 38.6601 231.183 38.4323C230.779 38.2044 230.468 37.8805 230.25 37.4606C230.032 37.0374 229.923 36.5377 229.923 35.9615C229.923 35.4017 230.031 34.9101 230.245 34.4869C230.464 34.0638 230.77 33.7334 231.163 33.4957C231.557 33.2581 232.021 33.1393 232.555 33.1393C233.037 33.1393 233.471 33.2418 233.859 33.4469C234.249 33.652 234.559 33.9596 234.786 34.3698C235.018 34.7799 235.133 35.2942 235.133 35.9127V36.3229H231.412C231.429 36.7363 231.549 37.0602 231.774 37.2946C231.998 37.5289 232.291 37.6461 232.653 37.6461C232.903 37.6461 233.118 37.5924 233.297 37.485C233.48 37.3776 233.61 37.2213 233.688 37.0162L235.084 37.109C234.977 37.6103 234.708 38.014 234.279 38.3199C233.852 38.6227 233.302 38.774 232.628 38.774ZM231.422 35.3903H233.683C233.647 35.0452 233.536 34.7718 233.351 34.5699C233.165 34.3681 232.905 34.2672 232.57 34.2672C232.231 34.2672 231.963 34.373 231.764 34.5846C231.569 34.7929 231.455 35.0615 231.422 35.3903ZM241.011 38.7692C240.49 38.7692 240.057 38.6341 239.712 38.3639C239.37 38.0905 239.2 37.6836 239.2 37.1432C239.2 36.7363 239.294 36.4173 239.483 36.1862C239.675 35.9518 239.927 35.7809 240.24 35.6735C240.552 35.5628 240.887 35.4912 241.245 35.4586C241.721 35.413 242.059 35.3658 242.261 35.317C242.466 35.2649 242.569 35.151 242.569 34.9752V34.9508C242.569 34.7262 242.497 34.552 242.354 34.4283C242.211 34.3046 242.004 34.2428 241.734 34.2428C241.464 34.2428 241.242 34.3014 241.07 34.4186C240.9 34.5358 240.788 34.6855 240.733 34.8678L239.356 34.6481C239.486 34.1728 239.759 33.8033 240.176 33.5397C240.596 33.2727 241.117 33.1393 241.739 33.1393C242.142 33.1393 242.522 33.2028 242.876 33.3297C243.234 33.4567 243.524 33.6569 243.745 33.9303C243.967 34.2005 244.078 34.552 244.078 34.985V38.6666H242.647V37.9049H242.603C242.469 38.1621 242.271 38.3704 242.007 38.5299C241.747 38.6894 241.415 38.7692 241.011 38.7692ZM240.64 37.0944C240.64 37.3027 240.715 37.4606 240.865 37.568C241.018 37.6722 241.21 37.7242 241.441 37.7242C241.773 37.7242 242.045 37.6282 242.256 37.4362C242.471 37.2441 242.578 37.0048 242.578 36.7184V36.1373C242.52 36.1764 242.427 36.2122 242.3 36.2448C242.176 36.2773 242.045 36.305 241.905 36.3278C241.765 36.3473 241.639 36.3652 241.529 36.3815C241.262 36.4205 241.047 36.497 240.884 36.611C240.721 36.7216 240.64 36.8828 240.64 37.0944ZM245.793 38.6666V33.2076H247.307V38.6666H245.793ZM246.55 32.5094C246.326 32.5094 246.132 32.4345 245.969 32.2848C245.81 32.1351 245.73 31.9544 245.73 31.7428C245.73 31.5312 245.81 31.3522 245.969 31.2057C246.132 31.0559 246.326 30.9811 246.55 30.9811C246.775 30.9811 246.967 31.0559 247.126 31.2057C247.289 31.3522 247.37 31.5312 247.37 31.7428C247.37 31.9544 247.289 32.1351 247.126 32.2848C246.967 32.4345 246.775 32.5094 246.55 32.5094ZM249.018 38.6666V33.2076H250.453V34.1793H250.522C250.636 33.8571 250.826 33.6031 251.093 33.4176C251.36 33.2321 251.677 33.1393 252.045 33.1393C252.42 33.1393 252.737 33.2337 252.997 33.4225C253.261 33.608 253.435 33.8603 253.52 34.1793H253.578C253.692 33.8636 253.894 33.6113 254.184 33.4225C254.477 33.2337 254.824 33.1393 255.224 33.1393C255.732 33.1393 256.145 33.3004 256.464 33.6227C256.786 33.9449 256.948 34.4023 256.948 34.9948V38.6666H255.434V35.2975C255.434 34.9915 255.353 34.7636 255.19 34.6139C255.03 34.4642 254.83 34.3893 254.589 34.3893C254.316 34.3893 254.101 34.4772 253.945 34.653C253.792 34.8255 253.715 35.0533 253.715 35.3365V38.6666H252.245V35.2584C252.245 34.9948 252.169 34.7848 252.016 34.6285C251.866 34.469 251.668 34.3893 251.42 34.3893C251.166 34.3893 250.955 34.4821 250.786 34.6676C250.616 34.8499 250.532 35.0924 250.532 35.3951V38.6666H249.018ZM261.759 38.7545C261.466 38.7545 261.217 38.7057 261.012 38.608C260.81 38.5104 260.644 38.3883 260.514 38.2418C260.387 38.0921 260.288 37.9423 260.216 37.7926H260.148V38.6666H258.659V31.3912H260.172V34.1305H260.216C260.285 33.9808 260.381 33.8294 260.504 33.6764C260.631 33.5234 260.797 33.3964 261.002 33.2955C261.211 33.1914 261.466 33.1393 261.769 33.1393C262.169 33.1393 262.536 33.2434 262.868 33.4518C263.203 33.6569 263.471 33.9677 263.673 34.3844C263.875 34.8011 263.976 35.3219 263.976 35.9469C263.976 36.5524 263.878 37.0651 263.683 37.485C263.488 37.9017 263.222 38.2174 262.887 38.4323C262.552 38.6471 262.176 38.7545 261.759 38.7545ZM260.138 35.942C260.138 36.4238 260.237 36.8128 260.436 37.109C260.638 37.4052 260.921 37.5533 261.286 37.5533C261.657 37.5533 261.94 37.4036 262.135 37.1041C262.33 36.8014 262.428 36.414 262.428 35.942C262.428 35.4668 262.33 35.081 262.135 34.7848C261.943 34.4886 261.66 34.3405 261.286 34.3405C260.921 34.3405 260.638 34.4853 260.436 34.775C260.237 35.0647 260.138 35.4537 260.138 35.942ZM267.928 38.774C267.378 38.774 266.901 38.6569 266.497 38.4225C266.097 38.1849 265.788 37.8561 265.57 37.4362C265.355 37.013 265.247 36.5214 265.247 35.9615C265.247 35.3984 265.355 34.9052 265.57 34.4821C265.788 34.0589 266.097 33.7301 266.497 33.4957C266.901 33.2581 267.378 33.1393 267.928 33.1393C268.481 33.1393 268.958 33.2581 269.359 33.4957C269.762 33.7301 270.072 34.0589 270.286 34.4821C270.505 34.9052 270.614 35.3984 270.614 35.9615C270.614 36.5214 270.505 37.013 270.286 37.4362C270.072 37.8561 269.762 38.1849 269.359 38.4225C268.958 38.6569 268.481 38.774 267.928 38.774ZM266.786 35.9518C266.786 36.427 266.882 36.8193 267.074 37.1285C267.266 37.4378 267.552 37.5924 267.933 37.5924C268.311 37.5924 268.595 37.4378 268.787 37.1285C268.98 36.8193 269.076 36.427 269.076 35.9518C269.076 35.4765 268.98 35.0859 268.787 34.7799C268.595 34.4739 268.311 34.3209 267.933 34.3209C267.552 34.3209 267.266 34.4739 267.074 34.7799C266.882 35.0859 266.786 35.4765 266.786 35.9518ZM275.01 33.2076V34.3502H273.975V36.9869C273.975 37.3418 274.148 37.5192 274.493 37.5192C274.551 37.5192 274.615 37.5143 274.683 37.5045C274.755 37.4948 274.816 37.4834 274.869 37.4703L275.108 38.6031C274.786 38.6976 274.473 38.7448 274.17 38.7448C273.63 38.7448 273.21 38.608 272.911 38.3346C272.614 38.0612 272.466 37.6787 272.466 37.1871V34.3502H271.724V33.2076H272.466V31.9088H273.975V33.2076H275.01ZM277.58 38.7594C277.34 38.7594 277.136 38.678 276.97 38.5153C276.804 38.3492 276.721 38.1474 276.721 37.9098C276.721 37.6689 276.804 37.4671 276.97 37.3043C277.136 37.1416 277.34 37.0602 277.58 37.0602C277.821 37.0602 278.025 37.1416 278.191 37.3043C278.357 37.4671 278.44 37.6689 278.44 37.9098C278.44 38.1474 278.357 38.3492 278.191 38.5153C278.025 38.678 277.821 38.7594 277.58 38.7594Z" fill="#878787"/>
</svg>
