<svg width="471" height="25" viewBox="0 0 471 25" fill="none" xmlns="http://www.w3.org/2000/svg">
<rect x="0.5" y="0.5" width="470" height="24" rx="5.5" fill="#5500FF" stroke="#191919"/>
<path d="M211.248 6.95384C210.792 6.72029 210.219 6.71259 209.754 6.93074C209.289 7.1489 209 7.55954 209 8.00611V17.0402C209 17.4868 209.289 17.8974 209.754 18.1156C210.219 18.3337 210.792 18.3235 211.248 18.0925L220.115 13.5754C220.556 13.3522 220.824 12.9543 220.824 12.5232C220.824 12.092 220.556 11.6968 220.115 11.4709L211.248 6.95384Z" fill="white"/>
<path d="M227.692 7.9625H228.905V15.8375H233.492V17H227.692V7.9625ZM234.985 12.4875C234.985 11.8625 235.101 11.275 235.335 10.725C235.576 10.1667 235.91 9.675 236.335 9.25C236.76 8.81667 237.247 8.47917 237.797 8.2375C238.356 7.9875 238.956 7.8625 239.597 7.8625C240.231 7.8625 240.822 7.9875 241.372 8.2375C241.931 8.47917 242.422 8.81667 242.847 9.25C243.281 9.675 243.618 10.1667 243.86 10.725C244.101 11.275 244.222 11.8625 244.222 12.4875C244.222 13.1292 244.101 13.7292 243.86 14.2875C243.618 14.8458 243.281 15.3375 242.847 15.7625C242.422 16.1792 241.931 16.5083 241.372 16.75C240.822 16.9833 240.231 17.1 239.597 17.1C238.956 17.1 238.356 16.9833 237.797 16.75C237.247 16.5167 236.76 16.1917 236.335 15.775C235.91 15.3583 235.576 14.8708 235.335 14.3125C235.101 13.7542 234.985 13.1458 234.985 12.4875ZM236.235 12.5C236.235 12.975 236.322 13.4208 236.497 13.8375C236.672 14.2458 236.914 14.6083 237.222 14.925C237.531 15.2417 237.889 15.4917 238.297 15.675C238.706 15.85 239.147 15.9375 239.622 15.9375C240.089 15.9375 240.526 15.85 240.935 15.675C241.343 15.4917 241.697 15.2417 241.997 14.925C242.297 14.6083 242.535 14.2458 242.71 13.8375C242.885 13.4208 242.972 12.9708 242.972 12.4875C242.972 12.0125 242.885 11.5667 242.71 11.15C242.535 10.725 242.293 10.3542 241.985 10.0375C241.676 9.72083 241.318 9.475 240.91 9.3C240.501 9.11667 240.064 9.025 239.597 9.025C239.122 9.025 238.681 9.11667 238.272 9.3C237.864 9.48333 237.506 9.73333 237.197 10.05C236.889 10.3667 236.651 10.7375 236.485 11.1625C236.318 11.5792 236.235 12.025 236.235 12.5ZM245.127 17L249.077 7.5875H249.152L253.089 17H251.702L248.752 9.4875L249.614 8.925L246.314 17H245.127ZM247.439 13.575H250.802L251.202 14.625H247.089L247.439 13.575ZM255.041 17V7.9625H257.504C258.395 7.9625 259.154 8.1 259.779 8.375C260.412 8.65 260.92 9.0125 261.304 9.4625C261.687 9.9125 261.966 10.4125 262.141 10.9625C262.325 11.5042 262.416 12.0458 262.416 12.5875C262.416 13.2708 262.295 13.8833 262.054 14.425C261.82 14.9667 261.495 15.4292 261.079 15.8125C260.662 16.1958 260.183 16.4917 259.641 16.7C259.108 16.9 258.541 17 257.941 17H255.041ZM256.254 15.8375H257.704C258.204 15.8375 258.662 15.7625 259.079 15.6125C259.504 15.4625 259.87 15.2458 260.179 14.9625C260.496 14.6792 260.741 14.3333 260.916 13.925C261.091 13.5083 261.179 13.0375 261.179 12.5125C261.179 11.9542 261.087 11.4667 260.904 11.05C260.72 10.625 260.47 10.2708 260.154 9.9875C259.837 9.70417 259.479 9.49167 259.079 9.35C258.679 9.2 258.258 9.125 257.816 9.125H256.254V15.8375Z" fill="white"/>
</svg>
