<svg width="16" height="16" viewBox="0 0 16 16" fill="none" xmlns="http://www.w3.org/2000/svg">
<path d="M13.1957 0.203611L14.1383 1.14618L15.0808 2.08875C15.3577 2.36563 15.3577 2.81335 15.0808 3.08728C14.804 3.36122 14.3562 3.36416 14.0823 3.08728L13.6405 2.64545L12.5153 3.7677L14.1353 5.38774C14.4122 5.66462 14.4122 6.11234 14.1353 6.38627C13.8584 6.66021 13.4107 6.66315 13.1368 6.38627L11.016 4.26549L8.89523 2.14766C8.61835 1.87078 8.61835 1.42306 8.89523 1.14913C9.17211 0.875191 9.61983 0.872246 9.89376 1.14913L11.5138 2.76917L12.639 1.64692L12.1942 1.20509C11.9173 0.928211 11.9173 0.480491 12.1942 0.206557C12.4711 -0.0673775 12.9188 -0.070323 13.1928 0.206557L13.1957 0.203611ZM6.40037 4.58361L8.20008 2.78389C8.20892 2.79273 8.21776 2.80451 8.22954 2.81335L8.70082 3.28463L10.3503 4.93413L11.9998 6.58362L12.4711 7.05491C12.4799 7.06375 12.4888 7.07258 12.5006 7.08436L6.8746 12.7103C6.56532 13.0196 6.14705 13.1934 5.70817 13.1934H3.09254L1.41359 14.8723C1.13671 15.1492 0.688987 15.1492 0.415053 14.8723C0.141119 14.5955 0.138173 14.1477 0.415053 13.8738L2.094 12.1949V9.57923C2.094 9.14034 2.26779 8.72208 2.57707 8.4128L3.85248 7.13738L5.53143 8.81633C5.71406 8.99896 6.0145 8.99896 6.19712 8.81633C6.37975 8.63371 6.37975 8.33327 6.19712 8.15064L4.51817 6.47169L5.73762 5.25225L7.41657 6.9312C7.5992 7.11382 7.89964 7.11382 8.08226 6.9312C8.26488 6.74857 8.26488 6.44813 8.08226 6.26551L6.40331 4.58656L6.40037 4.58361Z" fill="white"/>
</svg>
