<svg width="47" height="13" viewBox="0 0 47 13" fill="none" xmlns="http://www.w3.org/2000/svg">
<path d="M0.664 12V0.0639992H0.68L6.744 8.672L6.088 8.544L12.136 0.0639992H12.168V12H10.632V3.584L10.728 4.368L6.36 10.544H6.328L1.896 4.368L2.168 3.648V12H0.664ZM18.5161 12.16C17.7588 12.16 17.1081 12.0107 16.5641 11.712C16.0201 11.4027 15.5988 10.9867 15.3001 10.464C15.0121 9.93067 14.8681 9.32267 14.8681 8.64C14.8681 7.98933 15.0335 7.39733 15.3641 6.864C15.6948 6.33067 16.1375 5.904 16.6921 5.584C17.2468 5.264 17.8655 5.104 18.5481 5.104C19.4228 5.104 20.1481 5.36 20.7241 5.872C21.3001 6.384 21.6895 7.088 21.8921 7.984L16.4361 9.904L16.0841 9.024L20.5641 7.392L20.2441 7.6C20.1161 7.248 19.9028 6.944 19.6041 6.688C19.3055 6.42133 18.9161 6.288 18.4361 6.288C18.0308 6.288 17.6681 6.38933 17.3481 6.592C17.0281 6.784 16.7775 7.05067 16.5961 7.392C16.4148 7.73333 16.3241 8.12267 16.3241 8.56C16.3241 9.01867 16.4201 9.424 16.6121 9.776C16.8041 10.1173 17.0655 10.3893 17.3961 10.592C17.7375 10.784 18.1215 10.88 18.5481 10.88C18.8361 10.88 19.1135 10.8267 19.3801 10.72C19.6575 10.6133 19.9135 10.4747 20.1481 10.304L20.8361 11.408C20.5055 11.632 20.1321 11.8133 19.7161 11.952C19.3108 12.0907 18.9108 12.16 18.5161 12.16ZM25.4046 5.376L25.5326 6.992L25.4686 6.736C25.682 6.24533 26.0286 5.856 26.5086 5.568C26.9886 5.26933 27.5433 5.12 28.1726 5.12C28.802 5.12 29.314 5.30667 29.7086 5.68C30.114 6.04267 30.322 6.51733 30.3326 7.104V12H28.8286V7.632C28.818 7.26933 28.7113 6.976 28.5086 6.752C28.3166 6.51733 28.0126 6.4 27.5966 6.4C27.2126 6.4 26.866 6.50667 26.5566 6.72C26.2473 6.93333 26.002 7.22667 25.8206 7.6C25.65 7.97333 25.5646 8.40533 25.5646 8.896V12H24.0766V5.376H25.4046ZM35.3364 12.256C34.739 12.256 34.243 12.0747 33.8484 11.712C33.4644 11.3387 33.2617 10.8587 33.2404 10.272V5.376H34.7284V9.744C34.7497 10.1067 34.851 10.4 35.0324 10.624C35.2244 10.848 35.523 10.9653 35.9284 10.976C36.3017 10.976 36.6324 10.8693 36.9204 10.656C37.219 10.432 37.459 10.1333 37.6404 9.76C37.8217 9.376 37.9124 8.944 37.9124 8.464V5.376H39.4004V12H38.0404L37.9124 10.368L37.9924 10.656C37.8644 10.9653 37.667 11.2427 37.4004 11.488C37.1444 11.7227 36.8404 11.9093 36.4884 12.048C36.1364 12.1867 35.7524 12.256 35.3364 12.256ZM44.1507 12.128C43.6814 12.128 43.2227 12.048 42.7747 11.888C42.3374 11.7173 41.9747 11.4667 41.6867 11.136L42.3107 10.272C42.5881 10.5387 42.8707 10.7413 43.1587 10.88C43.4574 11.008 43.7507 11.072 44.0387 11.072C44.2521 11.072 44.4494 11.0453 44.6307 10.992C44.8121 10.9387 44.9561 10.8533 45.0627 10.736C45.1801 10.608 45.2387 10.4373 45.2387 10.224C45.2387 9.98933 45.1587 9.80267 44.9987 9.664C44.8494 9.52533 44.6521 9.41333 44.4067 9.328C44.1721 9.24267 43.9214 9.16267 43.6547 9.088C43.1107 8.90667 42.6947 8.656 42.4067 8.336C42.1187 8.016 41.9747 7.62667 41.9747 7.168C41.9747 6.816 42.0601 6.49067 42.2307 6.192C42.4121 5.88267 42.6734 5.632 43.0147 5.44C43.3667 5.248 43.7987 5.152 44.3107 5.152C44.7694 5.152 45.1801 5.21067 45.5427 5.328C45.9054 5.43467 46.2467 5.616 46.5667 5.872L45.9747 6.8C45.7827 6.59733 45.5534 6.448 45.2867 6.352C45.0201 6.256 44.7801 6.20267 44.5667 6.192C44.3854 6.18133 44.2094 6.208 44.0387 6.272C43.8787 6.336 43.7454 6.42667 43.6387 6.544C43.5321 6.66133 43.4787 6.8 43.4787 6.96C43.4787 7.184 43.5534 7.36533 43.7027 7.504C43.8521 7.64267 44.0441 7.75467 44.2787 7.84C44.5241 7.91467 44.7641 7.99467 44.9987 8.08C45.3294 8.176 45.6227 8.304 45.8787 8.464C46.1347 8.624 46.3374 8.82133 46.4867 9.056C46.6467 9.29067 46.7267 9.584 46.7267 9.936C46.7267 10.3307 46.6307 10.6987 46.4387 11.04C46.2574 11.3707 45.9747 11.6373 45.5907 11.84C45.2174 12.032 44.7374 12.128 44.1507 12.128Z" fill="white"/>
</svg>
