<svg width="69" height="18" viewBox="0 0 69 18" fill="none" xmlns="http://www.w3.org/2000/svg">
<path d="M2.438 9.392C2.438 9.98 2.576 10.508 2.852 10.976C3.14 11.432 3.518 11.792 3.986 12.056C4.454 12.32 4.982 12.452 5.57 12.452C6.182 12.452 6.728 12.32 7.208 12.056C7.688 11.792 8.066 11.432 8.342 10.976C8.618 10.508 8.756 9.98 8.756 9.392V0.985999H10.466V9.446C10.466 10.394 10.244 11.222 9.8 11.93C9.368 12.638 8.78 13.184 8.036 13.568C7.304 13.952 6.482 14.144 5.57 14.144C4.658 14.144 3.836 13.952 3.104 13.568C2.372 13.184 1.79 12.638 1.358 11.93C0.926 11.222 0.71 10.394 0.71 9.446V0.985999H2.438V9.392ZM18.376 14.18C17.812 14.18 17.266 14.048 16.738 13.784C16.222 13.52 15.82 13.166 15.532 12.722L15.64 12.2V17.582H13.984V6.44H15.424L15.658 8.348L15.478 7.826C15.838 7.37 16.294 6.992 16.846 6.692C17.398 6.392 18.016 6.242 18.7 6.242C19.396 6.242 20.02 6.41 20.572 6.746C21.136 7.082 21.58 7.55 21.904 8.15C22.228 8.75 22.39 9.452 22.39 10.256C22.39 11.06 22.216 11.756 21.868 12.344C21.52 12.932 21.04 13.388 20.428 13.712C19.828 14.024 19.144 14.18 18.376 14.18ZM18.052 12.848C18.532 12.848 18.97 12.74 19.366 12.524C19.774 12.296 20.098 11.99 20.338 11.606C20.578 11.21 20.698 10.766 20.698 10.274C20.698 9.77 20.584 9.326 20.356 8.942C20.128 8.546 19.822 8.234 19.438 8.006C19.066 7.778 18.646 7.664 18.178 7.664C17.746 7.664 17.356 7.748 17.008 7.916C16.66 8.084 16.372 8.318 16.144 8.618C15.916 8.906 15.754 9.242 15.658 9.626V10.868C15.718 11.252 15.862 11.594 16.09 11.894C16.318 12.194 16.6 12.428 16.936 12.596C17.284 12.764 17.656 12.848 18.052 12.848ZM28.0379 14.18C27.3539 14.18 26.7299 14.018 26.1659 13.694C25.6139 13.358 25.1759 12.89 24.8519 12.29C24.5279 11.678 24.3659 10.976 24.3659 10.184C24.3659 9.356 24.5339 8.648 24.8699 8.06C25.2179 7.472 25.6859 7.022 26.2739 6.71C26.8619 6.398 27.5219 6.242 28.2539 6.242C28.8419 6.242 29.3999 6.368 29.9279 6.62C30.4679 6.872 30.8879 7.22 31.1879 7.664L31.1159 8.258V0.0679991H32.7719V14H31.0979V12.146L31.2779 12.614C30.9299 13.07 30.4799 13.448 29.9279 13.748C29.3759 14.036 28.7459 14.18 28.0379 14.18ZM28.5599 12.758C29.0039 12.758 29.3999 12.68 29.7479 12.524C30.0959 12.356 30.3839 12.128 30.6119 11.84C30.8399 11.552 31.0019 11.21 31.0979 10.814V9.41C31.0019 9.05 30.8279 8.738 30.5759 8.474C30.3359 8.198 30.0419 7.982 29.6939 7.826C29.3579 7.658 28.9799 7.574 28.5599 7.574C28.1039 7.574 27.6839 7.688 27.2999 7.916C26.9279 8.132 26.6279 8.432 26.3999 8.816C26.1719 9.2 26.0579 9.644 26.0579 10.148C26.0579 10.64 26.1719 11.084 26.3999 11.48C26.6279 11.864 26.9339 12.176 27.3179 12.416C27.7019 12.644 28.1159 12.758 28.5599 12.758ZM39.1399 14.18C38.4439 14.18 37.8079 14.03 37.2319 13.73C36.6679 13.43 36.2179 12.992 35.8819 12.416C35.5579 11.828 35.3959 11.114 35.3959 10.274C35.3959 9.446 35.5699 8.732 35.9179 8.132C36.2659 7.52 36.7279 7.052 37.3039 6.728C37.8919 6.404 38.5339 6.242 39.2299 6.242C39.9259 6.242 40.5139 6.404 40.9939 6.728C41.4739 7.04 41.8399 7.412 42.0919 7.844L41.9839 8.132L42.1459 6.548H43.6939V14H42.0199V12.056L42.1999 12.488C42.1519 12.608 42.0439 12.764 41.8759 12.956C41.7199 13.136 41.5039 13.322 41.2279 13.514C40.9639 13.706 40.6579 13.868 40.3099 14C39.9619 14.12 39.5719 14.18 39.1399 14.18ZM39.5899 12.794C40.0099 12.794 40.3879 12.716 40.7239 12.56C41.0599 12.404 41.3359 12.188 41.5519 11.912C41.7799 11.624 41.9359 11.282 42.0199 10.886V9.428C41.9239 9.068 41.7559 8.756 41.5159 8.492C41.2759 8.216 40.9879 8.006 40.6519 7.862C40.3159 7.706 39.9439 7.628 39.5359 7.628C39.0919 7.628 38.6839 7.736 38.3119 7.952C37.9399 8.168 37.6399 8.468 37.4119 8.852C37.1959 9.236 37.0879 9.686 37.0879 10.202C37.0879 10.682 37.2019 11.12 37.4299 11.516C37.6579 11.912 37.9639 12.224 38.3479 12.452C38.7319 12.68 39.1459 12.794 39.5899 12.794ZM47.6707 3.272H49.3447V6.584H51.3967V7.898H49.3447V14H47.6707V7.898H46.3027V6.584H47.6707V3.272ZM57.2355 14.18C56.3835 14.18 55.6515 14.012 55.0395 13.676C54.4275 13.328 53.9535 12.86 53.6175 12.272C53.2935 11.672 53.1315 10.988 53.1315 10.22C53.1315 9.488 53.3175 8.822 53.6895 8.222C54.0615 7.622 54.5595 7.142 55.1835 6.782C55.8075 6.422 56.5035 6.242 57.2715 6.242C58.2555 6.242 59.0715 6.53 59.7195 7.106C60.3675 7.682 60.8055 8.474 61.0335 9.482L54.8955 11.642L54.4995 10.652L59.5395 8.816L59.1795 9.05C59.0355 8.654 58.7955 8.312 58.4595 8.024C58.1235 7.724 57.6855 7.574 57.1455 7.574C56.6895 7.574 56.2815 7.688 55.9215 7.916C55.5615 8.132 55.2795 8.432 55.0755 8.816C54.8715 9.2 54.7695 9.638 54.7695 10.13C54.7695 10.646 54.8775 11.102 55.0935 11.498C55.3095 11.882 55.6035 12.188 55.9755 12.416C56.3595 12.632 56.7915 12.74 57.2715 12.74C57.5955 12.74 57.9075 12.68 58.2075 12.56C58.5195 12.44 58.8075 12.284 59.0715 12.092L59.8455 13.334C59.4735 13.586 59.0535 13.79 58.5855 13.946C58.1295 14.102 57.6795 14.18 57.2355 14.18ZM65.579 14.144C65.051 14.144 64.535 14.054 64.031 13.874C63.539 13.682 63.131 13.4 62.807 13.028L63.509 12.056C63.821 12.356 64.139 12.584 64.463 12.74C64.799 12.884 65.129 12.956 65.453 12.956C65.693 12.956 65.915 12.926 66.119 12.866C66.323 12.806 66.485 12.71 66.605 12.578C66.737 12.434 66.803 12.242 66.803 12.002C66.803 11.738 66.713 11.528 66.533 11.372C66.365 11.216 66.143 11.09 65.867 10.994C65.603 10.898 65.321 10.808 65.021 10.724C64.409 10.52 63.941 10.238 63.617 9.878C63.293 9.518 63.131 9.08 63.131 8.564C63.131 8.168 63.227 7.802 63.419 7.466C63.623 7.118 63.917 6.836 64.301 6.62C64.697 6.404 65.183 6.296 65.759 6.296C66.275 6.296 66.737 6.362 67.145 6.494C67.553 6.614 67.937 6.818 68.297 7.106L67.631 8.15C67.415 7.922 67.157 7.754 66.857 7.646C66.557 7.538 66.287 7.478 66.047 7.466C65.843 7.454 65.645 7.484 65.453 7.556C65.273 7.628 65.123 7.73 65.003 7.862C64.883 7.994 64.823 8.15 64.823 8.33C64.823 8.582 64.907 8.786 65.075 8.942C65.243 9.098 65.459 9.224 65.723 9.32C65.999 9.404 66.269 9.494 66.533 9.59C66.905 9.698 67.235 9.842 67.523 10.022C67.811 10.202 68.039 10.424 68.207 10.688C68.387 10.952 68.477 11.282 68.477 11.678C68.477 12.122 68.369 12.536 68.153 12.92C67.949 13.292 67.631 13.592 67.199 13.82C66.779 14.036 66.239 14.144 65.579 14.144Z" fill="white"/>
</svg>
