<svg width="89" height="19" viewBox="0 0 89 19" fill="none" xmlns="http://www.w3.org/2000/svg">
<path d="M0.872 0.985999H2.618V14H0.872V0.985999ZM7.79638 6.548L7.94038 8.366L7.86838 8.078C8.10838 7.526 8.49838 7.088 9.03838 6.764C9.57838 6.428 10.2024 6.26 10.9104 6.26C11.6184 6.26 12.1944 6.47 12.6384 6.89C13.0944 7.298 13.3284 7.832 13.3404 8.492V14H11.6484V9.086C11.6364 8.678 11.5164 8.348 11.2884 8.096C11.0724 7.832 10.7304 7.7 10.2624 7.7C9.83038 7.7 9.44038 7.82 9.09238 8.06C8.74438 8.3 8.46838 8.63 8.26438 9.05C8.07238 9.47 7.97638 9.956 7.97638 10.508V14H6.30238V6.548H7.79638ZM17.3316 3.272H19.0056V6.584H21.0576V7.898H19.0056V14H17.3316V7.898H15.9636V6.584H17.3316V3.272ZM24.9343 6.548L25.0963 8.708L25.0063 8.42C25.1983 7.964 25.4743 7.58 25.8343 7.268C26.2063 6.944 26.5903 6.698 26.9863 6.53C27.3943 6.35 27.7483 6.26 28.0483 6.26L27.9583 7.916C27.3943 7.88 26.8963 7.988 26.4643 8.24C26.0443 8.492 25.7083 8.828 25.4563 9.248C25.2163 9.668 25.0963 10.118 25.0963 10.598V14H23.4403V6.548H24.9343ZM29.6035 10.202C29.6035 9.458 29.7775 8.786 30.1255 8.186C30.4855 7.586 30.9775 7.112 31.6015 6.764C32.2255 6.416 32.9335 6.242 33.7255 6.242C34.5415 6.242 35.2555 6.416 35.8675 6.764C36.4795 7.112 36.9535 7.586 37.2895 8.186C37.6255 8.786 37.7935 9.458 37.7935 10.202C37.7935 10.946 37.6255 11.624 37.2895 12.236C36.9535 12.836 36.4735 13.31 35.8495 13.658C35.2375 14.006 34.5235 14.18 33.7075 14.18C32.9155 14.18 32.2075 14.018 31.5835 13.694C30.9715 13.358 30.4855 12.896 30.1255 12.308C29.7775 11.708 29.6035 11.006 29.6035 10.202ZM31.2775 10.22C31.2775 10.7 31.3855 11.138 31.6015 11.534C31.8175 11.918 32.1055 12.224 32.4655 12.452C32.8375 12.68 33.2455 12.794 33.6895 12.794C34.1575 12.794 34.5715 12.68 34.9315 12.452C35.3035 12.224 35.5915 11.918 35.7955 11.534C35.9995 11.138 36.1015 10.7 36.1015 10.22C36.1015 9.74 35.9995 9.308 35.7955 8.924C35.5915 8.528 35.3035 8.216 34.9315 7.988C34.5715 7.748 34.1575 7.628 33.6895 7.628C33.2335 7.628 32.8195 7.748 32.4475 7.988C32.0875 8.228 31.7995 8.546 31.5835 8.942C31.3795 9.326 31.2775 9.752 31.2775 10.22ZM43.4441 14.18C42.7601 14.18 42.1361 14.018 41.5721 13.694C41.0201 13.358 40.5821 12.89 40.2581 12.29C39.9341 11.678 39.7721 10.976 39.7721 10.184C39.7721 9.356 39.9401 8.648 40.2761 8.06C40.6241 7.472 41.0921 7.022 41.6801 6.71C42.2681 6.398 42.9281 6.242 43.6601 6.242C44.2481 6.242 44.8061 6.368 45.3341 6.62C45.8741 6.872 46.2941 7.22 46.5941 7.664L46.5221 8.258V0.0679991H48.1781V14H46.5041V12.146L46.6841 12.614C46.3361 13.07 45.8861 13.448 45.3341 13.748C44.7821 14.036 44.1521 14.18 43.4441 14.18ZM43.9661 12.758C44.4101 12.758 44.8061 12.68 45.1541 12.524C45.5021 12.356 45.7901 12.128 46.0181 11.84C46.2461 11.552 46.4081 11.21 46.5041 10.814V9.41C46.4081 9.05 46.2341 8.738 45.9821 8.474C45.7421 8.198 45.4481 7.982 45.1001 7.826C44.7641 7.658 44.3861 7.574 43.9661 7.574C43.5101 7.574 43.0901 7.688 42.7061 7.916C42.3341 8.132 42.0341 8.432 41.8061 8.816C41.5781 9.2 41.4641 9.644 41.4641 10.148C41.4641 10.64 41.5781 11.084 41.8061 11.48C42.0341 11.864 42.3401 12.176 42.7241 12.416C43.1081 12.644 43.5221 12.758 43.9661 12.758ZM53.808 14.288C53.136 14.288 52.578 14.084 52.134 13.676C51.702 13.256 51.474 12.716 51.45 12.056V6.548H53.124V11.462C53.148 11.87 53.262 12.2 53.466 12.452C53.682 12.704 54.018 12.836 54.474 12.848C54.894 12.848 55.266 12.728 55.59 12.488C55.926 12.236 56.196 11.9 56.4 11.48C56.604 11.048 56.706 10.562 56.706 10.022V6.548H58.38V14H56.85L56.706 12.164L56.796 12.488C56.652 12.836 56.43 13.148 56.13 13.424C55.842 13.688 55.5 13.898 55.104 14.054C54.708 14.21 54.276 14.288 53.808 14.288ZM67.6842 13.316C67.3482 13.58 66.9462 13.79 66.4782 13.946C66.0102 14.102 65.5422 14.18 65.0742 14.18C64.2582 14.18 63.5442 14.018 62.9322 13.694C62.3202 13.37 61.8402 12.92 61.4922 12.344C61.1562 11.756 60.9882 11.066 60.9882 10.274C60.9882 9.482 61.1682 8.792 61.5282 8.204C61.9002 7.616 62.3802 7.166 62.9682 6.854C63.5682 6.53 64.2102 6.368 64.8942 6.368C65.4942 6.368 66.0282 6.452 66.4962 6.62C66.9762 6.788 67.3842 7.016 67.7202 7.304L66.8922 8.384C66.6762 8.216 66.4122 8.066 66.1002 7.934C65.7882 7.802 65.4342 7.736 65.0382 7.736C64.6062 7.736 64.2042 7.85 63.8322 8.078C63.4722 8.294 63.1842 8.594 62.9682 8.978C62.7642 9.362 62.6622 9.794 62.6622 10.274C62.6622 10.73 62.7702 11.156 62.9862 11.552C63.2022 11.936 63.5022 12.242 63.8862 12.47C64.2702 12.686 64.7082 12.794 65.2002 12.794C65.5242 12.794 65.8182 12.746 66.0822 12.65C66.3582 12.554 66.6042 12.422 66.8202 12.254L67.6842 13.316ZM62.8422 16.736C62.9742 16.868 63.1422 16.976 63.3462 17.06C63.5502 17.156 63.7842 17.204 64.0482 17.204C64.3602 17.204 64.6422 17.132 64.8942 16.988C65.1462 16.856 65.2722 16.658 65.2722 16.394C65.2722 16.19 65.1882 15.998 65.0202 15.818C64.8522 15.65 64.5462 15.566 64.1022 15.566C63.9102 15.566 63.7062 15.59 63.4902 15.638C63.2742 15.686 63.0882 15.74 62.9322 15.8L62.6262 14.99L63.8862 13.82L65.1642 13.892L63.8682 15.404L63.4722 14.99C63.6042 14.93 63.7662 14.882 63.9582 14.846C64.1502 14.822 64.3362 14.804 64.5162 14.792C65.1522 14.78 65.6742 14.906 66.0822 15.17C66.4902 15.434 66.6942 15.83 66.6942 16.358C66.6942 16.766 66.5742 17.096 66.3342 17.348C66.1062 17.612 65.8062 17.804 65.4342 17.924C65.0622 18.056 64.6542 18.122 64.2102 18.122C63.7662 18.122 63.3822 18.05 63.0582 17.906C62.7462 17.774 62.4942 17.618 62.3022 17.438L62.8422 16.736ZM73.3012 14.18C72.6052 14.18 71.9692 14.03 71.3932 13.73C70.8292 13.43 70.3792 12.992 70.0432 12.416C69.7192 11.828 69.5572 11.114 69.5572 10.274C69.5572 9.446 69.7312 8.732 70.0792 8.132C70.4272 7.52 70.8892 7.052 71.4652 6.728C72.0532 6.404 72.6952 6.242 73.3912 6.242C74.0872 6.242 74.6752 6.404 75.1552 6.728C75.6352 7.04 76.0012 7.412 76.2532 7.844L76.1452 8.132L76.3072 6.548H77.8552V14H76.1812V12.056L76.3612 12.488C76.3132 12.608 76.2052 12.764 76.0372 12.956C75.8812 13.136 75.6652 13.322 75.3892 13.514C75.1252 13.706 74.8192 13.868 74.4712 14C74.1232 14.12 73.7332 14.18 73.3012 14.18ZM73.7512 12.794C74.1712 12.794 74.5492 12.716 74.8852 12.56C75.2212 12.404 75.4972 12.188 75.7132 11.912C75.9412 11.624 76.0972 11.282 76.1812 10.886V9.428C76.0852 9.068 75.9172 8.756 75.6772 8.492C75.4372 8.216 75.1492 8.006 74.8132 7.862C74.4772 7.706 74.1052 7.628 73.6972 7.628C73.2532 7.628 72.8452 7.736 72.4732 7.952C72.1012 8.168 71.8012 8.468 71.5732 8.852C71.3572 9.236 71.2492 9.686 71.2492 10.202C71.2492 10.682 71.3632 11.12 71.5912 11.516C71.8192 11.912 72.1252 12.224 72.5092 12.452C72.8932 12.68 73.3072 12.794 73.7512 12.794ZM75.6232 5.504C75.2392 5.504 74.9212 5.42 74.6692 5.252C74.4292 5.072 74.2012 4.886 73.9852 4.694C73.8412 4.562 73.6972 4.442 73.5532 4.334C73.4092 4.214 73.2472 4.154 73.0672 4.154C72.9232 4.154 72.7912 4.214 72.6712 4.334C72.5632 4.442 72.4792 4.598 72.4192 4.802C72.3592 5.006 72.3292 5.246 72.3292 5.522H71.4292C71.3932 5.054 71.4412 4.634 71.5732 4.262C71.7172 3.878 71.9212 3.578 72.1852 3.362C72.4612 3.146 72.7852 3.038 73.1572 3.038C73.4692 3.038 73.7392 3.128 73.9672 3.308C74.1952 3.476 74.4052 3.65 74.5972 3.83C74.7652 3.986 74.9272 4.13 75.0832 4.262C75.2392 4.382 75.4072 4.442 75.5872 4.442C75.8272 4.442 75.9952 4.316 76.0912 4.064C76.1992 3.812 76.2532 3.47 76.2532 3.038H77.1532C77.2012 3.542 77.1592 3.98 77.0272 4.352C76.9072 4.724 76.7212 5.012 76.4692 5.216C76.2172 5.408 75.9352 5.504 75.6232 5.504ZM80.4641 10.202C80.4641 9.458 80.6381 8.786 80.9861 8.186C81.3461 7.586 81.8381 7.112 82.4621 6.764C83.0861 6.416 83.7941 6.242 84.5861 6.242C85.4021 6.242 86.1161 6.416 86.7281 6.764C87.3401 7.112 87.8141 7.586 88.1501 8.186C88.4861 8.786 88.6541 9.458 88.6541 10.202C88.6541 10.946 88.4861 11.624 88.1501 12.236C87.8141 12.836 87.3341 13.31 86.7101 13.658C86.0981 14.006 85.3841 14.18 84.5681 14.18C83.7761 14.18 83.0681 14.018 82.4441 13.694C81.8321 13.358 81.3461 12.896 80.9861 12.308C80.6381 11.708 80.4641 11.006 80.4641 10.202ZM82.1381 10.22C82.1381 10.7 82.2461 11.138 82.4621 11.534C82.6781 11.918 82.9661 12.224 83.3261 12.452C83.6981 12.68 84.1061 12.794 84.5501 12.794C85.0181 12.794 85.4321 12.68 85.7921 12.452C86.1641 12.224 86.4521 11.918 86.6561 11.534C86.8601 11.138 86.9621 10.7 86.9621 10.22C86.9621 9.74 86.8601 9.308 86.6561 8.924C86.4521 8.528 86.1641 8.216 85.7921 7.988C85.4321 7.748 85.0181 7.628 84.5501 7.628C84.0941 7.628 83.6801 7.748 83.3081 7.988C82.9481 8.228 82.6601 8.546 82.4441 8.942C82.2401 9.326 82.1381 9.752 82.1381 10.22Z" fill="white"/>
</svg>
