<svg width="67" height="18" viewBox="0 0 67 18" fill="none" xmlns="http://www.w3.org/2000/svg">
<path d="M8.604 3.308C8.16 3.08 7.674 2.882 7.146 2.714C6.618 2.546 6.102 2.462 5.598 2.462C4.902 2.462 4.344 2.624 3.924 2.948C3.516 3.272 3.312 3.704 3.312 4.244C3.312 4.652 3.444 5 3.708 5.288C3.972 5.564 4.32 5.804 4.752 6.008C5.184 6.212 5.634 6.404 6.102 6.584C6.51 6.74 6.912 6.914 7.308 7.106C7.704 7.298 8.058 7.538 8.37 7.826C8.694 8.114 8.946 8.468 9.126 8.888C9.318 9.308 9.414 9.83 9.414 10.454C9.414 11.138 9.24 11.762 8.892 12.326C8.556 12.89 8.07 13.334 7.434 13.658C6.798 13.982 6.042 14.144 5.166 14.144C4.59 14.144 4.038 14.078 3.51 13.946C2.994 13.814 2.514 13.646 2.07 13.442C1.626 13.226 1.23 13.004 0.882 12.776L1.656 11.408C1.944 11.612 2.274 11.81 2.646 12.002C3.018 12.182 3.408 12.332 3.816 12.452C4.224 12.56 4.62 12.614 5.004 12.614C5.412 12.614 5.814 12.542 6.21 12.398C6.618 12.242 6.954 12.008 7.218 11.696C7.482 11.384 7.614 10.97 7.614 10.454C7.614 10.01 7.494 9.644 7.254 9.356C7.026 9.056 6.72 8.804 6.336 8.6C5.952 8.384 5.544 8.192 5.112 8.024C4.704 7.868 4.29 7.7 3.87 7.52C3.45 7.328 3.06 7.1 2.7 6.836C2.34 6.56 2.052 6.224 1.836 5.828C1.62 5.432 1.512 4.952 1.512 4.388C1.512 3.704 1.674 3.11 1.998 2.606C2.334 2.09 2.79 1.688 3.366 1.4C3.942 1.1 4.602 0.937999 5.346 0.913999C6.186 0.913999 6.924 1.016 7.56 1.22C8.208 1.424 8.778 1.676 9.27 1.976L8.604 3.308ZM15.7506 14.18C14.8986 14.18 14.1666 14.012 13.5546 13.676C12.9426 13.328 12.4686 12.86 12.1326 12.272C11.8086 11.672 11.6466 10.988 11.6466 10.22C11.6466 9.488 11.8326 8.822 12.2046 8.222C12.5766 7.622 13.0746 7.142 13.6986 6.782C14.3226 6.422 15.0186 6.242 15.7866 6.242C16.7706 6.242 17.5866 6.53 18.2346 7.106C18.8826 7.682 19.3206 8.474 19.5486 9.482L13.4106 11.642L13.0146 10.652L18.0546 8.816L17.6946 9.05C17.5506 8.654 17.3106 8.312 16.9746 8.024C16.6386 7.724 16.2006 7.574 15.6606 7.574C15.2046 7.574 14.7966 7.688 14.4366 7.916C14.0766 8.132 13.7946 8.432 13.5906 8.816C13.3866 9.2 13.2846 9.638 13.2846 10.13C13.2846 10.646 13.3926 11.102 13.6086 11.498C13.8246 11.882 14.1186 12.188 14.4906 12.416C14.8746 12.632 15.3066 12.74 15.7866 12.74C16.1106 12.74 16.4226 12.68 16.7226 12.56C17.0346 12.44 17.3226 12.284 17.5866 12.092L18.3606 13.334C17.9886 13.586 17.5686 13.79 17.1006 13.946C16.6446 14.102 16.1946 14.18 15.7506 14.18ZM22.7261 3.272H24.4001V6.584H26.4521V7.898H24.4001V14H22.7261V7.898H21.3581V6.584H22.7261V3.272ZM29.5549 3.272H31.2289V6.584H33.2809V7.898H31.2289V14H29.5549V7.898H28.1869V6.584H29.5549V3.272ZM35.6636 6.548H37.3376V14H35.6636V6.548ZM35.5376 3.848C35.5376 3.584 35.6396 3.362 35.8436 3.182C36.0596 3.002 36.2936 2.912 36.5456 2.912C36.7976 2.912 37.0196 3.002 37.2116 3.182C37.4156 3.362 37.5176 3.584 37.5176 3.848C37.5176 4.124 37.4156 4.352 37.2116 4.532C37.0196 4.7 36.7976 4.784 36.5456 4.784C36.2936 4.784 36.0596 4.694 35.8436 4.514C35.6396 4.334 35.5376 4.112 35.5376 3.848ZM42.0879 6.548L42.2319 8.366L42.1599 8.078C42.3999 7.526 42.7899 7.088 43.3299 6.764C43.8699 6.428 44.4939 6.26 45.2019 6.26C45.9099 6.26 46.4859 6.47 46.9299 6.89C47.3859 7.298 47.6199 7.832 47.6319 8.492V14H45.9399V9.086C45.9279 8.678 45.8079 8.348 45.5799 8.096C45.3639 7.832 45.0219 7.7 44.5539 7.7C44.1219 7.7 43.7319 7.82 43.3839 8.06C43.0359 8.3 42.7599 8.63 42.5559 9.05C42.3639 9.47 42.2679 9.956 42.2679 10.508V14H40.5939V6.548H42.0879ZM54.4852 17.69C53.9332 17.69 53.4472 17.624 53.0272 17.492C52.6072 17.372 52.2232 17.198 51.8752 16.97C51.5392 16.742 51.2152 16.484 50.9032 16.196L51.8752 15.062C52.2712 15.434 52.6732 15.722 53.0812 15.926C53.4892 16.13 53.9452 16.232 54.4492 16.232C55.0132 16.232 55.4872 16.136 55.8712 15.944C56.2672 15.764 56.5672 15.506 56.7712 15.17C56.9752 14.846 57.0772 14.468 57.0772 14.036L57.0952 12.02L57.2392 12.344C57.0232 12.86 56.6332 13.298 56.0692 13.658C55.5052 14.006 54.8212 14.18 54.0172 14.18C53.3332 14.18 52.7032 14.006 52.1272 13.658C51.5632 13.31 51.1072 12.842 50.7592 12.254C50.4232 11.654 50.2552 10.982 50.2552 10.238C50.2552 9.458 50.4352 8.774 50.7952 8.186C51.1552 7.586 51.6292 7.112 52.2172 6.764C52.8052 6.416 53.4472 6.242 54.1432 6.242C54.8032 6.242 55.4032 6.38 55.9432 6.656C56.4952 6.92 56.8972 7.262 57.1492 7.682L57.0592 7.988L57.2392 6.548H58.7692V14.054C58.7692 14.726 58.5952 15.338 58.2472 15.89C57.8992 16.442 57.4072 16.88 56.7712 17.204C56.1352 17.528 55.3732 17.69 54.4852 17.69ZM51.9292 10.202C51.9292 10.682 52.0432 11.12 52.2712 11.516C52.4992 11.912 52.8052 12.224 53.1892 12.452C53.5852 12.68 54.0232 12.794 54.5032 12.794C54.9472 12.794 55.3432 12.716 55.6912 12.56C56.0512 12.392 56.3512 12.17 56.5912 11.894C56.8312 11.606 56.9992 11.276 57.0952 10.904V9.428C56.9872 9.068 56.8072 8.756 56.5552 8.492C56.3032 8.216 56.0032 8.006 55.6552 7.862C55.3072 7.706 54.9232 7.628 54.5032 7.628C54.0232 7.628 53.5852 7.736 53.1892 7.952C52.8052 8.168 52.4992 8.474 52.2712 8.87C52.0432 9.254 51.9292 9.698 51.9292 10.202ZM64.109 14.144C63.581 14.144 63.065 14.054 62.561 13.874C62.069 13.682 61.661 13.4 61.337 13.028L62.039 12.056C62.351 12.356 62.669 12.584 62.993 12.74C63.329 12.884 63.659 12.956 63.983 12.956C64.223 12.956 64.445 12.926 64.649 12.866C64.853 12.806 65.015 12.71 65.135 12.578C65.267 12.434 65.333 12.242 65.333 12.002C65.333 11.738 65.243 11.528 65.063 11.372C64.895 11.216 64.673 11.09 64.397 10.994C64.133 10.898 63.851 10.808 63.551 10.724C62.939 10.52 62.471 10.238 62.147 9.878C61.823 9.518 61.661 9.08 61.661 8.564C61.661 8.168 61.757 7.802 61.949 7.466C62.153 7.118 62.447 6.836 62.831 6.62C63.227 6.404 63.713 6.296 64.289 6.296C64.805 6.296 65.267 6.362 65.675 6.494C66.083 6.614 66.467 6.818 66.827 7.106L66.161 8.15C65.945 7.922 65.687 7.754 65.387 7.646C65.087 7.538 64.817 7.478 64.577 7.466C64.373 7.454 64.175 7.484 63.983 7.556C63.803 7.628 63.653 7.73 63.533 7.862C63.413 7.994 63.353 8.15 63.353 8.33C63.353 8.582 63.437 8.786 63.605 8.942C63.773 9.098 63.989 9.224 64.253 9.32C64.529 9.404 64.799 9.494 65.063 9.59C65.435 9.698 65.765 9.842 66.053 10.022C66.341 10.202 66.569 10.424 66.737 10.688C66.917 10.952 67.007 11.282 67.007 11.678C67.007 12.122 66.899 12.536 66.683 12.92C66.479 13.292 66.161 13.592 65.729 13.82C65.309 14.036 64.769 14.144 64.109 14.144Z" fill="white"/>
</svg>
