<svg width="53" height="15" viewBox="0 0 53 15" fill="none" xmlns="http://www.w3.org/2000/svg">
<path d="M0.872 14V0.571999H0.89L7.712 10.256L6.974 10.112L13.778 0.571999H13.814V14H12.086V4.532L12.194 5.414L7.28 12.362H7.244L2.258 5.414L2.564 4.604V14H0.872ZM20.9556 14.18C20.1036 14.18 19.3716 14.012 18.7596 13.676C18.1476 13.328 17.6736 12.86 17.3376 12.272C17.0136 11.672 16.8516 10.988 16.8516 10.22C16.8516 9.488 17.0376 8.822 17.4096 8.222C17.7816 7.622 18.2796 7.142 18.9036 6.782C19.5276 6.422 20.2236 6.242 20.9916 6.242C21.9756 6.242 22.7916 6.53 23.4396 7.106C24.0876 7.682 24.5256 8.474 24.7536 9.482L18.6156 11.642L18.2196 10.652L23.2596 8.816L22.8996 9.05C22.7556 8.654 22.5156 8.312 22.1796 8.024C21.8436 7.724 21.4056 7.574 20.8656 7.574C20.4096 7.574 20.0016 7.688 19.6416 7.916C19.2816 8.132 18.9996 8.432 18.7956 8.816C18.5916 9.2 18.4896 9.638 18.4896 10.13C18.4896 10.646 18.5976 11.102 18.8136 11.498C19.0296 11.882 19.3236 12.188 19.6956 12.416C20.0796 12.632 20.5116 12.74 20.9916 12.74C21.3156 12.74 21.6276 12.68 21.9276 12.56C22.2396 12.44 22.5276 12.284 22.7916 12.092L23.5656 13.334C23.1936 13.586 22.7736 13.79 22.3056 13.946C21.8496 14.102 21.3996 14.18 20.9556 14.18ZM28.7052 6.548L28.8492 8.366L28.7772 8.078C29.0172 7.526 29.4072 7.088 29.9472 6.764C30.4872 6.428 31.1112 6.26 31.8192 6.26C32.5272 6.26 33.1032 6.47 33.5472 6.89C34.0032 7.298 34.2372 7.832 34.2492 8.492V14H32.5572V9.086C32.5452 8.678 32.4252 8.348 32.1972 8.096C31.9812 7.832 31.6392 7.7 31.1712 7.7C30.7392 7.7 30.3492 7.82 30.0012 8.06C29.6532 8.3 29.3772 8.63 29.1732 9.05C28.9812 9.47 28.8852 9.956 28.8852 10.508V14H27.2112V6.548H28.7052ZM39.8784 14.288C39.2064 14.288 38.6484 14.084 38.2044 13.676C37.7724 13.256 37.5444 12.716 37.5204 12.056V6.548H39.1944V11.462C39.2184 11.87 39.3324 12.2 39.5364 12.452C39.7524 12.704 40.0884 12.836 40.5444 12.848C40.9644 12.848 41.3364 12.728 41.6604 12.488C41.9964 12.236 42.2664 11.9 42.4704 11.48C42.6744 11.048 42.7764 10.562 42.7764 10.022V6.548H44.4504V14H42.9204L42.7764 12.164L42.8664 12.488C42.7224 12.836 42.5004 13.148 42.2004 13.424C41.9124 13.688 41.5704 13.898 41.1744 14.054C40.7784 14.21 40.3464 14.288 39.8784 14.288ZM49.7946 14.144C49.2666 14.144 48.7506 14.054 48.2466 13.874C47.7546 13.682 47.3466 13.4 47.0226 13.028L47.7246 12.056C48.0366 12.356 48.3546 12.584 48.6786 12.74C49.0146 12.884 49.3446 12.956 49.6686 12.956C49.9086 12.956 50.1306 12.926 50.3346 12.866C50.5386 12.806 50.7006 12.71 50.8206 12.578C50.9526 12.434 51.0186 12.242 51.0186 12.002C51.0186 11.738 50.9286 11.528 50.7486 11.372C50.5806 11.216 50.3586 11.09 50.0826 10.994C49.8186 10.898 49.5366 10.808 49.2366 10.724C48.6246 10.52 48.1566 10.238 47.8326 9.878C47.5086 9.518 47.3466 9.08 47.3466 8.564C47.3466 8.168 47.4426 7.802 47.6346 7.466C47.8386 7.118 48.1326 6.836 48.5166 6.62C48.9126 6.404 49.3986 6.296 49.9746 6.296C50.4906 6.296 50.9526 6.362 51.3606 6.494C51.7686 6.614 52.1526 6.818 52.5126 7.106L51.8466 8.15C51.6306 7.922 51.3726 7.754 51.0726 7.646C50.7726 7.538 50.5026 7.478 50.2626 7.466C50.0586 7.454 49.8606 7.484 49.6686 7.556C49.4886 7.628 49.3386 7.73 49.2186 7.862C49.0986 7.994 49.0386 8.15 49.0386 8.33C49.0386 8.582 49.1226 8.786 49.2906 8.942C49.4586 9.098 49.6746 9.224 49.9386 9.32C50.2146 9.404 50.4846 9.494 50.7486 9.59C51.1206 9.698 51.4506 9.842 51.7386 10.022C52.0266 10.202 52.2546 10.424 52.4226 10.688C52.6026 10.952 52.6926 11.282 52.6926 11.678C52.6926 12.122 52.5846 12.536 52.3686 12.92C52.1646 13.292 51.8466 13.592 51.4146 13.82C50.9946 14.036 50.4546 14.144 49.7946 14.144Z" fill="white"/>
</svg>
