<svg width="17" height="17" viewBox="0 0 17 17" fill="none" xmlns="http://www.w3.org/2000/svg">
<path fill-rule="evenodd" clip-rule="evenodd" d="M10.0335 0.127123C9.73366 6.10725e-05 9.3535 6.10352e-05 8.59318 6.10352e-05C7.83285 6.10352e-05 7.45269 6.10725e-05 7.15285 0.127123C6.75302 0.296541 6.43536 0.621499 6.26975 1.0305C6.19414 1.21721 6.16456 1.43435 6.15298 1.75108C6.13596 2.21653 5.90262 2.64737 5.5083 2.88026C5.11397 3.11314 4.63257 3.10445 4.23001 2.8868C3.95608 2.73868 3.75747 2.65632 3.5616 2.62995C3.13253 2.57216 2.69859 2.6911 2.35526 2.96061C2.09775 3.16274 1.90767 3.49952 1.52752 4.17308C1.14736 4.84665 0.95729 5.18342 0.914926 5.51262C0.858432 5.95154 0.974707 6.39543 1.23816 6.74667C1.35842 6.907 1.52741 7.04171 1.7897 7.2103C2.1753 7.45818 2.4234 7.88042 2.42338 8.34621C2.42335 8.81201 2.17526 9.23416 1.7897 9.48196C1.52737 9.65063 1.35834 9.78543 1.23808 9.94575C0.974626 10.297 0.858359 10.7408 0.914845 11.1797C0.957209 11.5089 1.14729 11.8458 1.52744 12.5193C1.90759 13.1928 2.09767 13.5297 2.35518 13.7317C2.69851 14.0012 3.13245 14.1202 3.56151 14.0624C3.75738 14.036 3.95598 13.9537 4.22989 13.8056C4.63247 13.5879 5.11391 13.5793 5.50826 13.8121C5.9026 14.0451 6.13596 14.4759 6.15298 14.9414C6.16456 15.2581 6.19414 15.4752 6.26975 15.662C6.43536 16.0709 6.75302 16.3959 7.15285 16.5653C7.45269 16.6924 7.83285 16.6924 8.59318 16.6924C9.3535 16.6924 9.73366 16.6924 10.0335 16.5653C10.4333 16.3959 10.751 16.0709 10.9166 15.662C10.9922 15.4752 11.0218 15.2581 11.0334 14.9413C11.0504 14.4759 11.2837 14.0451 11.678 13.8121C12.0724 13.5792 12.5538 13.5879 12.9564 13.8056C13.2303 13.9537 13.4289 14.036 13.6248 14.0623C14.0538 14.1202 14.4877 14.0012 14.8311 13.7317C15.0886 13.5296 15.2787 13.1928 15.6588 12.5192C16.039 11.8457 16.229 11.5089 16.2715 11.1797C16.3279 10.7408 16.2116 10.2969 15.9482 9.94567C15.8279 9.78534 15.6589 9.65055 15.3966 9.48196C15.0111 9.23416 14.763 8.81193 14.763 8.34613C14.763 7.88033 15.0111 7.45827 15.3966 7.21047C15.659 7.04179 15.828 6.90709 15.9483 6.74667C16.2117 6.39549 16.328 5.95159 16.2715 5.51267C16.2291 5.18348 16.0391 4.8467 15.6589 4.17314C15.2788 3.49958 15.0887 3.16279 14.8311 2.96067C14.4878 2.69116 14.0539 2.57222 13.6248 2.63001C13.429 2.65638 13.2303 2.73873 12.9565 2.88683C12.5539 3.10449 12.0724 3.11319 11.6781 2.88029C11.2838 2.64739 11.0504 2.21652 11.0333 1.75103C11.0218 1.43433 10.9922 1.21721 10.9166 1.0305C10.751 0.621499 10.4333 0.296541 10.0335 0.127123ZM8.59318 10.8501C9.945 10.8501 11.0408 9.72909 11.0408 8.34621C11.0408 6.96334 9.945 5.84237 8.59318 5.84237C7.24136 5.84237 6.14554 6.96334 6.14554 8.34621C6.14554 9.72909 7.24136 10.8501 8.59318 10.8501Z" fill="white"/>
</svg>
