<svg width="60" height="16" viewBox="0 0 60 16" fill="none" xmlns="http://www.w3.org/2000/svg">
<path d="M7.648 2.8038C7.25333 2.60113 6.82133 2.42513 6.352 2.2758C5.88267 2.12647 5.424 2.0518 4.976 2.0518C4.35733 2.0518 3.86133 2.1958 3.488 2.4838C3.12533 2.7718 2.944 3.1558 2.944 3.6358C2.944 3.99847 3.06133 4.3078 3.296 4.5638C3.53067 4.80913 3.84 5.02247 4.224 5.2038C4.608 5.38513 5.008 5.5558 5.424 5.7158C5.78667 5.85447 6.144 6.00913 6.496 6.1798C6.848 6.35047 7.16267 6.5638 7.44 6.8198C7.728 7.0758 7.952 7.39047 8.112 7.7638C8.28267 8.13713 8.368 8.60113 8.368 9.1558C8.368 9.7638 8.21333 10.3185 7.904 10.8198C7.60533 11.3211 7.17333 11.7158 6.608 12.0038C6.04267 12.2918 5.37067 12.4358 4.592 12.4358C4.08 12.4358 3.58933 12.3771 3.12 12.2598C2.66133 12.1425 2.23467 11.9931 1.84 11.8118C1.44533 11.6198 1.09333 11.4225 0.784 11.2198L1.472 10.0038C1.728 10.1851 2.02133 10.3611 2.352 10.5318C2.68267 10.6918 3.02933 10.8251 3.392 10.9318C3.75467 11.0278 4.10667 11.0758 4.448 11.0758C4.81067 11.0758 5.168 11.0118 5.52 10.8838C5.88267 10.7451 6.18133 10.5371 6.416 10.2598C6.65067 9.98247 6.768 9.61447 6.768 9.1558C6.768 8.76113 6.66133 8.4358 6.448 8.1798C6.24533 7.91313 5.97333 7.68913 5.632 7.5078C5.29067 7.3158 4.928 7.14513 4.544 6.9958C4.18133 6.85713 3.81333 6.7078 3.44 6.5478C3.06667 6.37713 2.72 6.17447 2.4 5.9398C2.08 5.69447 1.824 5.3958 1.632 5.0438C1.44 4.6918 1.344 4.26513 1.344 3.7638C1.344 3.1558 1.488 2.6278 1.776 2.1798C2.07467 1.72113 2.48 1.3638 2.992 1.1078C3.504 0.841133 4.09067 0.697133 4.752 0.675799C5.49867 0.675799 6.15467 0.766466 6.72 0.9478C7.296 1.12913 7.80267 1.35313 8.24 1.6198L7.648 2.8038ZM14.0005 12.4678C13.2432 12.4678 12.5925 12.3185 12.0485 12.0198C11.5045 11.7105 11.0832 11.2945 10.7845 10.7718C10.4965 10.2385 10.3525 9.63047 10.3525 8.9478C10.3525 8.29713 10.5178 7.70513 10.8485 7.1718C11.1792 6.63847 11.6218 6.2118 12.1765 5.8918C12.7312 5.5718 13.3498 5.4118 14.0325 5.4118C14.9072 5.4118 15.6325 5.6678 16.2085 6.1798C16.7845 6.6918 17.1738 7.3958 17.3765 8.2918L11.9205 10.2118L11.5685 9.3318L16.0485 7.6998L15.7285 7.9078C15.6005 7.5558 15.3872 7.2518 15.0885 6.9958C14.7898 6.72913 14.4005 6.5958 13.9205 6.5958C13.5152 6.5958 13.1525 6.69713 12.8325 6.8998C12.5125 7.0918 12.2618 7.35847 12.0805 7.6998C11.8992 8.04113 11.8085 8.43047 11.8085 8.8678C11.8085 9.32647 11.9045 9.7318 12.0965 10.0838C12.2885 10.4251 12.5498 10.6971 12.8805 10.8998C13.2218 11.0918 13.6058 11.1878 14.0325 11.1878C14.3205 11.1878 14.5978 11.1345 14.8645 11.0278C15.1418 10.9211 15.3978 10.7825 15.6325 10.6118L16.3205 11.7158C15.9898 11.9398 15.6165 12.1211 15.2005 12.2598C14.7952 12.3985 14.3952 12.4678 14.0005 12.4678ZM20.201 2.7718H21.689V5.7158H23.513V6.8838H21.689V12.3078H20.201V6.8838H18.985V5.7158H20.201V2.7718ZM26.271 2.7718H27.759V5.7158H29.583V6.8838H27.759V12.3078H26.271V6.8838H25.055V5.7158H26.271V2.7718ZM31.701 5.6838H33.189V12.3078H31.701V5.6838ZM31.589 3.2838C31.589 3.04913 31.6797 2.8518 31.861 2.6918C32.053 2.5318 32.261 2.4518 32.485 2.4518C32.709 2.4518 32.9063 2.5318 33.077 2.6918C33.2583 2.8518 33.349 3.04913 33.349 3.2838C33.349 3.52913 33.2583 3.7318 33.077 3.8918C32.9063 4.04113 32.709 4.1158 32.485 4.1158C32.261 4.1158 32.053 4.0358 31.861 3.8758C31.6797 3.7158 31.589 3.51847 31.589 3.2838ZM37.4115 5.6838L37.5395 7.2998L37.4755 7.0438C37.6888 6.55313 38.0355 6.1638 38.5155 5.8758C38.9955 5.57713 39.5502 5.4278 40.1795 5.4278C40.8088 5.4278 41.3208 5.61447 41.7155 5.9878C42.1208 6.35047 42.3288 6.82513 42.3395 7.4118V12.3078H40.8355V7.9398C40.8248 7.57713 40.7182 7.2838 40.5155 7.0598C40.3235 6.82513 40.0195 6.7078 39.6035 6.7078C39.2195 6.7078 38.8728 6.81447 38.5635 7.0278C38.2542 7.24113 38.0088 7.53447 37.8275 7.9078C37.6568 8.28113 37.5715 8.71313 37.5715 9.2038V12.3078H36.0835V5.6838H37.4115ZM48.4312 15.5878C47.9406 15.5878 47.5086 15.5291 47.1352 15.4118C46.7619 15.3051 46.4206 15.1505 46.1112 14.9478C45.8126 14.7451 45.5246 14.5158 45.2472 14.2598L46.1112 13.2518C46.4632 13.5825 46.8206 13.8385 47.1832 14.0198C47.5459 14.2011 47.9512 14.2918 48.3992 14.2918C48.9006 14.2918 49.3219 14.2065 49.6632 14.0358C50.0152 13.8758 50.2819 13.6465 50.4632 13.3478C50.6446 13.0598 50.7352 12.7238 50.7352 12.3398L50.7512 10.5478L50.8792 10.8358C50.6872 11.2945 50.3406 11.6838 49.8392 12.0038C49.3379 12.3131 48.7299 12.4678 48.0152 12.4678C47.4072 12.4678 46.8472 12.3131 46.3352 12.0038C45.8339 11.6945 45.4286 11.2785 45.1192 10.7558C44.8206 10.2225 44.6712 9.62513 44.6712 8.9638C44.6712 8.27047 44.8312 7.66247 45.1512 7.1398C45.4712 6.60647 45.8926 6.18513 46.4152 5.8758C46.9379 5.56647 47.5086 5.4118 48.1272 5.4118C48.7139 5.4118 49.2472 5.53447 49.7272 5.7798C50.2179 6.01447 50.5752 6.31847 50.7992 6.6918L50.7192 6.9638L50.8792 5.6838H52.2392V12.3558C52.2392 12.9531 52.0846 13.4971 51.7752 13.9878C51.4659 14.4785 51.0286 14.8678 50.4632 15.1558C49.8979 15.4438 49.2206 15.5878 48.4312 15.5878ZM46.1592 8.9318C46.1592 9.35847 46.2606 9.7478 46.4632 10.0998C46.6659 10.4518 46.9379 10.7291 47.2792 10.9318C47.6312 11.1345 48.0206 11.2358 48.4472 11.2358C48.8419 11.2358 49.1939 11.1665 49.5032 11.0278C49.8232 10.8785 50.0899 10.6811 50.3032 10.4358C50.5166 10.1798 50.6659 9.88647 50.7512 9.5558V8.2438C50.6552 7.9238 50.4952 7.64647 50.2712 7.4118C50.0472 7.16647 49.7806 6.9798 49.4712 6.8518C49.1619 6.71313 48.8206 6.6438 48.4472 6.6438C48.0206 6.6438 47.6312 6.7398 47.2792 6.9318C46.9379 7.1238 46.6659 7.3958 46.4632 7.7478C46.2606 8.08913 46.1592 8.4838 46.1592 8.9318ZM56.9858 12.4358C56.5164 12.4358 56.0578 12.3558 55.6098 12.1958C55.1724 12.0251 54.8098 11.7745 54.5218 11.4438L55.1458 10.5798C55.4231 10.8465 55.7058 11.0491 55.9938 11.1878C56.2924 11.3158 56.5858 11.3798 56.8738 11.3798C57.0871 11.3798 57.2844 11.3531 57.4658 11.2998C57.6471 11.2465 57.7911 11.1611 57.8978 11.0438C58.0151 10.9158 58.0738 10.7451 58.0738 10.5318C58.0738 10.2971 57.9938 10.1105 57.8338 9.9718C57.6844 9.83313 57.4871 9.72113 57.2418 9.6358C57.0071 9.55047 56.7564 9.47047 56.4898 9.3958C55.9458 9.21447 55.5298 8.9638 55.2418 8.6438C54.9538 8.3238 54.8098 7.93447 54.8098 7.4758C54.8098 7.1238 54.8951 6.79847 55.0658 6.4998C55.2471 6.19047 55.5084 5.9398 55.8498 5.7478C56.2018 5.5558 56.6338 5.4598 57.1458 5.4598C57.6044 5.4598 58.0151 5.51847 58.3778 5.6358C58.7404 5.74247 59.0818 5.9238 59.4018 6.1798L58.8098 7.1078C58.6178 6.90513 58.3884 6.7558 58.1218 6.6598C57.8551 6.5638 57.6151 6.51047 57.4018 6.4998C57.2204 6.48913 57.0444 6.5158 56.8738 6.5798C56.7138 6.6438 56.5804 6.73447 56.4738 6.8518C56.3671 6.96913 56.3138 7.1078 56.3138 7.2678C56.3138 7.4918 56.3884 7.67313 56.5378 7.8118C56.6871 7.95047 56.8791 8.06247 57.1138 8.1478C57.3591 8.22247 57.5991 8.30247 57.8338 8.3878C58.1644 8.4838 58.4578 8.6118 58.7138 8.7718C58.9698 8.9318 59.1724 9.12913 59.3218 9.3638C59.4818 9.59847 59.5618 9.8918 59.5618 10.2438C59.5618 10.6385 59.4658 11.0065 59.2738 11.3478C59.0924 11.6785 58.8098 11.9451 58.4258 12.1478C58.0524 12.3398 57.5724 12.4358 56.9858 12.4358Z" fill="white"/>
</svg>
