<svg width="470" height="50" viewBox="0 0 470 50" fill="none" xmlns="http://www.w3.org/2000/svg">
<rect x="0.5" y="0.5" width="468.185" height="48.1111" rx="6.5" fill="#1E1E1E" stroke="#2B2B2B"/>
<path d="M12.4896 20.7605C11.3428 20.7605 10.4266 20.4981 9.74109 19.9734C9.05977 19.4486 8.70431 18.6764 8.67468 17.6565H10.6107C10.6446 18.1305 10.8308 18.488 11.1693 18.7292C11.5121 18.9662 11.9437 19.0847 12.4642 19.0847C12.972 19.0847 13.3783 18.9768 13.683 18.761C13.9919 18.5452 14.1464 18.2638 14.1464 17.9167C14.1464 17.5994 14.0067 17.356 13.7274 17.1868C13.4481 17.0133 13.0503 16.8652 12.5341 16.7424L11.4994 16.4885C10.7038 16.2981 10.0754 15.9955 9.61414 15.5808C9.1571 15.1619 8.92859 14.6033 8.92859 13.905C8.92859 13.3337 9.08305 12.8344 9.39197 12.407C9.70089 11.9753 10.1241 11.641 10.6615 11.4041C11.2032 11.1628 11.8189 11.0422 12.5087 11.0422C13.2111 11.0422 13.8247 11.1628 14.3495 11.4041C14.8742 11.6453 15.2826 11.9796 15.5746 12.407C15.8708 12.8344 16.0232 13.3274 16.0316 13.886H14.1019C14.0681 13.5178 13.9115 13.2301 13.6322 13.0227C13.3529 12.8153 12.9742 12.7117 12.496 12.7117C12.0093 12.7117 11.6348 12.8132 11.3724 13.0164C11.1101 13.2153 10.9789 13.4692 10.9789 13.7781C10.9789 14.1124 11.1249 14.3663 11.4169 14.5398C11.7089 14.7091 12.0601 14.8424 12.4706 14.9397L13.3148 15.1492C13.8649 15.2719 14.3537 15.4517 14.7811 15.6887C15.2085 15.9215 15.545 16.2219 15.7904 16.5901C16.0358 16.954 16.1586 17.3984 16.1586 17.9231C16.1586 18.7906 15.8348 19.4804 15.1874 19.9924C14.5399 20.5045 13.6407 20.7605 12.4896 20.7605ZM19.3159 23.3313C19.0662 23.3313 18.8314 23.3123 18.6113 23.2742C18.3955 23.2361 18.2156 23.1895 18.0718 23.1345L18.5224 21.6682L18.5859 21.6809C18.916 21.774 19.1995 21.7952 19.4365 21.7444C19.6777 21.6936 19.8554 21.5074 19.9697 21.1858L20.0903 20.8303L17.5512 13.5305H19.6142L21.0869 18.7419H21.1631L22.6421 13.5305H24.7241L21.9502 21.446C21.7513 22.0216 21.4445 22.4786 21.0298 22.8171C20.6193 23.1599 20.048 23.3313 19.3159 23.3313ZM28.3511 16.5266V20.6272H26.3834V13.5305H28.3194V14.7937H28.3892C28.55 14.379 28.8061 14.051 29.1573 13.8098C29.5085 13.5644 29.9465 13.4417 30.4713 13.4417C31.2118 13.4417 31.8043 13.6807 32.2486 14.1589C32.6972 14.6329 32.9215 15.2846 32.9215 16.114V20.6272H30.9537V16.4631C30.9537 16.0273 30.8415 15.6866 30.6173 15.4412C30.3972 15.1957 30.0904 15.073 29.6968 15.073C29.2991 15.073 28.9753 15.2021 28.7257 15.4602C28.476 15.7141 28.3511 16.0696 28.3511 16.5266ZM38.9162 13.5305V15.0159H37.5705V18.4436C37.5705 18.9049 37.7948 19.1355 38.2433 19.1355C38.3195 19.1355 38.402 19.1292 38.4909 19.1165C38.584 19.1038 38.6644 19.0889 38.7321 19.072L39.0431 20.5447C38.6242 20.6674 38.2179 20.7288 37.8244 20.7288C37.1219 20.7288 36.576 20.551 36.1867 20.1956C35.8016 19.8401 35.6091 19.3429 35.6091 18.7039V15.0159H34.6442V13.5305H35.6091V11.842H37.5705V13.5305H38.9162ZM40.8484 20.6272V13.5305H42.7527V14.7747H42.8289C42.9558 14.3346 43.1717 14.0024 43.4763 13.7781C43.781 13.5496 44.1323 13.4353 44.5301 13.4353C44.6274 13.4353 44.7332 13.4417 44.8474 13.4543C44.9617 13.467 45.0611 13.484 45.1458 13.5051V15.2444C45.0527 15.2148 44.9236 15.1915 44.7586 15.1746C44.5978 15.1534 44.4497 15.1428 44.3142 15.1428C43.8826 15.1428 43.525 15.2804 43.2415 15.5554C42.958 15.8263 42.8162 16.1796 42.8162 16.6155V20.6272H40.8484ZM46.8177 20.6272V13.5305H48.7855V20.6272H46.8177ZM47.8016 12.6228C47.5096 12.6228 47.2579 12.5255 47.0463 12.3308C46.8389 12.1361 46.7352 11.9013 46.7352 11.6262C46.7352 11.3512 46.8389 11.1184 47.0463 10.928C47.2579 10.7333 47.5096 10.636 47.8016 10.636C48.0936 10.636 48.3433 10.7333 48.5507 10.928C48.7622 11.1184 48.868 11.3512 48.868 11.6262C48.868 11.9013 48.7622 12.1361 48.5507 12.3308C48.3433 12.5255 48.0936 12.6228 47.8016 12.6228ZM52.6538 13.5305L53.9487 16.0188L55.2817 13.5305H57.3066L55.25 17.0852L57.3637 20.6272H55.3515L53.9487 18.177L52.5776 20.6272H50.5464L52.6538 17.0852L50.6225 13.5305H52.6538ZM62.8342 11.1692H65.297L67.8996 17.5232H68.0075L70.6164 11.1692H73.0983V20.6272H71.1369V14.47H71.0671L68.6105 20.5828H67.2839L64.8527 14.4573H64.7702V20.6272H62.8342V11.1692ZM78.5852 20.7668C77.8574 20.7668 77.2311 20.6187 76.7063 20.3225C76.1816 20.0263 75.7774 19.6052 75.4939 19.0593C75.2104 18.5092 75.0686 17.8596 75.0686 17.1106C75.0686 16.3827 75.2083 15.7437 75.4876 15.1936C75.7711 14.6435 76.1689 14.2139 76.6809 13.905C77.193 13.5961 77.796 13.4417 78.49 13.4417C79.1163 13.4417 79.6813 13.575 80.1848 13.8416C80.6926 14.1082 81.0947 14.5081 81.3909 15.0413C81.6913 15.5745 81.8416 16.2431 81.8416 17.0471V17.5803H77.0047C77.0258 18.1178 77.1824 18.5388 77.4744 18.8435C77.7664 19.1482 78.1472 19.3005 78.617 19.3005C78.9428 19.3005 79.2221 19.2307 79.4549 19.0911C79.6918 18.9514 79.8611 18.7483 79.9627 18.4817L81.7781 18.6023C81.6385 19.254 81.2893 19.7787 80.7307 20.1765C80.1764 20.5701 79.4612 20.7668 78.5852 20.7668ZM77.0174 16.3679H79.9563C79.9098 15.9194 79.7659 15.5639 79.5247 15.3015C79.2835 15.0391 78.9449 14.908 78.5091 14.908C78.069 14.908 77.7198 15.0455 77.4617 15.3206C77.2078 15.5914 77.0597 15.9405 77.0174 16.3679ZM85.7543 16.5266V20.6272H83.7865V13.5305H85.7225V14.7937H85.7924C85.9532 14.379 86.2092 14.051 86.5604 13.8098C86.9117 13.5644 87.3497 13.4417 87.8744 13.4417C88.6149 13.4417 89.2074 13.6807 89.6517 14.1589C90.1003 14.6329 90.3246 15.2846 90.3246 16.114V20.6272H88.3568V16.4631C88.3568 16.0273 88.2447 15.6866 88.0204 15.4412C87.8003 15.1957 87.4935 15.073 87.1 15.073C86.7022 15.073 86.3785 15.2021 86.1288 15.4602C85.8791 15.7141 85.7543 16.0696 85.7543 16.5266ZM97.0937 17.6121V13.5305H99.0615V20.6272H97.1699V19.3386H97.0937C96.9372 19.7533 96.6727 20.0876 96.3003 20.3416C95.9321 20.5955 95.4814 20.7203 94.9482 20.7161C94.2331 20.7203 93.6533 20.4854 93.209 20.0115C92.7689 19.5333 92.5488 18.8795 92.5488 18.05V13.5305H94.5166V17.7073C94.5166 18.122 94.6287 18.4521 94.853 18.6975C95.0773 18.9387 95.3756 19.0572 95.748 19.053C96.0993 19.0572 96.4103 18.9366 96.6811 18.6912C96.9562 18.4457 97.0937 18.086 97.0937 17.6121Z" fill="white"/>
<path d="M10.1088 30.2802L11.8617 35.8075H11.9349L13.6927 30.2802H15.3969L12.8871 37.5555H10.9095L8.3949 30.2802H10.1088ZM19.222 37.663C18.6622 37.663 18.1804 37.549 17.7767 37.3212C17.3731 37.0933 17.0622 36.7694 16.8441 36.3495C16.626 35.9263 16.517 35.4266 16.517 34.8505C16.517 34.2906 16.6244 33.799 16.8392 33.3759C17.0573 32.9527 17.3633 32.6223 17.7572 32.3846C18.1511 32.147 18.6149 32.0282 19.1488 32.0282C19.6306 32.0282 20.0651 32.1307 20.4525 32.3358C20.8431 32.5409 21.1524 32.8485 21.3802 33.2587C21.6114 33.6688 21.7269 34.1831 21.7269 34.8016V35.2118H18.0062C18.0225 35.6252 18.1429 35.9491 18.3676 36.1835C18.5922 36.4178 18.8851 36.535 19.2465 36.535C19.4971 36.535 19.712 36.4813 19.891 36.3739C20.0733 36.2665 20.2035 36.1102 20.2816 35.9052L21.6781 35.9979C21.5707 36.4992 21.3021 36.9029 20.8724 37.2089C20.446 37.5116 19.8959 37.663 19.222 37.663ZM18.016 34.2792H20.2767C20.2409 33.9341 20.1302 33.6607 19.9447 33.4589C19.7592 33.257 19.4987 33.1561 19.1635 33.1561C18.8249 33.1561 18.5564 33.2619 18.3578 33.4735C18.1625 33.6818 18.0485 33.9504 18.016 34.2792ZM23.223 37.5555V32.0966H24.6879V33.0536H24.7465C24.8441 32.715 25.0101 32.4595 25.2445 32.287C25.4789 32.1112 25.7491 32.0233 26.0551 32.0233C26.1299 32.0233 26.2113 32.0282 26.2992 32.038C26.3871 32.0477 26.4636 32.0608 26.5287 32.077V33.4149C26.4571 33.3921 26.3578 33.3742 26.2308 33.3612C26.1071 33.3449 25.9932 33.3368 25.889 33.3368C25.557 33.3368 25.2819 33.4426 25.0638 33.6542C24.8457 33.8625 24.7367 34.1343 24.7367 34.4696V37.5555H23.223ZM32.3461 33.6542L30.9691 33.7372C30.9301 33.5647 30.8324 33.4165 30.6761 33.2928C30.5232 33.1659 30.3148 33.1024 30.0511 33.1024C29.8168 33.1024 29.6198 33.1512 29.4603 33.2489C29.3008 33.3466 29.2211 33.4768 29.2211 33.6395C29.2211 33.7697 29.2732 33.8804 29.3773 33.9716C29.4815 34.0627 29.6589 34.1359 29.9095 34.1913L30.9008 34.3866C31.9489 34.5949 32.473 35.0865 32.473 35.8612C32.473 36.2225 32.3689 36.5383 32.1605 36.8085C31.9522 37.0787 31.6657 37.2886 31.3011 37.4384C30.9366 37.5881 30.5183 37.663 30.0463 37.663C29.3236 37.663 28.7491 37.5132 28.3226 37.2137C27.8962 36.911 27.6455 36.4992 27.5707 35.9784L29.0551 35.9003C29.156 36.3495 29.488 36.5741 30.0511 36.5741C30.3148 36.5741 30.528 36.522 30.6908 36.4178C30.8536 36.3137 30.9349 36.1818 30.9349 36.0223C30.9349 35.7522 30.7022 35.5699 30.2367 35.4755L29.2943 35.2802C28.2429 35.0686 27.7172 34.551 27.7172 33.7274C27.7172 33.2001 27.9271 32.785 28.347 32.4823C28.7702 32.1796 29.3301 32.0282 30.0267 32.0282C30.7168 32.0282 31.2605 32.1747 31.6576 32.4677C32.0547 32.7574 32.2842 33.1529 32.3461 33.6542ZM35.4877 37.6581C34.9668 37.6581 34.5339 37.523 34.1888 37.2528C33.847 36.9794 33.6761 36.5725 33.6761 36.0321C33.6761 35.6252 33.7705 35.3062 33.9594 35.0751C34.1514 34.8407 34.4037 34.6698 34.7162 34.5624C35.0287 34.4517 35.364 34.3801 35.722 34.3475C36.1973 34.302 36.5358 34.2548 36.7377 34.2059C36.9427 34.1538 37.0453 34.0399 37.0453 33.8641V33.8397C37.0453 33.6151 36.9737 33.441 36.8304 33.3173C36.6872 33.1936 36.4805 33.1317 36.2103 33.1317C35.9401 33.1317 35.7188 33.1903 35.5463 33.3075C35.377 33.4247 35.2647 33.5744 35.2094 33.7567L33.8324 33.537C33.9626 33.0617 34.236 32.6923 34.6527 32.4286C35.0726 32.1617 35.5935 32.0282 36.2152 32.0282C36.6189 32.0282 36.9981 32.0917 37.3529 32.2186C37.711 32.3456 38.0007 32.5458 38.222 32.8192C38.4434 33.0894 38.5541 33.441 38.5541 33.8739V37.5555H37.1234V36.7938H37.0795C36.946 37.051 36.7474 37.2593 36.4838 37.4188C36.2233 37.5783 35.8913 37.6581 35.4877 37.6581ZM35.1166 35.9833C35.1166 36.1916 35.1914 36.3495 35.3412 36.4569C35.4942 36.5611 35.6862 36.6132 35.9174 36.6132C36.2494 36.6132 36.5212 36.5171 36.7328 36.3251C36.9476 36.133 37.0551 35.8938 37.0551 35.6073V35.0262C36.9965 35.0653 36.9037 35.1011 36.7767 35.1337C36.653 35.1662 36.5212 35.1939 36.3812 35.2167C36.2413 35.2362 36.1159 35.2541 36.0052 35.2704C35.7383 35.3094 35.5235 35.3859 35.3607 35.4999C35.198 35.6106 35.1166 35.7717 35.1166 35.9833ZM36.9818 31.4081C36.7702 31.4081 36.5896 31.3658 36.4398 31.2811C36.2901 31.1932 36.1582 31.107 36.0443 31.0223C35.9304 30.9377 35.8213 30.8954 35.7172 30.8954C35.6163 30.8954 35.5381 30.941 35.4828 31.0321C35.4307 31.12 35.4014 31.2356 35.3949 31.3788H34.5746C34.5844 30.9556 34.682 30.6317 34.8676 30.4071C35.0564 30.1792 35.3038 30.0653 35.6097 30.0653C35.8246 30.0653 36.0036 30.1076 36.1469 30.1923C36.2933 30.2769 36.4219 30.3615 36.5326 30.4462C36.6465 30.5308 36.7588 30.5731 36.8695 30.5731C36.9834 30.5731 37.0648 30.5324 37.1136 30.451C37.1657 30.3697 37.1967 30.2492 37.2064 30.0897H38.0121C38.0056 30.5129 37.9047 30.8384 37.7094 31.0663C37.5173 31.2941 37.2748 31.4081 36.9818 31.4081ZM42.7308 37.663C42.1807 37.663 41.7038 37.5458 41.3002 37.3114C40.8998 37.0738 40.5905 36.745 40.3724 36.3251C40.1576 35.9019 40.0502 35.4104 40.0502 34.8505C40.0502 34.2873 40.1576 33.7941 40.3724 33.371C40.5905 32.9478 40.8998 32.619 41.3002 32.3846C41.7038 32.147 42.1807 32.0282 42.7308 32.0282C43.2842 32.0282 43.7611 32.147 44.1615 32.3846C44.5651 32.619 44.8744 32.9478 45.0892 33.371C45.3073 33.7941 45.4164 34.2873 45.4164 34.8505C45.4164 35.4104 45.3073 35.9019 45.0892 36.3251C44.8744 36.745 44.5651 37.0738 44.1615 37.3114C43.7611 37.5458 43.2842 37.663 42.7308 37.663ZM41.5883 34.8407C41.5883 35.316 41.6843 35.7082 41.8763 36.0175C42.0684 36.3267 42.3549 36.4813 42.7357 36.4813C43.1133 36.4813 43.3982 36.3267 43.5902 36.0175C43.7823 35.7082 43.8783 35.316 43.8783 34.8407C43.8783 34.3654 43.7823 33.9748 43.5902 33.6688C43.3982 33.3628 43.1133 33.2098 42.7357 33.2098C42.3549 33.2098 42.0684 33.3628 41.8763 33.6688C41.6843 33.9748 41.5883 34.3654 41.5883 34.8407ZM52.1976 37.663C51.6377 37.663 51.1576 37.5441 50.7572 37.3065C50.3568 37.0689 50.0492 36.7385 49.8344 36.3153C49.6228 35.8921 49.517 35.4038 49.517 34.8505C49.517 34.2906 49.6244 33.799 49.8392 33.3759C50.0573 32.9527 50.3666 32.6223 50.767 32.3846C51.1674 32.147 51.6426 32.0282 52.1927 32.0282C52.668 32.0282 53.0847 32.1145 53.4427 32.287C53.8008 32.4595 54.084 32.702 54.2924 33.0145C54.5007 33.327 54.6146 33.6949 54.6342 34.118H53.2084C53.1661 33.8479 53.0603 33.6298 52.891 33.4637C52.7217 33.2945 52.4971 33.2098 52.2172 33.2098C51.8656 33.2098 51.584 33.3514 51.3724 33.6346C51.1608 33.9146 51.0551 34.3134 51.0551 34.8309C51.0551 35.3518 51.1592 35.757 51.3676 36.0468C51.5791 36.3365 51.8623 36.4813 52.2172 36.4813C52.4776 36.4813 52.6973 36.3999 52.8763 36.2372C53.0554 36.0744 53.1661 35.8466 53.2084 35.5536H54.6342C54.6114 35.9703 54.4991 36.3381 54.2972 36.6571C54.0954 36.9729 53.8155 37.2203 53.4574 37.3993C53.1026 37.5751 52.6827 37.663 52.1976 37.663ZM58.5765 37.663C58.0264 37.663 57.5495 37.5458 57.1459 37.3114C56.7455 37.0738 56.4362 36.745 56.2181 36.3251C56.0033 35.9019 55.8959 35.4104 55.8959 34.8505C55.8959 34.2873 56.0033 33.7941 56.2181 33.371C56.4362 32.9478 56.7455 32.619 57.1459 32.3846C57.5495 32.147 58.0264 32.0282 58.5765 32.0282C59.1299 32.0282 59.6068 32.147 60.0072 32.3846C60.4108 32.619 60.7201 32.9478 60.9349 33.371C61.153 33.7941 61.2621 34.2873 61.2621 34.8505C61.2621 35.4104 61.153 35.9019 60.9349 36.3251C60.7201 36.745 60.4108 37.0738 60.0072 37.3114C59.6068 37.5458 59.1299 37.663 58.5765 37.663ZM57.434 34.8407C57.434 35.316 57.53 35.7082 57.722 36.0175C57.9141 36.3267 58.2006 36.4813 58.5814 36.4813C58.959 36.4813 59.2439 36.3267 59.4359 36.0175C59.628 35.7082 59.724 35.316 59.724 34.8407C59.724 34.3654 59.628 33.9748 59.4359 33.6688C59.2439 33.3628 58.959 33.2098 58.5814 33.2098C58.2006 33.2098 57.9141 33.3628 57.722 33.6688C57.53 33.9748 57.434 34.3654 57.434 34.8407ZM62.7582 37.5555V32.0966H64.1937V33.0682H64.2621C64.376 32.746 64.5664 32.4921 64.8334 32.3065C65.1003 32.121 65.4177 32.0282 65.7855 32.0282C66.1599 32.0282 66.4773 32.1226 66.7377 32.3114C67.0013 32.4969 67.1755 32.7492 67.2601 33.0682H67.3187C67.4327 32.7525 67.6345 32.5002 67.9242 32.3114C68.2172 32.1226 68.5638 32.0282 68.9642 32.0282C69.472 32.0282 69.8855 32.1893 70.2045 32.5116C70.5267 32.8339 70.6879 33.2912 70.6879 33.8837V37.5555H69.1742V34.1864C69.1742 33.8804 69.0928 33.6525 68.9301 33.5028C68.7705 33.3531 68.5704 33.2782 68.3295 33.2782C68.056 33.2782 67.8412 33.3661 67.6849 33.5419C67.5319 33.7144 67.4554 33.9423 67.4554 34.2255V37.5555H65.9857V34.1473C65.9857 33.8837 65.9092 33.6737 65.7562 33.5175C65.6065 33.358 65.4079 33.2782 65.1605 33.2782C64.9066 33.2782 64.695 33.371 64.5258 33.5565C64.3565 33.7388 64.2719 33.9813 64.2719 34.2841V37.5555H62.7582ZM72.3988 39.5966V32.0966H73.8881V33.0194H73.9564C74.0248 32.8697 74.1208 32.7183 74.2445 32.5653C74.3715 32.4123 74.5375 32.2854 74.7426 32.1844C74.9509 32.0803 75.2064 32.0282 75.5092 32.0282C75.9095 32.0282 76.2758 32.1324 76.6078 32.3407C76.9431 32.5458 77.2116 32.8566 77.4135 33.2733C77.6153 33.69 77.7162 34.2108 77.7162 34.8358C77.7162 35.4413 77.6185 35.954 77.4232 36.3739C77.2279 36.7906 76.9626 37.1063 76.6273 37.3212C76.292 37.536 75.9161 37.6434 75.4994 37.6434C75.2064 37.6434 74.9574 37.5946 74.7523 37.4969C74.5505 37.3993 74.3845 37.2772 74.2543 37.1307C74.1273 36.981 74.028 36.8313 73.9564 36.6815H73.9125V39.5966H72.3988ZM73.8783 34.8309C73.8783 35.3127 73.9776 35.7017 74.1761 35.9979C74.378 36.2941 74.6612 36.4423 75.0258 36.4423C75.3969 36.4423 75.6801 36.2925 75.8754 35.993C76.0707 35.6903 76.1683 35.3029 76.1683 34.8309C76.1683 34.3557 76.0707 33.9699 75.8754 33.6737C75.6833 33.3775 75.4001 33.2294 75.0258 33.2294C74.6612 33.2294 74.378 33.3742 74.1761 33.6639C73.9776 33.9537 73.8783 34.3427 73.8783 34.8309ZM80.7211 30.2802V37.5555H79.2074V30.2802H80.7211ZM84.9174 37.663C84.3575 37.663 83.8757 37.549 83.472 37.3212C83.0684 37.0933 82.7575 36.7694 82.5394 36.3495C82.3213 35.9263 82.2123 35.4266 82.2123 34.8505C82.2123 34.2906 82.3197 33.799 82.5345 33.3759C82.7526 32.9527 83.0586 32.6223 83.4525 32.3846C83.8464 32.147 84.3103 32.0282 84.8441 32.0282C85.3259 32.0282 85.7605 32.1307 86.1478 32.3358C86.5385 32.5409 86.8477 32.8485 87.0756 33.2587C87.3067 33.6688 87.4222 34.1831 87.4222 34.8016V35.2118H83.7015C83.7178 35.6252 83.8383 35.9491 84.0629 36.1835C84.2875 36.4178 84.5804 36.535 84.9418 36.535C85.1924 36.535 85.4073 36.4813 85.5863 36.3739C85.7686 36.2665 85.8988 36.1102 85.9769 35.9052L87.3734 35.9979C87.266 36.4992 86.9974 36.9029 86.5677 37.2089C86.1413 37.5116 85.5912 37.663 84.9174 37.663ZM83.7113 34.2792H85.972C85.9362 33.9341 85.8256 33.6607 85.64 33.4589C85.4545 33.257 85.1941 33.1561 84.8588 33.1561C84.5202 33.1561 84.2517 33.2619 84.0531 33.4735C83.8578 33.6818 83.7439 33.9504 83.7113 34.2792ZM91.8187 32.0966V33.2391H90.7836V35.8759C90.7836 36.2307 90.9561 36.4081 91.3011 36.4081C91.3597 36.4081 91.4232 36.4032 91.4916 36.3934C91.5632 36.3837 91.625 36.3723 91.6771 36.3593L91.9164 37.4921C91.5941 37.5865 91.2816 37.6337 90.9789 37.6337C90.4385 37.6337 90.0186 37.4969 89.7191 37.2235C89.4229 36.9501 89.2748 36.5676 89.2748 36.076V33.2391H88.5326V32.0966H89.2748V30.7977H90.7836V32.0966H91.8187ZM94.8627 37.6581C94.3418 37.6581 93.9089 37.523 93.5638 37.2528C93.222 36.9794 93.0511 36.5725 93.0511 36.0321C93.0511 35.6252 93.1455 35.3062 93.3344 35.0751C93.5264 34.8407 93.7787 34.6698 94.0912 34.5624C94.4037 34.4517 94.739 34.3801 95.097 34.3475C95.5723 34.302 95.9108 34.2548 96.1127 34.2059C96.3177 34.1538 96.4203 34.0399 96.4203 33.8641V33.8397C96.4203 33.6151 96.3487 33.441 96.2054 33.3173C96.0622 33.1936 95.8555 33.1317 95.5853 33.1317C95.3151 33.1317 95.0938 33.1903 94.9213 33.3075C94.752 33.4247 94.6397 33.5744 94.5844 33.7567L93.2074 33.537C93.3376 33.0617 93.611 32.6923 94.0277 32.4286C94.4476 32.1617 94.9685 32.0282 95.5902 32.0282C95.9939 32.0282 96.3731 32.0917 96.7279 32.2186C97.086 32.3456 97.3757 32.5458 97.597 32.8192C97.8184 33.0894 97.9291 33.441 97.9291 33.8739V37.5555H96.4984V36.7938H96.4545C96.321 37.051 96.1224 37.2593 95.8588 37.4188C95.5983 37.5783 95.2663 37.6581 94.8627 37.6581ZM94.4916 35.9833C94.4916 36.1916 94.5664 36.3495 94.7162 36.4569C94.8692 36.5611 95.0612 36.6132 95.2924 36.6132C95.6244 36.6132 95.8962 36.5171 96.1078 36.3251C96.3226 36.133 96.4301 35.8938 96.4301 35.6073V35.0262C96.3715 35.0653 96.2787 35.1011 96.1517 35.1337C96.028 35.1662 95.8962 35.1939 95.7562 35.2167C95.6163 35.2362 95.4909 35.2541 95.3802 35.2704C95.1133 35.3094 94.8985 35.3859 94.7357 35.4999C94.573 35.6106 94.4916 35.7717 94.4916 35.9833ZM99.6156 39.494L100.045 36.4471H101.544L100.636 39.494H99.6156ZM108.965 37.663C108.405 37.663 107.925 37.5441 107.525 37.3065C107.124 37.0689 106.817 36.7385 106.602 36.3153C106.39 35.8921 106.285 35.4038 106.285 34.8505C106.285 34.2906 106.392 33.799 106.607 33.3759C106.825 32.9527 107.134 32.6223 107.535 32.3846C107.935 32.147 108.41 32.0282 108.96 32.0282C109.436 32.0282 109.852 32.1145 110.21 32.287C110.568 32.4595 110.852 32.702 111.06 33.0145C111.268 33.327 111.382 33.6949 111.402 34.118H109.976C109.934 33.8479 109.828 33.6298 109.659 33.4637C109.489 33.2945 109.265 33.2098 108.985 33.2098C108.633 33.2098 108.352 33.3514 108.14 33.6346C107.928 33.9146 107.823 34.3134 107.823 34.8309C107.823 35.3518 107.927 35.757 108.135 36.0468C108.347 36.3365 108.63 36.4813 108.985 36.4813C109.245 36.4813 109.465 36.3999 109.644 36.2372C109.823 36.0744 109.934 35.8466 109.976 35.5536H111.402C111.379 35.9703 111.267 36.3381 111.065 36.6571C110.863 36.9729 110.583 37.2203 110.225 37.3993C109.87 37.5751 109.45 37.663 108.965 37.663ZM115.344 37.663C114.794 37.663 114.317 37.5458 113.913 37.3114C113.513 37.0738 113.204 36.745 112.986 36.3251C112.771 35.9019 112.663 35.4104 112.663 34.8505C112.663 34.2873 112.771 33.7941 112.986 33.371C113.204 32.9478 113.513 32.619 113.913 32.3846C114.317 32.147 114.794 32.0282 115.344 32.0282C115.898 32.0282 116.374 32.147 116.775 32.3846C117.178 32.619 117.488 32.9478 117.703 33.371C117.921 33.7941 118.03 34.2873 118.03 34.8505C118.03 35.4104 117.921 35.9019 117.703 36.3251C117.488 36.745 117.178 37.0738 116.775 37.3114C116.374 37.5458 115.898 37.663 115.344 37.663ZM114.202 34.8407C114.202 35.316 114.298 35.7082 114.49 36.0175C114.682 36.3267 114.968 36.4813 115.349 36.4813C115.727 36.4813 116.011 36.3267 116.203 36.0175C116.396 35.7082 116.492 35.316 116.492 34.8407C116.492 34.3654 116.396 33.9748 116.203 33.6688C116.011 33.3628 115.727 33.2098 115.349 33.2098C114.968 33.2098 114.682 33.3628 114.49 33.6688C114.298 33.9748 114.202 34.3654 114.202 34.8407ZM121.039 34.4012V37.5555H119.526V32.0966H121.015V33.0682H121.069C121.192 32.7492 121.389 32.4969 121.66 32.3114C121.93 32.1226 122.267 32.0282 122.67 32.0282C123.24 32.0282 123.696 32.2121 124.037 32.58C124.383 32.9445 124.555 33.4458 124.555 34.0839V37.5555H123.041V34.3524C123.041 34.0171 122.955 33.7551 122.783 33.5663C122.613 33.3775 122.377 33.2831 122.075 33.2831C121.769 33.2831 121.52 33.3824 121.328 33.5809C121.135 33.7762 121.039 34.0497 121.039 34.4012ZM129.166 32.0966V33.2391H128.131V35.8759C128.131 36.2307 128.304 36.4081 128.649 36.4081C128.707 36.4081 128.771 36.4032 128.839 36.3934C128.911 36.3837 128.973 36.3723 129.025 36.3593L129.264 37.4921C128.942 37.5865 128.629 37.6337 128.327 37.6337C127.786 37.6337 127.366 37.4969 127.067 37.2235C126.771 36.9501 126.622 36.5676 126.622 36.076V33.2391H125.88V32.0966H126.622V30.7977H128.131V32.0966H129.166ZM133.138 37.663C132.578 37.663 132.096 37.549 131.693 37.3212C131.289 37.0933 130.978 36.7694 130.76 36.3495C130.542 35.9263 130.433 35.4266 130.433 34.8505C130.433 34.2906 130.54 33.799 130.755 33.3759C130.973 32.9527 131.279 32.6223 131.673 32.3846C132.067 32.147 132.531 32.0282 133.065 32.0282C133.547 32.0282 133.981 32.1307 134.369 32.3358C134.759 32.5409 135.068 32.8485 135.296 33.2587C135.527 33.6688 135.643 34.1831 135.643 34.8016V35.2118H131.922C131.939 35.6252 132.059 35.9491 132.284 36.1835C132.508 36.4178 132.801 36.535 133.162 36.535C133.413 36.535 133.628 36.4813 133.807 36.3739C133.989 36.2665 134.12 36.1102 134.198 35.9052L135.594 35.9979C135.487 36.4992 135.218 36.9029 134.788 37.2089C134.362 37.5116 133.812 37.663 133.138 37.663ZM131.932 34.2792H134.193C134.157 33.9341 134.046 33.6607 133.861 33.4589C133.675 33.257 133.415 33.1561 133.079 33.1561C132.741 33.1561 132.472 33.2619 132.274 33.4735C132.078 33.6818 131.965 33.9504 131.932 34.2792ZM132.484 31.4178L133.162 29.9286H134.549L133.534 31.4178H132.484ZM137.11 37.5555V32.0966H138.545V33.0682H138.614C138.728 32.746 138.918 32.4921 139.185 32.3065C139.452 32.121 139.769 32.0282 140.137 32.0282C140.511 32.0282 140.829 32.1226 141.089 32.3114C141.353 32.4969 141.527 32.7492 141.612 33.0682H141.67C141.784 32.7525 141.986 32.5002 142.276 32.3114C142.569 32.1226 142.915 32.0282 143.316 32.0282C143.824 32.0282 144.237 32.1893 144.556 32.5116C144.878 32.8339 145.039 33.2912 145.039 33.8837V37.5555H143.526V34.1864C143.526 33.8804 143.444 33.6525 143.282 33.5028C143.122 33.3531 142.922 33.2782 142.681 33.2782C142.408 33.2782 142.193 33.3661 142.036 33.5419C141.884 33.7144 141.807 33.9423 141.807 34.2255V37.5555H140.337V34.1473C140.337 33.8837 140.261 33.6737 140.108 33.5175C139.958 33.358 139.759 33.2782 139.512 33.2782C139.258 33.2782 139.047 33.371 138.877 33.5565C138.708 33.7388 138.623 33.9813 138.623 34.2841V37.5555H137.11ZM149.575 37.5555V32.0966H151.01V33.0682H151.078C151.192 32.746 151.383 32.4921 151.65 32.3065C151.917 32.121 152.234 32.0282 152.602 32.0282C152.976 32.0282 153.294 32.1226 153.554 32.3114C153.818 32.4969 153.992 32.7492 154.077 33.0682H154.135C154.249 32.7525 154.451 32.5002 154.741 32.3114C155.034 32.1226 155.38 32.0282 155.781 32.0282C156.288 32.0282 156.702 32.1893 157.021 32.5116C157.343 32.8339 157.504 33.2912 157.504 33.8837V37.5555H155.991V34.1864C155.991 33.8804 155.909 33.6525 155.746 33.5028C155.587 33.3531 155.387 33.2782 155.146 33.2782C154.872 33.2782 154.658 33.3661 154.501 33.5419C154.348 33.7144 154.272 33.9423 154.272 34.2255V37.5555H152.802V34.1473C152.802 33.8837 152.726 33.6737 152.573 33.5175C152.423 33.358 152.224 33.2782 151.977 33.2782C151.723 33.2782 151.511 33.371 151.342 33.5565C151.173 33.7388 151.088 33.9813 151.088 34.2841V37.5555H149.575ZM160.773 37.6581C160.252 37.6581 159.819 37.523 159.474 37.2528C159.132 36.9794 158.961 36.5725 158.961 36.0321C158.961 35.6252 159.056 35.3062 159.245 35.0751C159.437 34.8407 159.689 34.6698 160.001 34.5624C160.314 34.4517 160.649 34.3801 161.007 34.3475C161.482 34.302 161.821 34.2548 162.023 34.2059C162.228 34.1538 162.33 34.0399 162.33 33.8641V33.8397C162.33 33.6151 162.259 33.441 162.116 33.3173C161.972 33.1936 161.766 33.1317 161.495 33.1317C161.225 33.1317 161.004 33.1903 160.831 33.3075C160.662 33.4247 160.55 33.5744 160.495 33.7567L159.118 33.537C159.248 33.0617 159.521 32.6923 159.938 32.4286C160.358 32.1617 160.879 32.0282 161.5 32.0282C161.904 32.0282 162.283 32.0917 162.638 32.2186C162.996 32.3456 163.286 32.5458 163.507 32.8192C163.729 33.0894 163.839 33.441 163.839 33.8739V37.5555H162.409V36.7938H162.365C162.231 37.051 162.033 37.2593 161.769 37.4188C161.509 37.5783 161.176 37.6581 160.773 37.6581ZM160.402 35.9833C160.402 36.1916 160.477 36.3495 160.626 36.4569C160.779 36.5611 160.971 36.6132 161.203 36.6132C161.535 36.6132 161.806 36.5171 162.018 36.3251C162.233 36.133 162.34 35.8938 162.34 35.6073V35.0262C162.282 35.0653 162.189 35.1011 162.062 35.1337C161.938 35.1662 161.806 35.1939 161.666 35.2167C161.526 35.2362 161.401 35.2541 161.29 35.2704C161.023 35.3094 160.809 35.3859 160.646 35.4999C160.483 35.6106 160.402 35.7717 160.402 35.9833ZM165.555 37.5555V32.0966H167.069V37.5555H165.555ZM166.312 31.3983C166.087 31.3983 165.894 31.3234 165.731 31.1737C165.571 31.024 165.492 30.8433 165.492 30.6317C165.492 30.4201 165.571 30.2411 165.731 30.0946C165.894 29.9449 166.087 29.87 166.312 29.87C166.536 29.87 166.729 29.9449 166.888 30.0946C167.051 30.2411 167.132 30.4201 167.132 30.6317C167.132 30.8433 167.051 31.024 166.888 31.1737C166.729 31.3234 166.536 31.3983 166.312 31.3983ZM171.241 37.663C170.69 37.663 170.214 37.5458 169.81 37.3114C169.41 37.0738 169.1 36.745 168.882 36.3251C168.667 35.9019 168.56 35.4104 168.56 34.8505C168.56 34.2873 168.667 33.7941 168.882 33.371C169.1 32.9478 169.41 32.619 169.81 32.3846C170.214 32.147 170.69 32.0282 171.241 32.0282C171.794 32.0282 172.271 32.147 172.671 32.3846C173.075 32.619 173.384 32.9478 173.599 33.371C173.817 33.7941 173.926 34.2873 173.926 34.8505C173.926 35.4104 173.817 35.9019 173.599 36.3251C173.384 36.745 173.075 37.0738 172.671 37.3114C172.271 37.5458 171.794 37.663 171.241 37.663ZM170.098 34.8407C170.098 35.316 170.194 35.7082 170.386 36.0175C170.578 36.3267 170.865 36.4813 171.245 36.4813C171.623 36.4813 171.908 36.3267 172.1 36.0175C172.292 35.7082 172.388 35.316 172.388 34.8407C172.388 34.3654 172.292 33.9748 172.1 33.6688C171.908 33.3628 171.623 33.2098 171.245 33.2098C170.865 33.2098 170.578 33.3628 170.386 33.6688C170.194 33.9748 170.098 34.3654 170.098 34.8407ZM175.422 37.5555V32.0966H176.887V33.0536H176.946C177.043 32.715 177.209 32.4595 177.444 32.287C177.678 32.1112 177.948 32.0233 178.254 32.0233C178.329 32.0233 178.411 32.0282 178.498 32.038C178.586 32.0477 178.663 32.0608 178.728 32.077V33.4149C178.656 33.3921 178.557 33.3742 178.43 33.3612C178.306 33.3449 178.192 33.3368 178.088 33.3368C177.756 33.3368 177.481 33.4426 177.263 33.6542C177.045 33.8625 176.936 34.1343 176.936 34.4696V37.5555H175.422ZM187.921 32.0966L186.012 37.5555H184.303L182.404 32.0966H184.005L185.153 36.0077H185.211L186.339 32.0966H187.921ZM190.755 37.6581C190.234 37.6581 189.801 37.523 189.456 37.2528C189.115 36.9794 188.944 36.5725 188.944 36.0321C188.944 35.6252 189.038 35.3062 189.227 35.0751C189.419 34.8407 189.671 34.6698 189.984 34.5624C190.296 34.4517 190.632 34.3801 190.99 34.3475C191.465 34.302 191.803 34.2548 192.005 34.2059C192.21 34.1538 192.313 34.0399 192.313 33.8641V33.8397C192.313 33.6151 192.241 33.441 192.098 33.3173C191.955 33.1936 191.748 33.1317 191.478 33.1317C191.208 33.1317 190.986 33.1903 190.814 33.3075C190.645 33.4247 190.532 33.5744 190.477 33.7567L189.1 33.537C189.23 33.0617 189.504 32.6923 189.92 32.4286C190.34 32.1617 190.861 32.0282 191.483 32.0282C191.886 32.0282 192.266 32.0917 192.62 32.2186C192.979 32.3456 193.268 32.5458 193.49 32.8192C193.711 33.0894 193.822 33.441 193.822 33.8739V37.5555H192.391V36.7938H192.347C192.214 37.051 192.015 37.2593 191.751 37.4188C191.491 37.5783 191.159 37.6581 190.755 37.6581ZM190.384 35.9833C190.384 36.1916 190.459 36.3495 190.609 36.4569C190.762 36.5611 190.954 36.6132 191.185 36.6132C191.517 36.6132 191.789 36.5171 192 36.3251C192.215 36.133 192.323 35.8938 192.323 35.6073V35.0262C192.264 35.0653 192.171 35.1011 192.044 35.1337C191.921 35.1662 191.789 35.1939 191.649 35.2167C191.509 35.2362 191.384 35.2541 191.273 35.2704C191.006 35.3094 190.791 35.3859 190.628 35.4999C190.466 35.6106 190.384 35.7717 190.384 35.9833ZM195.537 37.5555V32.0966H197.002V33.0536H197.061C197.159 32.715 197.325 32.4595 197.559 32.287C197.793 32.1112 198.064 32.0233 198.37 32.0233C198.444 32.0233 198.526 32.0282 198.614 32.038C198.702 32.0477 198.778 32.0608 198.843 32.077V33.4149C198.772 33.3921 198.672 33.3742 198.545 33.3612C198.422 33.3449 198.308 33.3368 198.203 33.3368C197.871 33.3368 197.596 33.4426 197.378 33.6542C197.16 33.8625 197.051 34.1343 197.051 34.4696V37.5555H195.537ZM200.129 37.5555V32.0966H201.643V37.5555H200.129ZM200.886 31.3983C200.661 31.3983 200.468 31.3234 200.305 31.1737C200.146 31.024 200.066 30.8433 200.066 30.6317C200.066 30.4201 200.146 30.2411 200.305 30.0946C200.468 29.9449 200.661 29.87 200.886 29.87C201.111 29.87 201.303 29.9449 201.462 30.0946C201.625 30.2411 201.706 30.4201 201.706 30.6317C201.706 30.8433 201.625 31.024 201.462 31.1737C201.303 31.3234 201.111 31.3983 200.886 31.3983ZM205.839 37.663C205.279 37.663 204.798 37.549 204.394 37.3212C203.99 37.0933 203.679 36.7694 203.461 36.3495C203.243 35.9263 203.134 35.4266 203.134 34.8505C203.134 34.2906 203.242 33.799 203.456 33.3759C203.675 32.9527 203.981 32.6223 204.374 32.3846C204.768 32.147 205.232 32.0282 205.766 32.0282C206.248 32.0282 206.682 32.1307 207.07 32.3358C207.46 32.5409 207.77 32.8485 207.997 33.2587C208.229 33.6688 208.344 34.1831 208.344 34.8016V35.2118H204.623C204.64 35.6252 204.76 35.9491 204.985 36.1835C205.209 36.4178 205.502 36.535 205.864 36.535C206.114 36.535 206.329 36.4813 206.508 36.3739C206.69 36.2665 206.821 36.1102 206.899 35.9052L208.295 35.9979C208.188 36.4992 207.919 36.9029 207.49 37.2089C207.063 37.5116 206.513 37.663 205.839 37.663ZM204.633 34.2792H206.894C206.858 33.9341 206.747 33.6607 206.562 33.4589C206.376 33.257 206.116 33.1561 205.781 33.1561C205.442 33.1561 205.174 33.2619 204.975 33.4735C204.78 33.6818 204.666 33.9504 204.633 34.2792ZM211.837 37.6434C211.421 37.6434 211.045 37.536 210.709 37.3212C210.374 37.1063 210.109 36.7906 209.913 36.3739C209.718 35.954 209.62 35.4413 209.62 34.8358C209.62 34.2108 209.721 33.69 209.923 33.2733C210.125 32.8566 210.394 32.5458 210.729 32.3407C211.064 32.1324 211.43 32.0282 211.828 32.0282C212.134 32.0282 212.389 32.0803 212.594 32.1844C212.799 32.2854 212.965 32.4123 213.092 32.5653C213.219 32.7183 213.315 32.8697 213.38 33.0194H213.424V30.2802H214.938V37.5555H213.449V36.6815H213.38C213.312 36.8313 213.213 36.981 213.082 37.1307C212.952 37.2772 212.785 37.3993 212.579 37.4969C212.378 37.5946 212.13 37.6434 211.837 37.6434ZM213.458 34.8309C213.458 34.3427 213.359 33.9537 213.161 33.6639C212.962 33.3742 212.679 33.2294 212.311 33.2294C211.937 33.2294 211.652 33.3775 211.456 33.6737C211.264 33.9699 211.168 34.3557 211.168 34.8309C211.168 35.3029 211.266 35.6903 211.461 35.993C211.657 36.2925 211.94 36.4423 212.311 36.4423C212.675 36.4423 212.957 36.2941 213.156 35.9979C213.357 35.7017 213.458 35.3127 213.458 34.8309ZM218.206 37.6581C217.686 37.6581 217.253 37.523 216.908 37.2528C216.566 36.9794 216.395 36.5725 216.395 36.0321C216.395 35.6252 216.489 35.3062 216.678 35.0751C216.87 34.8407 217.122 34.6698 217.435 34.5624C217.747 34.4517 218.083 34.3801 218.441 34.3475C218.916 34.302 219.255 34.2548 219.456 34.2059C219.661 34.1538 219.764 34.0399 219.764 33.8641V33.8397C219.764 33.6151 219.692 33.441 219.549 33.3173C219.406 33.1936 219.199 33.1317 218.929 33.1317C218.659 33.1317 218.438 33.1903 218.265 33.3075C218.096 33.4247 217.983 33.5744 217.928 33.7567L216.551 33.537C216.681 33.0617 216.955 32.6923 217.371 32.4286C217.791 32.1617 218.312 32.0282 218.934 32.0282C219.338 32.0282 219.717 32.0917 220.072 32.2186C220.43 32.3456 220.719 32.5458 220.941 32.8192C221.162 33.0894 221.273 33.441 221.273 33.8739V37.5555H219.842V36.7938H219.798C219.665 37.051 219.466 37.2593 219.203 37.4188C218.942 37.5783 218.61 37.6581 218.206 37.6581ZM217.835 35.9833C217.835 36.1916 217.91 36.3495 218.06 36.4569C218.213 36.5611 218.405 36.6132 218.636 36.6132C218.968 36.6132 219.24 36.5171 219.452 36.3251C219.666 36.133 219.774 35.8938 219.774 35.6073V35.0262C219.715 35.0653 219.622 35.1011 219.495 35.1337C219.372 35.1662 219.24 35.1939 219.1 35.2167C218.96 35.2362 218.835 35.2541 218.724 35.2704C218.457 35.3094 218.242 35.3859 218.079 35.4999C217.917 35.6106 217.835 35.7717 217.835 35.9833ZM224.986 37.6434C224.569 37.6434 224.193 37.536 223.858 37.3212C223.523 37.1063 223.257 36.7906 223.062 36.3739C222.867 35.954 222.769 35.4413 222.769 34.8358C222.769 34.2108 222.87 33.69 223.072 33.2733C223.273 32.8566 223.542 32.5458 223.877 32.3407C224.213 32.1324 224.579 32.0282 224.976 32.0282C225.282 32.0282 225.537 32.0803 225.743 32.1844C225.948 32.2854 226.114 32.4123 226.241 32.5653C226.368 32.7183 226.464 32.8697 226.529 33.0194H226.573V30.2802H228.086V37.5555H226.597V36.6815H226.529C226.46 36.8313 226.361 36.981 226.231 37.1307C226.101 37.2772 225.933 37.3993 225.728 37.4969C225.526 37.5946 225.279 37.6434 224.986 37.6434ZM226.607 34.8309C226.607 34.3427 226.508 33.9537 226.309 33.6639C226.11 33.3742 225.827 33.2294 225.459 33.2294C225.085 33.2294 224.8 33.3775 224.605 33.6737C224.413 33.9699 224.317 34.3557 224.317 34.8309C224.317 35.3029 224.414 35.6903 224.61 35.993C224.805 36.2925 225.088 36.4423 225.459 36.4423C225.824 36.4423 226.106 36.2941 226.304 35.9979C226.506 35.7017 226.607 35.3127 226.607 34.8309ZM232.283 37.663C231.723 37.663 231.241 37.549 230.837 37.3212C230.434 37.0933 230.123 36.7694 229.905 36.3495C229.687 35.9263 229.578 35.4266 229.578 34.8505C229.578 34.2906 229.685 33.799 229.9 33.3759C230.118 32.9527 230.424 32.6223 230.818 32.3846C231.212 32.147 231.675 32.0282 232.209 32.0282C232.691 32.0282 233.126 32.1307 233.513 32.3358C233.904 32.5409 234.213 32.8485 234.441 33.2587C234.672 33.6688 234.787 34.1831 234.787 34.8016V35.2118H231.067C231.083 35.6252 231.203 35.9491 231.428 36.1835C231.653 36.4178 231.946 36.535 232.307 36.535C232.558 36.535 232.773 36.4813 232.952 36.3739C233.134 36.2665 233.264 36.1102 233.342 35.9052L234.739 35.9979C234.631 36.4992 234.363 36.9029 233.933 37.2089C233.507 37.5116 232.956 37.663 232.283 37.663ZM231.077 34.2792H233.337C233.301 33.9341 233.191 33.6607 233.005 33.4589C232.82 33.257 232.559 33.1561 232.224 33.1561C231.885 33.1561 231.617 33.2619 231.418 33.4735C231.223 33.6818 231.109 33.9504 231.077 34.2792ZM241.105 37.6434C240.688 37.6434 240.312 37.536 239.977 37.3212C239.642 37.1063 239.376 36.7906 239.181 36.3739C238.986 35.954 238.888 35.4413 238.888 34.8358C238.888 34.2108 238.989 33.69 239.191 33.2733C239.393 32.8566 239.661 32.5458 239.996 32.3407C240.332 32.1324 240.698 32.0282 241.095 32.0282C241.401 32.0282 241.657 32.0803 241.862 32.1844C242.067 32.2854 242.233 32.4123 242.36 32.5653C242.487 32.7183 242.583 32.8697 242.648 33.0194H242.692V30.2802H244.205V37.5555H242.716V36.6815H242.648C242.579 36.8313 242.48 36.981 242.35 37.1307C242.22 37.2772 242.052 37.3993 241.847 37.4969C241.645 37.5946 241.398 37.6434 241.105 37.6434ZM242.726 34.8309C242.726 34.3427 242.627 33.9537 242.428 33.6639C242.23 33.3742 241.946 33.2294 241.578 33.2294C241.204 33.2294 240.919 33.3775 240.724 33.6737C240.532 33.9699 240.436 34.3557 240.436 34.8309C240.436 35.3029 240.534 35.6903 240.729 35.993C240.924 36.2925 241.207 36.4423 241.578 36.4423C241.943 36.4423 242.225 36.2941 242.423 35.9979C242.625 35.7017 242.726 35.3127 242.726 34.8309ZM248.402 37.663C247.842 37.663 247.36 37.549 246.956 37.3212C246.553 37.0933 246.242 36.7694 246.024 36.3495C245.806 35.9263 245.697 35.4266 245.697 34.8505C245.697 34.2906 245.804 33.799 246.019 33.3759C246.237 32.9527 246.543 32.6223 246.937 32.3846C247.331 32.147 247.795 32.0282 248.328 32.0282C248.81 32.0282 249.245 32.1307 249.632 32.3358C250.023 32.5409 250.332 32.8485 250.56 33.2587C250.791 33.6688 250.907 34.1831 250.907 34.8016V35.2118H247.186C247.202 35.6252 247.323 35.9491 247.547 36.1835C247.772 36.4178 248.065 36.535 248.426 36.535C248.677 36.535 248.892 36.4813 249.071 36.3739C249.253 36.2665 249.383 36.1102 249.461 35.9052L250.858 35.9979C250.75 36.4992 250.482 36.9029 250.052 37.2089C249.626 37.5116 249.076 37.663 248.402 37.663ZM247.196 34.2792H249.456C249.421 33.9341 249.31 33.6607 249.124 33.4589C248.939 33.257 248.678 33.1561 248.343 33.1561C248.005 33.1561 247.736 33.2619 247.537 33.4735C247.342 33.6818 247.228 33.9504 247.196 34.2792ZM255.583 37.5555V33.2391H254.817V32.0966H255.583V31.701C255.583 31.1119 255.753 30.6708 256.091 30.3778C256.433 30.0848 256.859 29.9384 257.37 29.9384C257.605 29.9384 257.818 29.9579 258.01 29.9969C258.205 30.0328 258.349 30.0637 258.44 30.0897L258.171 31.2225C258.113 31.2063 258.041 31.19 257.956 31.1737C257.872 31.1574 257.782 31.1493 257.688 31.1493C257.467 31.1493 257.31 31.2014 257.219 31.3055C257.131 31.4065 257.087 31.5497 257.087 31.7352V32.0966H258.176V33.2391H257.087V37.5555H255.583ZM263.1 35.2362V32.0966H264.614V37.5555H263.159V36.5643H263.1C262.98 36.8833 262.776 37.1405 262.49 37.3358C262.206 37.5311 261.86 37.6272 261.45 37.6239C260.899 37.6272 260.453 37.4465 260.112 37.0819C259.773 36.7141 259.604 36.2111 259.604 35.5731V32.0966H261.118V35.3094C261.118 35.6285 261.204 35.8824 261.376 36.0712C261.549 36.2567 261.778 36.3479 262.065 36.3446C262.335 36.3479 262.574 36.2551 262.783 36.0663C262.994 35.8775 263.1 35.6008 263.1 35.2362ZM267.838 34.4012V37.5555H266.325V32.0966H267.814V33.0682H267.868C267.991 32.7492 268.188 32.4969 268.458 32.3114C268.729 32.1226 269.065 32.0282 269.469 32.0282C270.039 32.0282 270.495 32.2121 270.836 32.58C271.181 32.9445 271.354 33.4458 271.354 34.0839V37.5555H269.84V34.3524C269.84 34.0171 269.754 33.7551 269.581 33.5663C269.412 33.3775 269.176 33.2831 268.873 33.2831C268.567 33.2831 268.318 33.3824 268.126 33.5809C267.934 33.7762 267.838 34.0497 267.838 34.4012ZM275.526 37.663C274.966 37.663 274.486 37.5441 274.085 37.3065C273.685 37.0689 273.377 36.7385 273.162 36.3153C272.951 35.8921 272.845 35.4038 272.845 34.8505C272.845 34.2906 272.953 33.799 273.167 33.3759C273.385 32.9527 273.695 32.6223 274.095 32.3846C274.495 32.147 274.971 32.0282 275.521 32.0282C275.996 32.0282 276.413 32.1145 276.771 32.287C277.129 32.4595 277.412 32.702 277.62 33.0145C277.829 33.327 277.943 33.6949 277.962 34.118H276.536C276.494 33.8479 276.388 33.6298 276.219 33.4637C276.05 33.2945 275.825 33.2098 275.545 33.2098C275.194 33.2098 274.912 33.3514 274.701 33.6346C274.489 33.9146 274.383 34.3134 274.383 34.8309C274.383 35.3518 274.487 35.757 274.696 36.0468C274.907 36.3365 275.19 36.4813 275.545 36.4813C275.806 36.4813 276.025 36.3999 276.204 36.2372C276.384 36.0744 276.494 35.8466 276.536 35.5536H277.962C277.939 35.9703 277.827 36.3381 277.625 36.6571C277.424 36.9729 277.144 37.2203 276.786 37.3993C276.431 37.5751 276.011 37.663 275.526 37.663ZM275.169 37.5262H275.868L275.809 37.8387C276.053 37.8746 276.253 37.9641 276.41 38.1073C276.566 38.2538 276.646 38.4524 276.649 38.703C276.649 39.0546 276.484 39.3345 276.156 39.5428C275.827 39.7512 275.363 39.8553 274.764 39.8553L274.754 39.1815C275.054 39.1815 275.288 39.1441 275.457 39.0692C275.63 38.9976 275.718 38.8869 275.721 38.7372C275.731 38.4703 275.495 38.3075 275.013 38.2489L275.169 37.5262ZM281.905 37.663C281.355 37.663 280.878 37.5458 280.474 37.3114C280.074 37.0738 279.764 36.745 279.546 36.3251C279.331 35.9019 279.224 35.4104 279.224 34.8505C279.224 34.2873 279.331 33.7941 279.546 33.371C279.764 32.9478 280.074 32.619 280.474 32.3846C280.878 32.147 281.355 32.0282 281.905 32.0282C282.458 32.0282 282.935 32.147 283.335 32.3846C283.739 32.619 284.048 32.9478 284.263 33.371C284.481 33.7941 284.59 34.2873 284.59 34.8505C284.59 35.4104 284.481 35.9019 284.263 36.3251C284.048 36.745 283.739 37.0738 283.335 37.3114C282.935 37.5458 282.458 37.663 281.905 37.663ZM280.762 34.8407C280.762 35.316 280.858 35.7082 281.05 36.0175C281.242 36.3267 281.529 36.4813 281.91 36.4813C282.287 36.4813 282.572 36.3267 282.764 36.0175C282.956 35.7082 283.052 35.316 283.052 34.8407C283.052 34.3654 282.956 33.9748 282.764 33.6688C282.572 33.3628 282.287 33.2098 281.91 33.2098C281.529 33.2098 281.242 33.3628 281.05 33.6688C280.858 33.9748 280.762 34.3654 280.762 34.8407ZM282.593 31.4081C282.382 31.4081 282.201 31.3658 282.051 31.2811C281.901 31.1932 281.77 31.107 281.656 31.0223C281.542 30.9377 281.433 30.8954 281.328 30.8954C281.228 30.8954 281.149 30.941 281.094 31.0321C281.042 31.12 281.013 31.2356 281.006 31.3788H280.186C280.196 30.9556 280.293 30.6317 280.479 30.4071C280.668 30.1792 280.915 30.0653 281.221 30.0653C281.436 30.0653 281.615 30.1076 281.758 30.1923C281.905 30.2769 282.033 30.3615 282.144 30.4462C282.258 30.5308 282.37 30.5731 282.481 30.5731C282.595 30.5731 282.676 30.5324 282.725 30.451C282.777 30.3697 282.808 30.2492 282.818 30.0897H283.623C283.617 30.5129 283.516 30.8384 283.321 31.0663C283.129 31.2941 282.886 31.4081 282.593 31.4081ZM288.572 37.663C288.012 37.663 287.53 37.549 287.126 37.3212C286.723 37.0933 286.412 36.7694 286.194 36.3495C285.976 35.9263 285.867 35.4266 285.867 34.8505C285.867 34.2906 285.974 33.799 286.189 33.3759C286.407 32.9527 286.713 32.6223 287.107 32.3846C287.501 32.147 287.965 32.0282 288.498 32.0282C288.98 32.0282 289.415 32.1307 289.802 32.3358C290.193 32.5409 290.502 32.8485 290.73 33.2587C290.961 33.6688 291.077 34.1831 291.077 34.8016V35.2118H287.356C287.372 35.6252 287.493 35.9491 287.717 36.1835C287.942 36.4178 288.235 36.535 288.596 36.535C288.847 36.535 289.062 36.4813 289.241 36.3739C289.423 36.2665 289.553 36.1102 289.631 35.9052L291.028 35.9979C290.92 36.4992 290.652 36.9029 290.222 37.2089C289.796 37.5116 289.245 37.663 288.572 37.663ZM287.366 34.2792H289.626C289.591 33.9341 289.48 33.6607 289.294 33.4589C289.109 33.257 288.848 33.1561 288.513 33.1561C288.175 33.1561 287.906 33.2619 287.707 33.4735C287.512 33.6818 287.398 33.9504 287.366 34.2792ZM297.104 33.6542L295.727 33.7372C295.688 33.5647 295.59 33.4165 295.434 33.2928C295.281 33.1659 295.073 33.1024 294.809 33.1024C294.575 33.1024 294.378 33.1512 294.218 33.2489C294.059 33.3466 293.979 33.4768 293.979 33.6395C293.979 33.7697 294.031 33.8804 294.135 33.9716C294.239 34.0627 294.417 34.1359 294.667 34.1913L295.659 34.3866C296.707 34.5949 297.231 35.0865 297.231 35.8612C297.231 36.2225 297.127 36.5383 296.918 36.8085C296.71 37.0787 296.424 37.2886 296.059 37.4384C295.694 37.5881 295.276 37.663 294.804 37.663C294.081 37.663 293.507 37.5132 293.08 37.2137C292.654 36.911 292.403 36.4992 292.328 35.9784L293.813 35.9003C293.914 36.3495 294.246 36.5741 294.809 36.5741C295.073 36.5741 295.286 36.522 295.449 36.4178C295.611 36.3137 295.693 36.1818 295.693 36.0223C295.693 35.7522 295.46 35.5699 294.995 35.4755L294.052 35.2802C293.001 35.0686 292.475 34.551 292.475 33.7274C292.475 33.2001 292.685 32.785 293.105 32.4823C293.528 32.1796 294.088 32.0282 294.785 32.0282C295.475 32.0282 296.018 32.1747 296.415 32.4677C296.813 32.7574 297.042 33.1529 297.104 33.6542ZM299.772 37.6483C299.531 37.6483 299.328 37.5669 299.161 37.4042C298.995 37.2382 298.912 37.0363 298.912 36.7987C298.912 36.5578 298.995 36.356 299.161 36.1932C299.328 36.0305 299.531 35.9491 299.772 35.9491C300.013 35.9491 300.216 36.0305 300.382 36.1932C300.548 36.356 300.631 36.5578 300.631 36.7987C300.631 37.0363 300.548 37.2382 300.382 37.4042C300.216 37.5669 300.013 37.6483 299.772 37.6483Z" fill="#878787"/>
</svg>
