<svg width="16" height="16" viewBox="0 0 16 16" fill="none" xmlns="http://www.w3.org/2000/svg">
<path d="M5.53695 2.18912V5.62931C5.52507 5.90224 5.40964 6.16 5.21472 6.34887C5.0198 6.53775 4.76043 6.64317 4.49065 6.64317C4.22087 6.64317 3.96149 6.53775 3.76657 6.34887C3.57166 6.16 3.45623 5.90224 3.44434 5.62931V4.63051C2.9193 5.31609 2.55994 6.11655 2.39499 6.96791C2.37362 7.10921 2.32426 7.24467 2.24988 7.36617C2.1755 7.48766 2.07763 7.59268 1.96216 7.6749C1.84669 7.75713 1.716 7.81487 1.57793 7.84465C1.43987 7.87443 1.29728 7.87564 1.15875 7.84821C1.02021 7.82077 0.888576 7.76526 0.771759 7.68501C0.654943 7.60476 0.555352 7.50142 0.478972 7.3812C0.402592 7.26099 0.350998 7.12638 0.327291 6.98546C0.303584 6.84454 0.308252 6.70022 0.341016 6.56118C0.575161 5.34961 1.09415 4.21302 1.85404 3.24764H1.09346C0.952177 3.25395 0.811095 3.23122 0.678723 3.18081C0.54635 3.13041 0.425428 3.05338 0.32325 2.95437C0.221071 2.85536 0.139752 2.73642 0.0841968 2.60473C0.0286413 2.47303 0 2.3313 0 2.18809C0 2.04488 0.0286413 1.90315 0.0841968 1.77145C0.139752 1.63976 0.221071 1.52082 0.32325 1.42181C0.425428 1.3228 0.54635 1.24577 0.678723 1.19537C0.811095 1.14496 0.952177 1.12223 1.09346 1.12854H4.48963C4.62717 1.12854 4.76335 1.15597 4.89042 1.20927C5.01749 1.26257 5.13294 1.34069 5.2302 1.43918C5.32745 1.53766 5.4046 1.65458 5.45723 1.78325C5.50986 1.91193 5.53695 2.04984 5.53695 2.18912ZM2.2323 11.7004C2.10673 11.7569 1.97138 11.7879 1.83398 11.7915C1.69658 11.795 1.55984 11.7711 1.43159 11.7211C1.30333 11.6711 1.18607 11.5959 1.08653 11.5C0.98698 11.404 0.9071 11.2891 0.851458 11.1618C0.700423 10.8161 0.574677 10.4595 0.475236 10.0951C0.431227 9.95883 0.414948 9.81496 0.427382 9.67217C0.439817 9.52938 0.480707 9.39062 0.547582 9.26428C0.614457 9.13794 0.705929 9.02664 0.816472 8.9371C0.927015 8.84757 1.05434 8.78165 1.19074 8.74334C1.32714 8.70503 1.4698 8.69511 1.6101 8.7142C1.75039 8.73328 1.88541 8.78097 2.00699 8.85438C2.12858 8.92779 2.2342 9.02539 2.31749 9.1413C2.40078 9.25721 2.46001 9.38901 2.49158 9.52874C2.56407 9.7929 2.65548 10.0514 2.76511 10.302C2.82083 10.4293 2.85124 10.5664 2.85462 10.7055C2.85799 10.8447 2.83426 10.9831 2.78478 11.113C2.7353 11.2428 2.66104 11.3615 2.56625 11.4623C2.47145 11.5631 2.35797 11.644 2.2323 11.7004ZM5.18615 14.2118C5.11299 14.3297 5.01756 14.4319 4.90534 14.5124C4.79311 14.5929 4.6663 14.6502 4.53217 14.681C4.39803 14.7118 4.25921 14.7155 4.12367 14.6919C3.98812 14.6683 3.85851 14.6178 3.74227 14.5433C3.42654 14.3421 3.12578 14.1177 2.84239 13.872C2.64246 13.6859 2.52169 13.4285 2.50556 13.154C2.48943 12.8796 2.57919 12.6095 2.75592 12.4007C2.93264 12.192 3.18252 12.0609 3.45285 12.0351C3.72317 12.0093 3.99282 12.0909 4.20492 12.2626C4.41077 12.4409 4.6293 12.6037 4.85873 12.7496C5.09353 12.8996 5.25991 13.1379 5.32131 13.4121C5.3827 13.6862 5.33409 13.9739 5.18615 14.2118ZM8.92804 14.6628C8.93184 14.9437 8.8254 15.2147 8.6321 15.4162C8.43879 15.6178 8.1744 15.7334 7.89698 15.7378H7.7892C7.51371 15.7378 7.23843 15.7227 6.96456 15.6925C6.69738 15.6514 6.4562 15.5074 6.29145 15.2904C6.12671 15.0735 6.05114 14.8005 6.08055 14.5285C6.10996 14.2564 6.24207 14.0064 6.44927 13.8307C6.65646 13.655 6.9227 13.5672 7.19233 13.5857C7.41653 13.6104 7.64201 13.621 7.8675 13.6176H7.88173C8.15688 13.6176 8.42098 13.7272 8.61696 13.9228C8.81294 14.1184 8.92403 14.3842 8.92804 14.6628ZM8.96261 1.43436C8.95728 1.71188 8.84474 1.97623 8.64912 2.17066C8.4535 2.3651 8.19041 2.47413 7.9163 2.47434H7.88275C7.60498 2.47202 7.3395 2.35806 7.14471 2.15752C6.94992 1.95698 6.84178 1.6863 6.84407 1.40501C6.84636 1.12373 6.9589 0.854889 7.15693 0.657633C7.35497 0.460377 7.62227 0.350864 7.90003 0.353186H7.91732L7.93664 0.354215C8.21424 0.359894 8.47826 0.476973 8.67065 0.679714C8.86304 0.882456 8.96806 1.15427 8.96261 1.43539V1.43436ZM12.253 13.0184C12.3282 13.135 12.38 13.2654 12.4054 13.4023C12.4307 13.5392 12.4292 13.6798 12.4009 13.816C12.3726 13.9523 12.318 14.0816 12.2403 14.1965C12.1625 14.3114 12.0632 14.4097 11.948 14.4857C11.6875 14.6578 11.4169 14.8136 11.1376 14.9521C11.0135 15.0195 10.8773 15.0608 10.7371 15.0736C10.5968 15.0865 10.4555 15.0705 10.3215 15.0268C10.1875 14.9831 10.0636 14.9124 9.95716 14.8191C9.85073 14.7258 9.76398 14.6117 9.70208 14.4836C9.64019 14.3556 9.60443 14.2162 9.59693 14.0738C9.58944 13.9314 9.61037 13.789 9.65847 13.655C9.70657 13.521 9.78085 13.3982 9.87688 13.294C9.97291 13.1897 10.0887 13.1061 10.2174 13.0482C10.4198 12.9478 10.6161 12.835 10.8051 12.7105C11.0376 12.5573 11.3207 12.5037 11.5921 12.5617C11.8636 12.6196 12.1013 12.7832 12.253 13.0184ZM10.2326 1.7999C10.3744 1.55839 10.605 1.38377 10.8739 1.31445C11.1427 1.24513 11.4278 1.28678 11.6663 1.43024L11.6846 1.44157C11.809 1.50984 11.9184 1.6029 12.0062 1.71515C12.0941 1.82739 12.1586 1.9565 12.1958 2.09467C12.233 2.23284 12.2422 2.37722 12.2229 2.5191C12.2035 2.66098 12.156 2.79742 12.0831 2.92019C12.0103 3.04295 11.9136 3.14951 11.799 3.23342C11.6844 3.31733 11.5542 3.37686 11.4162 3.40842C11.2783 3.43999 11.1354 3.44292 10.9963 3.41706C10.8572 3.3912 10.7247 3.33707 10.6068 3.25794L10.5966 3.25176C10.3583 3.10805 10.1861 2.87439 10.1178 2.60214C10.0496 2.32989 10.0909 2.04133 10.2326 1.7999ZM14.5643 11.5253C14.4657 11.7221 14.3588 11.9144 14.244 12.1019C14.174 12.2255 14.0802 12.3335 13.9681 12.4195C13.8561 12.5055 13.7281 12.5678 13.5917 12.6027C13.4554 12.6375 13.3135 12.6442 13.1745 12.6224C13.0356 12.6005 12.9024 12.5505 12.7829 12.4754C12.6635 12.4003 12.5602 12.3015 12.4792 12.1851C12.3982 12.0687 12.3412 11.937 12.3116 11.7978C12.282 11.6585 12.2803 11.5147 12.3068 11.3749C12.3332 11.235 12.3872 11.102 12.4655 10.9837C12.5491 10.8484 12.6265 10.7092 12.6974 10.5667C12.7558 10.4363 12.8396 10.3193 12.9438 10.2227C13.048 10.1261 13.1705 10.0518 13.3038 10.0043C13.4372 9.95687 13.5786 9.93723 13.7196 9.94659C13.8606 9.95595 13.9983 9.99411 14.1244 10.0588C14.2504 10.1234 14.3623 10.2133 14.4531 10.3229C14.544 10.4325 14.6121 10.5595 14.6532 10.6965C14.6943 10.8334 14.7076 10.9773 14.6923 11.1196C14.677 11.2618 14.6335 11.3995 14.5643 11.5243V11.5253ZM12.5723 5.29363C12.4487 5.05023 12.4228 4.76786 12.5001 4.50558C12.5773 4.24329 12.7517 4.0214 12.9867 3.8863C13.2218 3.7512 13.4993 3.71334 13.7613 3.78065C14.0233 3.84796 14.2494 4.01523 14.3924 4.24747L14.4005 4.26085C14.4743 4.38213 14.5231 4.5172 14.5441 4.658C14.5652 4.7988 14.558 4.94245 14.5231 5.08039C14.4881 5.21832 14.4261 5.34772 14.3407 5.46086C14.2553 5.57399 14.1483 5.66855 14.026 5.7389C13.9037 5.80925 13.7687 5.85394 13.629 5.87031C13.4893 5.88668 13.3478 5.8744 13.2129 5.83419C13.078 5.79398 12.9525 5.72667 12.8438 5.63628C12.7352 5.54588 12.6456 5.43425 12.5804 5.30805L12.5723 5.29363ZM15.3828 7.85447C15.3852 7.98008 15.3852 8.10572 15.3828 8.23133C15.3762 8.50795 15.263 8.77099 15.0676 8.96433C14.8721 9.15767 14.6097 9.26598 14.3365 9.26617H14.3111C14.0334 9.25916 13.7699 9.14078 13.5785 8.93706C13.3871 8.73335 13.2834 8.46098 13.2902 8.17985C13.2928 8.08857 13.2928 7.99723 13.2902 7.90595C13.2834 7.62499 13.3869 7.35278 13.5781 7.14909C13.7694 6.94541 14.0326 6.82691 14.31 6.81963H14.3365C14.6096 6.81981 14.8718 6.92799 15.0672 7.1211C15.2627 7.31422 15.3759 7.57803 15.3828 7.85447Z" fill="white"/>
</svg>
