<svg width="61" height="16" viewBox="0 0 61 16" fill="none" xmlns="http://www.w3.org/2000/svg">
<path d="M2.056 8.51948C2.056 9.04214 2.17867 9.51148 2.424 9.92748C2.68 10.3328 3.016 10.6528 3.432 10.8875C3.848 11.1221 4.31733 11.2395 4.84 11.2395C5.384 11.2395 5.86933 11.1221 6.296 10.8875C6.72267 10.6528 7.05867 10.3328 7.304 9.92748C7.54933 9.51148 7.672 9.04214 7.672 8.51948V1.04748H9.192V8.56748C9.192 9.41014 8.99467 10.1461 8.6 10.7755C8.216 11.4048 7.69333 11.8901 7.032 12.2315C6.38133 12.5728 5.65067 12.7435 4.84 12.7435C4.02933 12.7435 3.29867 12.5728 2.648 12.2315C1.99733 11.8901 1.48 11.4048 1.096 10.7755C0.712 10.1461 0.52 9.41014 0.52 8.56748V1.04748H2.056V8.51948ZM16.2231 12.7755C15.7218 12.7755 15.2365 12.6581 14.7671 12.4235C14.3085 12.1888 13.9511 11.8741 13.6951 11.4795L13.7911 11.0155V15.7995H12.3191V5.89548H13.5991L13.8071 7.59148L13.6471 7.12748C13.9671 6.72214 14.3725 6.38614 14.8631 6.11948C15.3538 5.85281 15.9031 5.71948 16.5111 5.71948C17.1298 5.71948 17.6845 5.86881 18.1751 6.16748C18.6765 6.46614 19.0711 6.88214 19.3591 7.41548C19.6471 7.94881 19.7911 8.57281 19.7911 9.28748C19.7911 10.0021 19.6365 10.6208 19.3271 11.1435C19.0178 11.6661 18.5911 12.0715 18.0471 12.3595C17.5138 12.6368 16.9058 12.7755 16.2231 12.7755ZM15.9351 11.5915C16.3618 11.5915 16.7511 11.4955 17.1031 11.3035C17.4658 11.1008 17.7538 10.8288 17.9671 10.4875C18.1805 10.1355 18.2871 9.74081 18.2871 9.30348C18.2871 8.85548 18.1858 8.46081 17.9831 8.11948C17.7805 7.76748 17.5085 7.49015 17.1671 7.28748C16.8365 7.08481 16.4631 6.98348 16.0471 6.98348C15.6631 6.98348 15.3165 7.05814 15.0071 7.20748C14.6978 7.35681 14.4418 7.56481 14.2391 7.83148C14.0365 8.08748 13.8925 8.38615 13.8071 8.72748V9.83148C13.8605 10.1728 13.9885 10.4768 14.1911 10.7435C14.3938 11.0101 14.6445 11.2181 14.9431 11.3675C15.2525 11.5168 15.5831 11.5915 15.9351 11.5915ZM24.8115 12.7755C24.2035 12.7755 23.6488 12.6315 23.1475 12.3435C22.6568 12.0448 22.2675 11.6288 21.9795 11.0955C21.6915 10.5515 21.5475 9.92748 21.5475 9.22348C21.5475 8.48748 21.6968 7.85814 21.9955 7.33548C22.3048 6.81281 22.7208 6.41281 23.2435 6.13548C23.7662 5.85814 24.3528 5.71948 25.0035 5.71948C25.5262 5.71948 26.0222 5.83148 26.4915 6.05548C26.9715 6.27948 27.3448 6.58881 27.6115 6.98348L27.5475 7.51148V0.231478H29.0195V12.6155H27.5315V10.9675L27.6915 11.3835C27.3822 11.7888 26.9822 12.1248 26.4915 12.3915C26.0008 12.6475 25.4408 12.7755 24.8115 12.7755ZM25.2755 11.5115C25.6702 11.5115 26.0222 11.4421 26.3315 11.3035C26.6408 11.1541 26.8968 10.9515 27.0995 10.6955C27.3022 10.4395 27.4462 10.1355 27.5315 9.78348V8.53548C27.4462 8.21548 27.2915 7.93814 27.0675 7.70348C26.8542 7.45814 26.5928 7.26614 26.2835 7.12748C25.9848 6.97814 25.6488 6.90348 25.2755 6.90348C24.8702 6.90348 24.4968 7.00481 24.1555 7.20748C23.8248 7.39948 23.5582 7.66614 23.3555 8.00748C23.1528 8.34881 23.0515 8.74348 23.0515 9.19148C23.0515 9.62881 23.1528 10.0235 23.3555 10.3755C23.5582 10.7168 23.8302 10.9941 24.1715 11.2075C24.5128 11.4101 24.8808 11.5115 25.2755 11.5115ZM34.6799 12.7755C34.0612 12.7755 33.4959 12.6421 32.9839 12.3755C32.4825 12.1088 32.0825 11.7195 31.7839 11.2075C31.4959 10.6848 31.3519 10.0501 31.3519 9.30348C31.3519 8.56748 31.5065 7.93281 31.8159 7.39948C32.1252 6.85548 32.5359 6.43948 33.0479 6.15148C33.5705 5.86348 34.1412 5.71948 34.7599 5.71948C35.3785 5.71948 35.9012 5.86348 36.3279 6.15148C36.7545 6.42881 37.0799 6.75948 37.3039 7.14348L37.2079 7.39948L37.3519 5.99148H38.7279V12.6155H37.2399V10.8875L37.3999 11.2715C37.3572 11.3781 37.2612 11.5168 37.1119 11.6875C36.9732 11.8475 36.7812 12.0128 36.5359 12.1835C36.3012 12.3541 36.0292 12.4981 35.7199 12.6155C35.4105 12.7221 35.0639 12.7755 34.6799 12.7755ZM35.0799 11.5435C35.4532 11.5435 35.7892 11.4741 36.0879 11.3355C36.3865 11.1968 36.6319 11.0048 36.8239 10.7595C37.0265 10.5035 37.1652 10.1995 37.2399 9.84748V8.55148C37.1545 8.23148 37.0052 7.95414 36.7919 7.71948C36.5785 7.47414 36.3225 7.28748 36.0239 7.15948C35.7252 7.02081 35.3945 6.95148 35.0319 6.95148C34.6372 6.95148 34.2745 7.04748 33.9439 7.23948C33.6132 7.43148 33.3465 7.69814 33.1439 8.03948C32.9519 8.38081 32.8559 8.78081 32.8559 9.23948C32.8559 9.66615 32.9572 10.0555 33.1599 10.4075C33.3625 10.7595 33.6345 11.0368 33.9759 11.2395C34.3172 11.4421 34.6852 11.5435 35.0799 11.5435ZM42.2629 3.07948H43.7509V6.02348H45.5749V7.19148H43.7509V12.6155H42.2629V7.19148H41.0469V6.02348H42.2629V3.07948ZM50.7649 12.7755C50.0075 12.7755 49.3569 12.6261 48.8129 12.3275C48.2689 12.0181 47.8475 11.6021 47.5489 11.0795C47.2609 10.5461 47.1169 9.93815 47.1169 9.25548C47.1169 8.60481 47.2822 8.01281 47.6129 7.47948C47.9435 6.94614 48.3862 6.51948 48.9409 6.19948C49.4955 5.87948 50.1142 5.71948 50.7969 5.71948C51.6715 5.71948 52.3969 5.97548 52.9729 6.48748C53.5489 6.99948 53.9382 7.70348 54.1409 8.59948L48.6849 10.5195L48.3329 9.63948L52.8129 8.00748L52.4929 8.21548C52.3649 7.86348 52.1515 7.55948 51.8529 7.30348C51.5542 7.03681 51.1649 6.90348 50.6849 6.90348C50.2795 6.90348 49.9169 7.00481 49.5969 7.20748C49.2769 7.39948 49.0262 7.66614 48.8449 8.00748C48.6635 8.34881 48.5729 8.73815 48.5729 9.17548C48.5729 9.63415 48.6689 10.0395 48.8609 10.3915C49.0529 10.7328 49.3142 11.0048 49.6449 11.2075C49.9862 11.3995 50.3702 11.4955 50.7969 11.4955C51.0849 11.4955 51.3622 11.4421 51.6289 11.3355C51.9062 11.2288 52.1622 11.0901 52.3969 10.9195L53.0849 12.0235C52.7542 12.2475 52.3809 12.4288 51.9649 12.5675C51.5595 12.7061 51.1595 12.7755 50.7649 12.7755ZM58.1814 12.7435C57.712 12.7435 57.2534 12.6635 56.8054 12.5035C56.368 12.3328 56.0054 12.0821 55.7174 11.7515L56.3414 10.8875C56.6187 11.1541 56.9014 11.3568 57.1894 11.4955C57.488 11.6235 57.7814 11.6875 58.0694 11.6875C58.2827 11.6875 58.48 11.6608 58.6614 11.6075C58.8427 11.5541 58.9867 11.4688 59.0934 11.3515C59.2107 11.2235 59.2694 11.0528 59.2694 10.8395C59.2694 10.6048 59.1894 10.4181 59.0294 10.2795C58.88 10.1408 58.6827 10.0288 58.4374 9.94348C58.2027 9.85814 57.952 9.77814 57.6854 9.70348C57.1414 9.52214 56.7254 9.27148 56.4374 8.95148C56.1494 8.63148 56.0054 8.24215 56.0054 7.78348C56.0054 7.43148 56.0907 7.10615 56.2614 6.80748C56.4427 6.49814 56.704 6.24748 57.0454 6.05548C57.3974 5.86348 57.8294 5.76748 58.3414 5.76748C58.8 5.76748 59.2107 5.82614 59.5734 5.94348C59.936 6.05014 60.2774 6.23148 60.5974 6.48748L60.0054 7.41548C59.8134 7.21281 59.584 7.06348 59.3174 6.96748C59.0507 6.87148 58.8107 6.81814 58.5974 6.80748C58.416 6.79681 58.24 6.82348 58.0694 6.88748C57.9094 6.95148 57.776 7.04214 57.6694 7.15948C57.5627 7.27681 57.5094 7.41548 57.5094 7.57548C57.5094 7.79948 57.584 7.98081 57.7334 8.11948C57.8827 8.25815 58.0747 8.37015 58.3094 8.45548C58.5547 8.53014 58.7947 8.61014 59.0294 8.69548C59.36 8.79148 59.6534 8.91948 59.9094 9.07948C60.1654 9.23948 60.368 9.43681 60.5174 9.67148C60.6774 9.90615 60.7574 10.1995 60.7574 10.5515C60.7574 10.9461 60.6614 11.3141 60.4694 11.6555C60.288 11.9861 60.0054 12.2528 59.6214 12.4555C59.248 12.6475 58.768 12.7435 58.1814 12.7435Z" fill="white"/>
</svg>
